<svg width="43" height="44" viewBox="0 0 43 44" fill="none" xmlns="http://www.w3.org/2000/svg">
<g filter="url(#filter0_d_4736_4957)">
<g opacity="0.3">
<path d="M5.54417 43.3149L0 38.5601V11.7235L5.54417 6.96875H36.671L42.2151 11.7235V38.5601L36.671 43.3149H5.54417Z" fill="black"/>
<path d="M5.54417 38.3675L0 33.5914V6.77617L5.54417 2H36.671L42.2151 6.77617V33.5914L36.671 38.3675H5.54417Z" fill="black"/>
</g>
<g opacity="0.8">
<path d="M5.54417 40.8341L0 37.8823V21.2214L5.54417 18.2695H36.671L42.2151 21.2214V37.8823L36.671 40.8341H5.54417Z" fill="black"/>
<path d="M5.54417 39.3044L0 36.3393V19.6917L5.54417 16.7266H36.671L42.2151 19.6917V36.3393L36.671 39.3044H5.54417Z" fill="black"/>
</g>
<path d="M36.7549 43H6.24503C4.20118 40.9562 3.04384 39.7988 1 37.7549V7.24506C3.04384 5.20121 4.20118 4.04384 6.24503 2H36.7549C38.7988 4.04384 39.9562 5.20121 42 7.24506V37.7549C39.9562 39.7988 38.7988 40.9562 36.7549 43Z" fill="#282828"/>
<g opacity="0.2">
<path d="M35.876 3.7954L37.3677 5.22361L40.3014 8.03243V36.3348L37.3677 39.1436L35.876 40.5718H6.3155L3.77962 38.1438L1.91499 36.3586V8.05623L3.77962 6.27097L6.3155 3.84302H35.876M36.4976 2.36719H5.69396C3.63044 4.34288 2.46196 5.46165 0.398438 7.43734V36.9299C2.46196 38.9056 3.63044 40.0243 5.69396 42H36.4976C38.5611 40.0243 39.7296 38.9056 41.7931 36.9299V7.43734C39.7296 5.46165 38.5611 4.34288 36.4976 2.36719Z" fill="black"/>
</g>
<path d="M36.1982 3.05887L37.8378 4.65947L40.9405 7.68828V37.3117L37.8378 40.3406L36.1982 41.9412H5.85224L3.48106 39.6264L1.10989 37.3117V7.68828L3.48106 5.37359L5.85224 3.05887H36.1982ZM36.627 2H5.37295C3.27926 4.04384 2.09369 5.20121 0 7.24506V37.755C2.09369 39.7988 3.27926 40.9562 5.37295 43H36.627C38.7207 40.9562 39.9063 39.7988 42 37.755V7.24506C39.9063 5.20121 38.7207 4.04384 36.627 2Z" fill="#212121"/>
</g>
<path d="M24.0752 30.3594H23.1953V31.2396H24.0752V30.3594Z" fill="#F9CD00"/>
<path d="M18.802 30.3594H17.9219V31.2396H18.802V30.3594Z" fill="#F7C306"/>
<path d="M25.841 28.5977H24.9609V29.4776H25.841V28.5977Z" fill="#F8C803"/>
<path d="M24.9581 27.7227H24.0781V28.6026H24.9581V27.7227Z" fill="#FCDC39"/>
<path d="M22.3174 27.7227H21.4375V28.6026H22.3174V27.7227Z" fill="#F1A518"/>
<path d="M20.5674 27.7227H19.6875V28.6026H20.5674V27.7227Z" fill="#F1A518"/>
<path d="M22.3174 26.8398H21.4375V27.7198H22.3174V26.8398Z" fill="#F1A518"/>
<path d="M21.4425 26.8398H20.5625V27.7198H21.4425V26.8398Z" fill="#F1A518"/>
<path d="M20.5674 26.8398H19.6875V27.7198H20.5674V26.8398Z" fill="#F1A518"/>
<path d="M17.044 26.8398H16.1641V27.7198H17.044V26.8398Z" fill="#FACF07"/>
<path d="M23.1926 25.9609H22.3125V26.8411H23.1926V25.9609Z" fill="#F1A518"/>
<path d="M22.3174 25.9609H21.4375V26.8411H22.3174V25.9609Z" fill="#F1A518"/>
<path d="M21.4425 25.9609H20.5625V26.8411H21.4425V25.9609Z" fill="#F1A518"/>
<path d="M20.5674 25.9609H19.6875V26.8411H20.5674V25.9609Z" fill="#F1A518"/>
<path d="M19.6846 25.9609H18.8047V26.8411H19.6846V25.9609Z" fill="#F1A518"/>
<path d="M17.044 25.9609H16.1641V26.8411H17.044V25.9609Z" fill="#FACF07"/>
<path d="M21.4425 25.0781H20.5625V25.9581H21.4425V25.0781Z" fill="#F1A518"/>
<path d="M21.4425 24.1992H20.5625V25.0791H21.4425V24.1992Z" fill="#F1A518"/>
<path d="M18.802 23.3203H17.9219V24.2002H18.802V23.3203Z" fill="#FACF07"/>
<path d="M22.3174 22.4414H21.4375V23.3213H22.3174V22.4414Z" fill="#FCDC38"/>
<path d="M20.5674 22.4414H19.6875V23.3213H20.5674V22.4414Z" fill="#FBD829"/>
<path d="M23.1926 21.5586H22.3125V22.4388H23.1926V21.5586Z" fill="#F7C106"/>
<path d="M19.6846 21.5586H18.8047V22.4388H19.6846V21.5586Z" fill="#F6BB0B"/>
<path d="M22.3174 20.6797H21.4375V21.5596H22.3174V20.6797Z" fill="#F1B70C"/>
<path d="M20.5674 20.6797H19.6875V21.5596H20.5674V20.6797Z" fill="#F6BB0B"/>
<path d="M24.9581 19.7969H24.0781V20.6768H24.9581V19.7969Z" fill="#0092D6"/>
<path d="M24.0789 24.2013H23.199V23.3213H22.3188H21.4389V22.4414H20.5589V23.3213H19.679H18.799V24.2013H17.9189V25.0812H17.0391V25.9611V26.8413V27.7213V28.6012H17.9189V29.4811H18.799V30.361H19.679H20.5589H21.4389H22.3188H23.199V29.4811H24.0789V28.6012V27.7213H24.9588V26.8413V25.9611V25.0812H24.0789V24.2013ZM23.199 26.8413H22.3188V27.7212V28.6011H21.4389V27.7212H20.5589V28.6011H19.679V27.7212V26.8413H18.799V25.961H19.679H20.5589V25.0811V24.2012H21.4389V25.0811V25.961H22.3188H23.199V26.8413Z" fill="#FDDD3A"/>
<path d="M18.7984 18.039V17.1588H17.9183V16.2788V15.3989H17.0384V14.519V13.6391H16.1585V12.7588V11.8789H15.2784H14.3984V12.7588H15.2784V13.6391V14.519H16.1585V15.3989V16.2788H17.0384V17.1588V18.039H17.9183V18.9189V19.7988H18.7984V20.6787H19.6783V19.7988V18.9189H18.7984V18.039Z" fill="#0087CE"/>
<path d="M29.3579 11.8789H28.4781V12.7588V13.6391H27.5981V14.519V15.3989H26.718V16.2788V17.1588H25.8381V18.039V18.9189H24.9581V19.7988V20.6787H24.0781V21.5586H24.9581V22.4389H25.8381V21.5586H26.718V20.6787V19.7988H27.5981V18.9189V18.039H28.4781V18.0062V17.1588V17.1263V16.2788H29.3579V15.3989V14.519H30.238V13.6391V12.7588H31.1179V11.8789H30.238H29.3579Z" fill="#0087CE"/>
<path d="M16.1613 19.7969H15.2812V20.6768H16.1613V19.7969Z" fill="#0099DB"/>
<path d="M17.9226 18.9189V18.039H17.0427V17.1588V16.2788H16.1628V15.3989V14.519H15.2827V13.6391V12.7588H14.4028V11.8789H13.5227H12.6428H11.7629H10.8828V12.7588H11.7629H12.6428H13.5227V13.6391V14.519H14.4028V15.3989V16.2788H15.2827V17.1588V18.039H16.1628V18.9189V19.7988H17.0427V20.6787H16.1628V21.5586V22.4389H17.0427V21.5586H17.9226V20.6787H18.8027V19.7988H17.9226V18.9189Z" fill="#0099DB"/>
<path d="M15.2784 18.0391H14.3984V18.9189V19.7988H15.2784V18.9189V18.0391Z" fill="#0099DB"/>
<path d="M14.3957 16.2812H13.5156V17.1612H14.3957V16.2812Z" fill="#0099DB"/>
<path d="M13.5205 14.5195H12.6406V15.3995V16.2794H13.5205V15.3995V14.5195Z" fill="#0099DB"/>
<path d="M12.6377 13.6406H11.7578V14.5206H12.6377V13.6406Z" fill="#0099DB"/>
<path d="M26.7124 11.8789H25.8324V12.7588V13.6391H24.9524V14.519V15.3989H24.0725V16.2788V17.1588H23.1925V18.039V18.9189H22.3125V19.7988V20.6787H23.1925H24.0725V19.7988H24.9524V18.9189H25.8324V18.039V17.1588H26.7124V16.2788V15.3989H27.5924V14.519V13.6391H28.4724V12.7588V11.8789H27.5924H26.7124Z" fill="#0099DB"/>
<path d="M21.4446 30.3594H20.5645H19.6846H18.8047V31.2396H19.6846H20.5645H21.4446H22.3245H23.2046V30.3594H22.3245H21.4446Z" fill="#FACE00"/>
<path d="M18.802 29.4766H17.9219V30.3564H18.802V29.4766Z" fill="#FACE00"/>
<path d="M24.0752 29.4776H23.1953V30.3575H24.0752H24.9552V29.4776V28.5977H24.0752V29.4776Z" fill="#FACE00"/>
<path d="M17.919 28.5977H17.0391V29.4776H17.919V28.5977Z" fill="#FACE00"/>
<path d="M17.919 24.1992H17.0391V25.0791H17.919V24.1992Z" fill="#FACE00"/>
<path d="M24.9524 23.3213H24.0725V22.4414H23.1925H22.3125V23.3213H23.1925V24.2013H24.0725V25.0812H24.9524V25.9611V26.8413V27.7212V28.6011H25.8324V27.7212V26.8413V25.9611V25.0812V24.2013H24.9524V23.3213Z" fill="#FACE00"/>
<path d="M17.9219 22.4414V23.3213H18.802H19.6819V22.4414H18.802H17.9219Z" fill="#FACE00"/>
<path d="M21.4475 21.5586H20.5674H19.6875V22.4388H20.5674H21.4475H22.3274V21.5586H21.4475Z" fill="#FACE00"/>
<path d="M21.4446 31.2383H20.5645H19.6846H18.8047V32.1182H19.6846H20.5645H21.4446H22.3245H23.2046V31.2383H22.3245H21.4446Z" fill="#F6BB0C"/>
<path d="M24.9581 30.3594H24.0781V31.2396H24.9581V30.3594Z" fill="#F6BB0C"/>
<path d="M17.919 30.3594H17.0391V31.2396H17.919V30.3594Z" fill="#F6BB0C"/>
<path d="M25.841 29.4766H24.9609V30.3564H25.841V29.4766Z" fill="#F6BB0C"/>
<path d="M17.044 29.4766H16.1641V30.3564H17.044V29.4766Z" fill="#F6BB0C"/>
<path d="M16.1613 27.7227H15.2812V28.6026H16.1613V27.7227Z" fill="#F6BB0C"/>
<path d="M16.1613 25.0781H15.2812V25.9581H16.1613V25.0781Z" fill="#F6BB0C"/>
<path d="M25.8359 25.0791V25.9591V26.8392V27.7192V28.5991H26.7159V27.7192V26.8392V25.9591V25.0791V24.1992H25.8359V25.0791Z" fill="#F6BB0C"/>
<path d="M25.841 23.3203H24.9609V24.2002H25.841V23.3203Z" fill="#F6BB0C"/>
<path d="M17.044 23.3203H16.1641V24.2002H17.044V23.3203Z" fill="#F6BB0C"/>
<path d="M24.9581 22.4414H24.0781V23.3213H24.9581V22.4414Z" fill="#F6BB0C"/>
<path d="M17.919 22.4414H17.0391V23.3213H17.919V22.4414Z" fill="#F6BB0C"/>
<path d="M24.0752 21.5586H23.1953V22.4388H24.0752V21.5586Z" fill="#F6BB0C"/>
<path d="M18.802 21.5586H17.9219V22.4388H18.802V21.5586Z" fill="#F6BB0C"/>
<path d="M21.4425 20.6797H20.5625V21.5596H21.4425V20.6797Z" fill="#F6BB0C"/>
<path d="M17.919 29.4766H17.0391V30.3564H17.919V29.4766Z" fill="white"/>
<path d="M16.1641 29.4825H17.044V28.6026V27.7227H16.1641V28.6026V29.4825Z" fill="white"/>
<path d="M15.2812 26.8411V27.721H16.1614V26.8411V25.9609H15.2812V26.8411Z" fill="white"/>
<path d="M16.1641 25.0791V25.9591H17.044V25.0791V24.1992H16.1641V25.0791Z" fill="white"/>
<path d="M17.919 23.3203H17.0391V24.2002H17.919V23.3203Z" fill="white"/>
<path d="M17.044 19.7969H16.1641V20.6768H17.044V19.7969Z" fill="white"/>
<path d="M15.2812 19.7988H16.1614V18.9189V18.0391H15.2812V18.9189V19.7988Z" fill="white"/>
<path d="M14.3984 18.0414H15.2784V17.1612V16.2812H14.3984V17.1612V18.0414Z" fill="white"/>
<path d="M14.3957 14.5195H13.5156V15.3995V16.2794H14.3957V15.3995V14.5195Z" fill="white"/>
<path d="M13.5177 12.7578H12.6377H11.7578V13.638H12.6377V14.518H13.5177V13.638V12.7578Z" fill="white"/>
<path d="M19.6846 32.9971H20.5645H21.4446H22.3245H23.2046V32.1172H22.3245H21.4446H20.5645H19.6846H18.8047V32.9971H19.6846Z" fill="black"/>
<path d="M24.9552 32.1182V31.2383H24.0752H23.1953V32.1182H24.0752H24.9552Z" fill="black"/>
<path d="M17.9189 32.1182H18.799V31.2383H17.9189H17.0391V32.1182H17.9189Z" fill="black"/>
<path d="M25.841 30.3594H24.9609V31.2396H25.841V30.3594Z" fill="black"/>
<path d="M17.044 30.3594H16.1641V31.2396H17.044V30.3594Z" fill="black"/>
<path d="M26.7159 29.4776V28.5977H25.8359V29.4776V30.3575H26.7159V29.4776Z" fill="black"/>
<path d="M15.2812 30.3575H16.1614V29.4776V28.5977H15.2812V29.4776V30.3575Z" fill="black"/>
<path d="M27.6066 27.7192V26.8392V25.9591V25.0791V24.1992H26.7266V25.0791V25.9591V26.8392V27.7192V28.5991H27.6066V27.7192Z" fill="black"/>
<path d="M14.3984 25.9581V26.8382V27.7181V28.5981H15.2784V27.7181V26.8382V25.9581V25.0781H14.3984V25.9581Z" fill="black"/>
<path d="M26.7159 23.3203H25.8359V24.2002H26.7159V23.3203Z" fill="black"/>
<path d="M15.2812 24.2002V25.0802H16.1614V24.2002V23.3203H15.2812V24.2002Z" fill="black"/>
<path d="M25.841 22.4414H24.9609V23.3213H25.841V22.4414Z" fill="black"/>
<path d="M17.044 22.4414H16.1641V23.3213H17.044V22.4414Z" fill="black"/>
<path d="M26.7159 21.5586H25.8359V22.4388H26.7159V21.5586Z" fill="black"/>
<path d="M24.9581 21.5586H24.0781V22.4388H24.9581V21.5586Z" fill="black"/>
<path d="M17.919 21.5586H17.0391V22.4388H17.919V21.5586Z" fill="black"/>
<path d="M23.1925 20.6797H22.3125V21.5596H23.1925H24.0725V20.6797H23.1925Z" fill="black"/>
<path d="M17.9219 20.6797V21.5596H18.802H19.6819V20.6797H18.802H17.9219Z" fill="black"/>
<path d="M16.1585 20.6768H15.2784V19.7969H14.3984V20.6768V21.5567H15.2784V22.437H16.1585V21.5567V20.6768Z" fill="black"/>
<path d="M27.5988 20.6768V19.7969H26.7188V20.6768V21.5567H27.5988V20.6768Z" fill="black"/>
<path d="M19.6875 20.6778H20.5674V19.7979V18.918H19.6875V19.7979V20.6778Z" fill="black"/>
<path d="M22.3174 18.918H21.4375V19.7979V20.6778H22.3174V19.7979V18.918Z" fill="black"/>
<path d="M28.4815 18.9189V18.0391H27.6016V18.9189V19.7988H28.4815V18.9189Z" fill="black"/>
<path d="M23.1925 18.0365V17.1562H22.3125V18.0365V18.9163H23.1925V18.0365Z" fill="black"/>
<path d="M18.8047 18.9163H19.6846V18.0365V17.1562H18.8047V18.0365V18.9163Z" fill="black"/>
<path d="M14.4006 18.0414V17.1612H13.5205V16.2812H12.6406V17.1612V18.0414H13.5205V18.9213V19.8012H14.4006V18.9213V18.0414Z" fill="black"/>
<path d="M28.4766 17.1287V17.1612V18.0086H29.3564V17.1612V17.1287V16.2812H28.4766V17.1287Z" fill="black"/>
<path d="M24.0752 16.2812H23.1953V17.1612H24.0752V16.2812Z" fill="black"/>
<path d="M17.9219 17.1622H18.802V16.2823V15.4023H17.9219V16.2823V17.1622Z" fill="black"/>
<path d="M29.3594 15.3995V16.2794H30.2395V15.3995V14.5195H29.3594V15.3995Z" fill="black"/>
<path d="M17.0391 15.4005H17.9189V14.5206V13.6406H17.0391V14.5206V15.4005Z" fill="black"/>
<path d="M12.6377 14.5195H11.7578V15.218V15.3995V16.2794H12.6377V15.3995V14.5195Z" fill="black"/>
<path d="M24.0781 14.5206V15.4005H24.9581V14.5206V13.6406H24.0781V14.5206Z" fill="black"/>
<path d="M30.2344 13.638V14.518H31.1142V13.638V12.8662V12.7578H30.2344V13.638Z" fill="black"/>
<path d="M16.1641 13.6391H17.044V12.7588V11.8789H16.1641V12.7588V13.6391Z" fill="black"/>
<path d="M11.7629 12.7578H10.8828V13.638V14.518H11.7629V13.638V12.7578Z" fill="black"/>
<path d="M31.9958 12.7598V11.8799V11H31.1157H30.2359H29.3558H28.4759H28.4336H27.5959H26.7159H25.8359V11.8799H26.7159H27.5959H28.4759H29.3558H30.2359H31.1157V12.7598H31.9958Z" fill="black"/>
<path d="M24.9609 12.7588V13.6391H25.841V12.7588V11.8789H24.9609V12.7588Z" fill="black"/>
<path d="M14.3999 11H13.5198H12.6399H11.76H10.8799H10V11.8799V12.7598H10.8799V11.8799H11.76H12.6399H13.5198H14.3999H15.2798H16.1599V11.1746V11H15.2798H14.3999Z" fill="black"/>
<defs>
<filter id="filter0_d_4736_4957" x="0" y="0.57233" width="42.2188" height="42.7441" filterUnits="userSpaceOnUse" color-interpolation-filters="sRGB">
<feFlood flood-opacity="0" result="BackgroundImageFix"/>
<feColorMatrix in="SourceAlpha" type="matrix" values="0 0 0 0 0 0 0 0 0 0 0 0 0 0 0 0 0 0 127 0" result="hardAlpha"/>
<feOffset dy="-1.42767"/>
<feComposite in2="hardAlpha" operator="out"/>
<feColorMatrix type="matrix" values="0 0 0 0 1 0 0 0 0 1 0 0 0 0 1 0 0 0 0.28 0"/>
<feBlend mode="normal" in2="BackgroundImageFix" result="effect1_dropShadow_4736_4957"/>
<feBlend mode="normal" in="SourceGraphic" in2="effect1_dropShadow_4736_4957" result="shape"/>
</filter>
</defs>
</svg>
