<svg width="195" height="231" viewBox="0 0 195 231" fill="none" xmlns="http://www.w3.org/2000/svg">
<rect y="133" width="195" height="98" fill="#212121"/>
<path d="M47.3535 173.748H44.8145V172.479H51.1621V173.748H48.623V181.365H47.3535V173.748ZM53.7012 177.557V181.365H52.4316V172.479H53.7012V176.287H57.5098V172.479H58.7793V181.365H57.5098V177.557H53.7012ZM61.3184 177.557H65.127V175.652H64.4922V175.018H63.8574V174.383H62.5879V175.018H61.9531V175.652H61.3184V177.557ZM61.3184 181.365H60.0488V175.018H60.6836V174.383H61.3184V173.748H61.9531V173.113H62.5879V172.479H63.8574V173.113H64.4922V173.748H65.127V174.383H65.7617V175.018H66.3965V181.365H65.127V178.826H61.3184V181.365ZM70.2051 173.748H67.666V172.479H74.0137V173.748H71.4746V181.365H70.2051V173.748ZM76.5527 176.287V175.652H77.1875V176.287H76.5527ZM77.1875 174.383H76.5527V172.479H78.457V175.018H77.8223V175.652H77.1875V174.383ZM88.6133 173.748H89.248V175.018H87.9785V174.383H87.3438V173.748H84.8047V174.383H84.1699V175.652H84.8047V176.287H87.9785V176.922H88.6133V177.557H89.248V180.096H88.6133V180.73H87.9785V181.365H84.1699V180.73H83.5352V180.096H82.9004V178.826H84.1699V179.461H84.8047V180.096H87.3438V179.461H87.9785V178.191H87.3438V177.557H84.1699V176.922H83.5352V176.287H82.9004V173.748H83.5352V173.113H84.1699V172.479H87.9785V173.113H88.6133V173.748ZM104.482 172.479V173.748H99.4043V176.287H103.213V177.557H99.4043V181.365H98.1348V172.479H104.482ZM110.195 173.748H107.656V174.383H107.021V179.461H107.656V180.096H110.195V179.461H110.83V174.383H110.195V173.748ZM107.021 173.113V172.479H110.83V173.113H111.465V173.748H112.1V180.096H111.465V180.73H110.83V181.365H107.021V180.73H106.387V180.096H105.752V173.748H106.387V173.113H107.021ZM114.639 173.748V176.287H117.812V175.652H118.447V174.383H117.812V173.748H114.639ZM115.273 177.557H114.639V181.365H113.369V172.479H118.447V173.113H119.082V173.748H119.717V176.287H119.082V176.922H118.447V177.557H117.178V178.191H117.812V178.826H118.447V179.461H119.082V180.096H119.717V181.365H118.447V180.73H117.812V180.096H117.178V179.461H116.543V178.826H115.908V178.191H115.273V177.557ZM129.238 180.096H128.604V172.479H129.873V179.461H130.508V180.096H133.047V179.461H133.682V172.479H134.951V180.096H134.316V180.73H133.682V181.365H129.873V180.73H129.238V180.096ZM141.934 173.748H142.568V175.018H141.299V174.383H140.664V173.748H138.125V174.383H137.49V175.652H138.125V176.287H141.299V176.922H141.934V177.557H142.568V180.096H141.934V180.73H141.299V181.365H137.49V180.73H136.855V180.096H136.221V178.826H137.49V179.461H138.125V180.096H140.664V179.461H141.299V178.191H140.664V177.557H137.49V176.922H136.855V176.287H136.221V173.748H136.855V173.113H137.49V172.479H141.299V173.113H141.934V173.748ZM147.012 180.096V181.365H145.742V180.096H147.012ZM33.3887 203.365H32.1191V200.191H31.4844V199.557H30.8496V198.922H30.2148V198.287H29.5801V194.479H30.8496V197.652H31.4844V198.287H32.1191V198.922H33.3887V198.287H34.0234V197.652H34.6582V194.479H35.9277V198.287H35.293V198.922H34.6582V199.557H34.0234V200.191H33.3887V203.365ZM41.6406 195.748H39.1016V196.383H38.4668V201.461H39.1016V202.096H41.6406V201.461H42.2754V196.383H41.6406V195.748ZM38.4668 195.113V194.479H42.2754V195.113H42.9102V195.748H43.5449V202.096H42.9102V202.73H42.2754V203.365H38.4668V202.73H37.832V202.096H37.1973V195.748H37.832V195.113H38.4668ZM45.4492 202.096H44.8145V194.479H46.084V201.461H46.7188V202.096H49.2578V201.461H49.8926V194.479H51.1621V202.096H50.5273V202.73H49.8926V203.365H46.084V202.73H45.4492V202.096ZM61.3184 199.557H65.127V197.652H64.4922V197.018H63.8574V196.383H62.5879V197.018H61.9531V197.652H61.3184V199.557ZM61.3184 203.365H60.0488V197.018H60.6836V196.383H61.3184V195.748H61.9531V195.113H62.5879V194.479H63.8574V195.113H64.4922V195.748H65.127V196.383H65.7617V197.018H66.3965V203.365H65.127V200.826H61.3184V203.365ZM68.9355 195.748V198.287H72.1094V197.652H72.7441V196.383H72.1094V195.748H68.9355ZM68.9355 199.557V203.365H67.666V194.479H72.7441V195.113H73.3789V195.748H74.0137V198.287H73.3789V198.922H72.7441V199.557H68.9355ZM76.5527 195.748V198.287H79.7266V197.652H80.3613V196.383H79.7266V195.748H76.5527ZM76.5527 199.557V203.365H75.2832V194.479H80.3613V195.113H80.9961V195.748H81.6309V198.287H80.9961V198.922H80.3613V199.557H76.5527ZM84.1699 195.748V198.287H87.3438V197.652H87.9785V196.383H87.3438V195.748H84.1699ZM84.8047 199.557H84.1699V203.365H82.9004V194.479H87.9785V195.113H88.6133V195.748H89.248V198.287H88.6133V198.922H87.9785V199.557H86.709V200.191H87.3438V200.826H87.9785V201.461H88.6133V202.096H89.248V203.365H87.9785V202.73H87.3438V202.096H86.709V201.461H86.0742V200.826H85.4395V200.191H84.8047V199.557ZM94.9609 195.748H92.4219V196.383H91.7871V201.461H92.4219V202.096H94.9609V201.461H95.5957V196.383H94.9609V195.748ZM91.7871 195.113V194.479H95.5957V195.113H96.2305V195.748H96.8652V202.096H96.2305V202.73H95.5957V203.365H91.7871V202.73H91.1523V202.096H90.5176V195.748H91.1523V195.113H91.7871ZM98.7695 200.826H98.1348V194.479H99.4043V200.191H100.039V200.826H100.674V201.461H101.943V200.826H102.578V200.191H103.213V194.479H104.482V200.826H103.848V201.461H103.213V202.096H102.578V202.73H101.943V203.365H100.674V202.73H100.039V202.096H99.4043V201.461H98.7695V200.826ZM112.1 194.479V195.748H107.021V198.287H110.83V199.557H107.021V202.096H112.1V203.365H105.752V194.479H112.1ZM115.908 202.096V200.826H117.178V202.096H116.543V202.73H115.908V203.365H114.639V202.73H115.273V202.096H115.908ZM122.256 195.748V198.287H125.43V197.652H126.064V196.383H125.43V195.748H122.256ZM122.891 199.557H122.256V203.365H120.986V194.479H126.064V195.113H126.699V195.748H127.334V198.287H126.699V198.922H126.064V199.557H124.795V200.191H125.43V200.826H126.064V201.461H126.699V202.096H127.334V203.365H126.064V202.73H125.43V202.096H124.795V201.461H124.16V200.826H123.525V200.191H122.891V199.557ZM129.873 203.365V202.096H131.143V195.748H129.873V194.479H133.682V195.748H132.412V202.096H133.682V203.365H129.873ZM141.934 195.748H142.568V197.018H141.299V196.383H140.664V195.748H138.125V196.383H137.49V201.461H138.125V202.096H140.664V201.461H141.299V199.557H139.395V198.287H142.568V202.096H141.934V202.73H141.299V203.365H137.49V202.73H136.855V202.096H136.221V195.748H136.855V195.113H137.49V194.479H141.299V195.113H141.934V195.748ZM145.107 199.557V203.365H143.838V194.479H145.107V198.287H148.916V194.479H150.186V203.365H148.916V199.557H145.107ZM153.994 195.748H151.455V194.479H157.803V195.748H155.264V203.365H153.994V195.748ZM162.881 202.096V203.365H161.611V202.096H162.881ZM162.881 198.922V198.287H163.516V197.652H164.15V196.383H163.516V195.748H160.977V196.383H160.342V197.018H159.072V195.748H159.707V195.113H160.342V194.479H164.15V195.113H164.785V195.748H165.42V198.287H164.785V198.922H164.15V199.557H163.516V200.191H162.881V200.826H161.611V199.557H162.246V198.922H162.881Z" fill="#9F9F9F"/>
<rect x="0.5" y="0.5" width="194" height="230" stroke="url(#paint0_linear_6224_7735)" stroke-linejoin="round" stroke-dasharray="10.23 10.23"/>
<rect x="0.5" y="0.5" width="194" height="132" stroke="url(#paint1_linear_6224_7735)" stroke-linejoin="round" stroke-dasharray="10.23 10.23"/>
<path d="M57 90V84H69V60H63V54H69V48H81V84H93V90H57ZM111 54H105V48H117V60H111V54ZM141 48V54H135V48H141ZM111 66H99V54H105V60H111V66ZM129 54H135V60H129V54ZM123 60H129V66H123V60ZM117 66H123V72H117V66ZM111 72H117V78H111V72ZM129 72H141V84H135V78H129V72ZM105 78H111V84H105V78ZM129 84H135V90H123V78H129V84ZM99 84H105V90H99V84Z" fill="#2D913C"/>
<defs>
<linearGradient id="paint0_linear_6224_7735" x1="97.5" y1="-3.10465" x2="97.5" y2="231" gradientUnits="userSpaceOnUse">
<stop stop-color="#FD8D23"/>
<stop offset="0.115" stop-color="#FAE61C"/>
<stop offset="0.22" stop-color="#EEF73B"/>
<stop offset="0.43" stop-color="#4CF038"/>
<stop offset="0.655" stop-color="#33C6F6"/>
<stop offset="0.735" stop-color="#559CFB"/>
<stop offset="0.81" stop-color="#7475FF"/>
<stop offset="1" stop-color="#D457FF"/>
</linearGradient>
<linearGradient id="paint1_linear_6224_7735" x1="97.5" y1="-1.78753" x2="97.5" y2="133" gradientUnits="userSpaceOnUse">
<stop stop-color="#FD8D23"/>
<stop offset="0.115" stop-color="#FAE61C"/>
<stop offset="0.22" stop-color="#EEF73B"/>
<stop offset="0.43" stop-color="#4CF038"/>
<stop offset="0.655" stop-color="#33C6F6"/>
<stop offset="0.735" stop-color="#559CFB"/>
<stop offset="0.81" stop-color="#7475FF"/>
<stop offset="1" stop-color="#D457FF"/>
</linearGradient>
</defs>
</svg>
