<svg width="195" height="231" viewBox="0 0 195 231" fill="none" xmlns="http://www.w3.org/2000/svg">
<rect y="133" width="195" height="98" fill="#212121"/>
<path d="M77.7246 148.408H81.3867V147.676H82.1191V146.211H81.3867V145.479H77.7246V148.408ZM76.2598 154.268V144.014H82.1191V144.746H82.8516V145.479H83.584V148.408H82.8516V149.873H83.584V152.803H82.8516V153.535H82.1191V154.268H76.2598ZM77.7246 152.803H81.3867V152.07H82.1191V150.605H81.3867V149.873H77.7246V152.803ZM85.7812 152.803H85.0488V144.014H86.5137V152.07H87.2461V152.803H90.1758V152.07H90.9082V144.014H92.373V152.803H91.6406V153.535H90.9082V154.268H86.5137V153.535H85.7812V152.803ZM95.3027 154.268V152.803H96.7676V145.479H95.3027V144.014H99.6973V145.479H98.2324V152.803H99.6973V154.268H95.3027ZM102.627 154.268V144.014H104.092V152.803H109.951V154.268H102.627ZM112.881 145.479V152.803H116.543V152.07H117.275V146.211H116.543V145.479H112.881ZM111.416 154.268V144.014H117.275V144.746H118.008V145.479H118.74V152.803H118.008V153.535H117.275V154.268H111.416Z" fill="#2D913C"/>
<path d="M44.8145 175.73H45.4492V176.365H44.1797V175.73H43.5449V175.096H42.9102V174.461H42.2754V168.113H42.9102V167.479H43.5449V166.844H44.1797V166.209H45.4492V166.844H44.8145V167.479H44.1797V168.113H43.5449V174.461H44.1797V175.096H44.8145V175.73ZM48.623 167.479H49.8926V174.461H51.1621V171.287H52.4316V174.461H53.7012V167.479H54.9707V175.096H54.3359V175.73H53.7012V176.365H52.4316V175.73H51.1621V176.365H49.8926V175.73H49.2578V175.096H48.623V167.479ZM62.5879 167.479V168.748H57.5098V171.287H61.3184V172.557H57.5098V175.096H62.5879V176.365H56.2402V167.479H62.5879ZM73.3789 175.096H75.918V174.461H76.5527V173.826H77.8223V175.096H77.1875V175.73H76.5527V176.365H72.7441V175.73H72.1094V175.096H71.4746V168.748H72.1094V168.113H72.7441V167.479H76.5527V168.113H77.1875V168.748H77.8223V170.018H76.5527V169.383H75.918V168.748H73.3789V169.383H72.7441V174.461H73.3789V175.096ZM80.3613 172.557H84.1699V170.652H83.5352V170.018H82.9004V169.383H81.6309V170.018H80.9961V170.652H80.3613V172.557ZM80.3613 176.365H79.0918V170.018H79.7266V169.383H80.3613V168.748H80.9961V168.113H81.6309V167.479H82.9004V168.113H83.5352V168.748H84.1699V169.383H84.8047V170.018H85.4395V176.365H84.1699V173.826H80.3613V176.365ZM87.9785 171.287V176.365H86.709V167.479H87.9785V169.383H88.6133V170.018H89.248V170.652H89.8828V171.287H90.5176V171.922H91.1523V172.557H91.7871V167.479H93.0566V176.365H91.7871V174.461H91.1523V173.826H90.5176V173.191H89.8828V172.557H89.248V171.922H88.6133V171.287H87.9785ZM95.5957 171.287V170.652H96.2305V171.287H95.5957ZM96.2305 169.383H95.5957V167.479H97.5V170.018H96.8652V170.652H96.2305V169.383ZM104.482 168.748H101.943V167.479H108.291V168.748H105.752V176.365H104.482V168.748ZM117.812 175.096H117.178V173.826H118.447V174.461H119.082V175.096H120.352V174.461H120.986V168.748H119.717V167.479H123.525V168.748H122.256V175.096H121.621V175.73H120.986V176.365H118.447V175.73H117.812V175.096ZM125.43 175.096H124.795V167.479H126.064V174.461H126.699V175.096H129.238V174.461H129.873V167.479H131.143V175.096H130.508V175.73H129.873V176.365H126.064V175.73H125.43V175.096ZM138.125 168.748H138.76V170.018H137.49V169.383H136.855V168.748H134.316V169.383H133.682V170.652H134.316V171.287H137.49V171.922H138.125V172.557H138.76V175.096H138.125V175.73H137.49V176.365H133.682V175.73H133.047V175.096H132.412V173.826H133.682V174.461H134.316V175.096H136.855V174.461H137.49V173.191H136.855V172.557H133.682V171.922H133.047V171.287H132.412V168.748H133.047V168.113H133.682V167.479H137.49V168.113H138.125V168.748ZM141.299 171.287V170.652H141.934V171.287H141.299ZM141.934 169.383H141.299V167.479H143.203V170.018H142.568V170.652H141.934V169.383ZM150.186 168.748H147.646V167.479H153.994V168.748H151.455V176.365H150.186V168.748ZM23.2324 190.748V197.096H26.4062V196.461H27.041V191.383H26.4062V190.748H23.2324ZM21.9629 198.365V189.479H27.041V190.113H27.6758V190.748H28.3105V197.096H27.6758V197.73H27.041V198.365H21.9629ZM34.0234 190.748H31.4844V191.383H30.8496V196.461H31.4844V197.096H34.0234V196.461H34.6582V191.383H34.0234V190.748ZM30.8496 190.113V189.479H34.6582V190.113H35.293V190.748H35.9277V197.096H35.293V197.73H34.6582V198.365H30.8496V197.73H30.2148V197.096H29.5801V190.748H30.2148V190.113H30.8496ZM38.4668 193.287V198.365H37.1973V189.479H38.4668V191.383H39.1016V192.018H39.7363V192.652H40.3711V193.287H41.0059V193.922H41.6406V194.557H42.2754V189.479H43.5449V198.365H42.2754V196.461H41.6406V195.826H41.0059V195.191H40.3711V194.557H39.7363V193.922H39.1016V193.287H38.4668ZM49.2578 190.748H46.7188V191.383H46.084V196.461H46.7188V197.096H49.2578V196.461H49.8926V191.383H49.2578V190.748ZM46.084 190.113V189.479H49.8926V190.113H50.5273V190.748H51.1621V197.096H50.5273V197.73H49.8926V198.365H46.084V197.73H45.4492V197.096H44.8145V190.748H45.4492V190.113H46.084ZM54.9707 190.748H52.4316V189.479H58.7793V190.748H56.2402V198.365H54.9707V190.748ZM61.3184 194.557V198.365H60.0488V189.479H61.3184V193.287H65.127V189.479H66.3965V198.365H65.127V194.557H61.3184ZM68.9355 198.365V197.096H70.2051V190.748H68.9355V189.479H72.7441V190.748H71.4746V197.096H72.7441V198.365H68.9355ZM76.5527 193.287V198.365H75.2832V189.479H76.5527V191.383H77.1875V192.018H77.8223V192.652H78.457V193.287H79.0918V193.922H79.7266V194.557H80.3613V189.479H81.6309V198.365H80.3613V196.461H79.7266V195.826H79.0918V195.191H78.457V194.557H77.8223V193.922H77.1875V193.287H76.5527ZM88.6133 190.748H89.248V192.018H87.9785V191.383H87.3438V190.748H84.8047V191.383H84.1699V196.461H84.8047V197.096H87.3438V196.461H87.9785V194.557H86.0742V193.287H89.248V197.096H88.6133V197.73H87.9785V198.365H84.1699V197.73H83.5352V197.096H82.9004V190.748H83.5352V190.113H84.1699V189.479H87.9785V190.113H88.6133V190.748ZM93.6914 197.096V198.365H92.4219V197.096H93.6914ZM99.4043 198.365H98.1348V189.479H99.4043V190.748H100.039V191.383H100.674V192.018H101.943V191.383H102.578V190.748H103.213V189.479H104.482V198.365H103.213V192.652H102.578V193.287H101.943V194.557H100.674V193.287H100.039V192.652H99.4043V198.365ZM112.1 189.479V190.748H107.021V193.287H110.83V194.557H107.021V197.096H112.1V198.365H105.752V189.479H112.1ZM114.639 198.365H113.369V189.479H114.639V190.748H115.273V191.383H115.908V192.018H117.178V191.383H117.812V190.748H118.447V189.479H119.717V198.365H118.447V192.652H117.812V193.287H117.178V194.557H115.908V193.287H115.273V192.652H114.639V198.365ZM127.334 189.479V190.748H122.256V193.287H126.064V194.557H122.256V197.096H127.334V198.365H120.986V189.479H127.334ZM134.316 190.748H134.951V192.018H133.682V191.383H133.047V190.748H130.508V191.383H129.873V192.652H130.508V193.287H133.682V193.922H134.316V194.557H134.951V197.096H134.316V197.73H133.682V198.365H129.873V197.73H129.238V197.096H128.604V195.826H129.873V196.461H130.508V197.096H133.047V196.461H133.682V195.191H133.047V194.557H129.873V193.922H129.238V193.287H128.604V190.748H129.238V190.113H129.873V189.479H133.682V190.113H134.316V190.748ZM145.107 193.287V198.365H143.838V189.479H145.107V191.383H145.742V192.018H146.377V192.652H147.012V193.287H147.646V193.922H148.281V194.557H148.916V189.479H150.186V198.365H148.916V196.461H148.281V195.826H147.646V195.191H147.012V194.557H146.377V193.922H145.742V193.287H145.107ZM157.803 189.479V190.748H152.725V193.287H156.533V194.557H152.725V197.096H157.803V198.365H151.455V189.479H157.803ZM165.42 189.479V190.748H160.342V193.287H164.15V194.557H160.342V197.096H165.42V198.365H159.072V189.479H165.42ZM167.959 190.748V197.096H171.133V196.461H171.768V191.383H171.133V190.748H167.959ZM166.689 198.365V189.479H171.768V190.113H172.402V190.748H173.037V197.096H172.402V197.73H171.768V198.365H166.689ZM74.0137 212.748H71.4746V211.479H77.8223V212.748H75.2832V220.365H74.0137V212.748ZM83.5352 212.748H80.9961V213.383H80.3613V218.461H80.9961V219.096H83.5352V218.461H84.1699V213.383H83.5352V212.748ZM80.3613 212.113V211.479H84.1699V212.113H84.8047V212.748H85.4395V219.096H84.8047V219.73H84.1699V220.365H80.3613V219.73H79.7266V219.096H79.0918V212.748H79.7266V212.113H80.3613ZM94.3262 211.479H95.5957V218.461H96.8652V215.287H98.1348V218.461H99.4043V211.479H100.674V219.096H100.039V219.73H99.4043V220.365H98.1348V219.73H96.8652V220.365H95.5957V219.73H94.9609V219.096H94.3262V211.479ZM103.213 220.365V219.096H104.482V212.748H103.213V211.479H107.021V212.748H105.752V219.096H107.021V220.365H103.213ZM110.83 215.287V220.365H109.561V211.479H110.83V213.383H111.465V214.018H112.1V214.652H112.734V215.287H113.369V215.922H114.004V216.557H114.639V211.479H115.908V220.365H114.639V218.461H114.004V217.826H113.369V217.191H112.734V216.557H112.1V215.922H111.465V215.287H110.83ZM120.352 219.73V220.365H119.082V219.73H119.717V219.096H120.352V218.461H120.986V212.113H120.352V211.479H119.717V210.844H119.082V210.209H120.352V210.844H120.986V211.479H121.621V212.113H122.256V218.461H121.621V219.096H120.986V219.73H120.352Z" fill="#9F9F9F"/>
<rect x="0.5" y="0.5" width="194" height="230" stroke="url(#paint0_linear_6224_7720)" stroke-linejoin="round" stroke-dasharray="10.23 10.23"/>
<rect x="0.5" y="0.5" width="194" height="132" stroke="url(#paint1_linear_6224_7720)" stroke-linejoin="round" stroke-dasharray="10.23 10.23"/>
<path d="M33 90V84H45V60H39V54H45V48H57V84H69V90H33ZM87 90V84H81V78H75V60H81V54H87V48H105V54H111V60H117V78H111V84H105V90H87ZM93 84H105V60H99V54H87V78H93V84ZM135 54H129V48H141V60H135V54ZM165 48V54H159V48H165ZM135 66H123V54H129V60H135V66ZM153 54H159V60H153V54ZM147 60H153V66H147V60ZM141 66H147V72H141V66ZM135 72H141V78H135V72ZM153 72H165V84H159V78H153V72ZM129 78H135V84H129V78ZM153 84H159V90H147V78H153V84ZM123 84H129V90H123V84Z" fill="#2D913C"/>
<defs>
<linearGradient id="paint0_linear_6224_7720" x1="97.5" y1="-3.10465" x2="97.5" y2="231" gradientUnits="userSpaceOnUse">
<stop stop-color="#FD8D23"/>
<stop offset="0.115" stop-color="#FAE61C"/>
<stop offset="0.22" stop-color="#EEF73B"/>
<stop offset="0.43" stop-color="#4CF038"/>
<stop offset="0.655" stop-color="#33C6F6"/>
<stop offset="0.735" stop-color="#559CFB"/>
<stop offset="0.81" stop-color="#7475FF"/>
<stop offset="1" stop-color="#D457FF"/>
</linearGradient>
<linearGradient id="paint1_linear_6224_7720" x1="97.5" y1="-1.78753" x2="97.5" y2="133" gradientUnits="userSpaceOnUse">
<stop stop-color="#FD8D23"/>
<stop offset="0.115" stop-color="#FAE61C"/>
<stop offset="0.22" stop-color="#EEF73B"/>
<stop offset="0.43" stop-color="#4CF038"/>
<stop offset="0.655" stop-color="#33C6F6"/>
<stop offset="0.735" stop-color="#559CFB"/>
<stop offset="0.81" stop-color="#7475FF"/>
<stop offset="1" stop-color="#D457FF"/>
</linearGradient>
</defs>
</svg>
