<svg width="195" height="231" viewBox="0 0 195 231" fill="none" xmlns="http://www.w3.org/2000/svg">
<rect y="133" width="195" height="98" fill="#212121"/>
<path d="M46.4629 153.479V156.408H50.125V155.676H50.8574V154.211H50.125V153.479H46.4629ZM46.4629 157.873V162.268H44.998V152.014H50.8574V152.746H51.5898V153.479H52.3223V156.408H51.5898V157.141H50.8574V157.873H46.4629ZM55.252 157.873H59.6465V155.676H58.9141V154.943H58.1816V154.211H56.7168V154.943H55.9844V155.676H55.252V157.873ZM55.252 162.268H53.7871V154.943H54.5195V154.211H55.252V153.479H55.9844V152.746H56.7168V152.014H58.1816V152.746H58.9141V153.479H59.6465V154.211H60.3789V154.943H61.1113V162.268H59.6465V159.338H55.252V162.268ZM64.041 153.479V156.408H67.7031V155.676H68.4355V154.211H67.7031V153.479H64.041ZM64.7734 157.873H64.041V162.268H62.5762V152.014H68.4355V152.746H69.168V153.479H69.9004V156.408H69.168V157.141H68.4355V157.873H66.9707V158.605H67.7031V159.338H68.4355V160.07H69.168V160.803H69.9004V162.268H68.4355V161.535H67.7031V160.803H66.9707V160.07H66.2383V159.338H65.5059V158.605H64.7734V157.873ZM74.2949 153.479H71.3652V152.014H78.6895V153.479H75.7598V162.268H74.2949V153.479ZM81.6191 156.408V162.268H80.1543V152.014H81.6191V154.211H82.3516V154.943H83.084V155.676H83.8164V156.408H84.5488V157.141H85.2812V157.873H86.0137V152.014H87.4785V162.268H86.0137V160.07H85.2812V159.338H84.5488V158.605H83.8164V157.873H83.084V157.141H82.3516V156.408H81.6191ZM96.2676 152.014V153.479H90.4082V156.408H94.8027V157.873H90.4082V160.803H96.2676V162.268H88.9434V152.014H96.2676ZM99.1973 153.479V156.408H102.859V155.676H103.592V154.211H102.859V153.479H99.1973ZM99.9297 157.873H99.1973V162.268H97.7324V152.014H103.592V152.746H104.324V153.479H105.057V156.408H104.324V157.141H103.592V157.873H102.127V158.605H102.859V159.338H103.592V160.07H104.324V160.803H105.057V162.268H103.592V161.535H102.859V160.803H102.127V160.07H101.395V159.338H100.662V158.605H99.9297V157.873ZM113.113 153.479H113.846V154.943H112.381V154.211H111.648V153.479H108.719V154.211H107.986V155.676H108.719V156.408H112.381V157.141H113.113V157.873H113.846V160.803H113.113V161.535H112.381V162.268H107.986V161.535H107.254V160.803H106.521V159.338H107.986V160.07H108.719V160.803H111.648V160.07H112.381V158.605H111.648V157.873H107.986V157.141H107.254V156.408H106.521V153.479H107.254V152.746H107.986V152.014H112.381V152.746H113.113V153.479ZM116.775 157.873V162.268H115.311V152.014H116.775V156.408H121.17V152.014H122.635V162.268H121.17V157.873H116.775ZM125.564 162.268V160.803H127.029V153.479H125.564V152.014H129.959V153.479H128.494V160.803H129.959V162.268H125.564ZM134.354 153.479V156.408H138.016V155.676H138.748V154.211H138.016V153.479H134.354ZM134.354 157.873V162.268H132.889V152.014H138.748V152.746H139.48V153.479H140.213V156.408H139.48V157.141H138.748V157.873H134.354ZM148.27 153.479H149.002V154.943H147.537V154.211H146.805V153.479H143.875V154.211H143.143V155.676H143.875V156.408H147.537V157.141H148.27V157.873H149.002V160.803H148.27V161.535H147.537V162.268H143.143V161.535H142.41V160.803H141.678V159.338H143.143V160.07H143.875V160.803H146.805V160.07H147.537V158.605H146.805V157.873H143.143V157.141H142.41V156.408H141.678V153.479H142.41V152.746H143.143V152.014H147.537V152.746H148.27V153.479Z" fill="#EE2E95"/>
<path d="M25.2715 183.73H25.9062V184.365H24.6367V183.73H24.002V183.096H23.3672V182.461H22.7324V176.113H23.3672V175.479H24.002V174.844H24.6367V174.209H25.9062V174.844H25.2715V175.479H24.6367V176.113H24.002V182.461H24.6367V183.096H25.2715V183.73ZM29.0801 175.479H30.3496V182.461H31.6191V179.287H32.8887V182.461H34.1582V175.479H35.4277V183.096H34.793V183.73H34.1582V184.365H32.8887V183.73H31.6191V184.365H30.3496V183.73H29.7148V183.096H29.0801V175.479ZM43.0449 175.479V176.748H37.9668V179.287H41.7754V180.557H37.9668V183.096H43.0449V184.365H36.6973V175.479H43.0449ZM53.2012 179.287V184.365H51.9316V175.479H53.2012V177.383H53.8359V178.018H54.4707V178.652H55.1055V179.287H55.7402V179.922H56.375V180.557H57.0098V175.479H58.2793V184.365H57.0098V182.461H56.375V181.826H55.7402V181.191H55.1055V180.557H54.4707V179.922H53.8359V179.287H53.2012ZM65.8965 175.479V176.748H60.8184V179.287H64.627V180.557H60.8184V183.096H65.8965V184.365H59.5488V175.479H65.8965ZM73.5137 175.479V176.748H68.4355V179.287H72.2441V180.557H68.4355V183.096H73.5137V184.365H67.166V175.479H73.5137ZM76.0527 176.748V183.096H79.2266V182.461H79.8613V177.383H79.2266V176.748H76.0527ZM74.7832 184.365V175.479H79.8613V176.113H80.4961V176.748H81.1309V183.096H80.4961V183.73H79.8613V184.365H74.7832ZM92.5566 176.748H90.0176V175.479H96.3652V176.748H93.8262V184.365H92.5566V176.748ZM102.078 176.748H99.5391V177.383H98.9043V182.461H99.5391V183.096H102.078V182.461H102.713V177.383H102.078V176.748ZM98.9043 176.113V175.479H102.713V176.113H103.348V176.748H103.982V183.096H103.348V183.73H102.713V184.365H98.9043V183.73H98.2695V183.096H97.6348V176.748H98.2695V176.113H98.9043ZM118.582 176.748H119.217V178.018H117.947V177.383H117.312V176.748H114.773V177.383H114.139V178.652H114.773V179.287H117.947V179.922H118.582V180.557H119.217V183.096H118.582V183.73H117.947V184.365H114.139V183.73H113.504V183.096H112.869V181.826H114.139V182.461H114.773V183.096H117.312V182.461H117.947V181.191H117.312V180.557H114.139V179.922H113.504V179.287H112.869V176.748H113.504V176.113H114.139V175.479H117.947V176.113H118.582V176.748ZM121.756 176.748V179.287H124.93V178.652H125.564V177.383H124.93V176.748H121.756ZM121.756 180.557V184.365H120.486V175.479H125.564V176.113H126.199V176.748H126.834V179.287H126.199V179.922H125.564V180.557H121.756ZM134.451 175.479V176.748H129.373V179.287H133.182V180.557H129.373V183.096H134.451V184.365H128.104V175.479H134.451ZM136.99 179.287V184.365H135.721V175.479H136.99V177.383H137.625V178.018H138.26V178.652H138.895V179.287H139.529V179.922H140.164V180.557H140.799V175.479H142.068V184.365H140.799V182.461H140.164V181.826H139.529V181.191H138.895V180.557H138.26V179.922H137.625V179.287H136.99ZM144.607 176.748V183.096H147.781V182.461H148.416V177.383H147.781V176.748H144.607ZM143.338 184.365V175.479H148.416V176.113H149.051V176.748H149.686V183.096H149.051V183.73H148.416V184.365H143.338ZM161.111 176.748H158.572V175.479H164.92V176.748H162.381V184.365H161.111V176.748ZM170.633 176.748H168.094V177.383H167.459V182.461H168.094V183.096H170.633V182.461H171.268V177.383H170.633V176.748ZM167.459 176.113V175.479H171.268V176.113H171.902V176.748H172.537V183.096H171.902V183.73H171.268V184.365H167.459V183.73H166.824V183.096H166.189V176.748H166.824V176.113H167.459ZM26.541 198.748V201.287H29.7148V200.652H30.3496V199.383H29.7148V198.748H26.541ZM27.1758 202.557H26.541V206.365H25.2715V197.479H30.3496V198.113H30.9844V198.748H31.6191V201.287H30.9844V201.922H30.3496V202.557H29.0801V203.191H29.7148V203.826H30.3496V204.461H30.9844V205.096H31.6191V206.365H30.3496V205.73H29.7148V205.096H29.0801V204.461H28.4453V203.826H27.8105V203.191H27.1758V202.557ZM39.2363 197.479V198.748H34.1582V201.287H37.9668V202.557H34.1582V205.096H39.2363V206.365H32.8887V197.479H39.2363ZM41.7754 202.557H45.584V200.652H44.9492V200.018H44.3145V199.383H43.0449V200.018H42.4102V200.652H41.7754V202.557ZM41.7754 206.365H40.5059V200.018H41.1406V199.383H41.7754V198.748H42.4102V198.113H43.0449V197.479H44.3145V198.113H44.9492V198.748H45.584V199.383H46.2188V200.018H46.8535V206.365H45.584V203.826H41.7754V206.365ZM50.0273 205.096H52.5664V204.461H53.2012V203.826H54.4707V205.096H53.8359V205.73H53.2012V206.365H49.3926V205.73H48.7578V205.096H48.123V198.748H48.7578V198.113H49.3926V197.479H53.2012V198.113H53.8359V198.748H54.4707V200.018H53.2012V199.383H52.5664V198.748H50.0273V199.383H49.3926V204.461H50.0273V205.096ZM57.0098 202.557V206.365H55.7402V197.479H57.0098V201.287H60.8184V197.479H62.0879V206.365H60.8184V202.557H57.0098ZM75.418 198.748H72.8789V199.383H72.2441V204.461H72.8789V205.096H75.418V204.461H76.0527V199.383H75.418V198.748ZM72.2441 198.113V197.479H76.0527V198.113H76.6875V198.748H77.3223V205.096H76.6875V205.73H76.0527V206.365H72.2441V205.73H71.6094V205.096H70.9746V198.748H71.6094V198.113H72.2441ZM79.2266 205.096H78.5918V197.479H79.8613V204.461H80.4961V205.096H83.0352V204.461H83.6699V197.479H84.9395V205.096H84.3047V205.73H83.6699V206.365H79.8613V205.73H79.2266V205.096ZM88.748 198.748H86.209V197.479H92.5566V198.748H90.0176V206.365H88.748V198.748ZM103.982 198.748H101.443V197.479H107.791V198.748H105.252V206.365H103.982V198.748ZM113.504 198.748H110.965V199.383H110.33V204.461H110.965V205.096H113.504V204.461H114.139V199.383H113.504V198.748ZM110.33 198.113V197.479H114.139V198.113H114.773V198.748H115.408V205.096H114.773V205.73H114.139V206.365H110.33V205.73H109.695V205.096H109.061V198.748H109.695V198.113H110.33ZM128.104 206.365H126.834V203.191H126.199V202.557H125.564V201.922H124.93V201.287H124.295V197.479H125.564V200.652H126.199V201.287H126.834V201.922H128.104V201.287H128.738V200.652H129.373V197.479H130.643V201.287H130.008V201.922H129.373V202.557H128.738V203.191H128.104V206.365ZM133.182 201.287V200.652H133.816V201.287H133.182ZM133.816 199.383H133.182V197.479H135.086V200.018H134.451V200.652H133.816V199.383ZM140.799 202.557H144.607V200.652H143.973V200.018H143.338V199.383H142.068V200.018H141.434V200.652H140.799V202.557ZM140.799 206.365H139.529V200.018H140.164V199.383H140.799V198.748H141.434V198.113H142.068V197.479H143.338V198.113H143.973V198.748H144.607V199.383H145.242V200.018H145.877V206.365H144.607V203.826H140.799V206.365ZM147.146 206.365V197.479H148.416V205.096H153.494V206.365H147.146ZM154.764 206.365V197.479H156.033V205.096H161.111V206.365H154.764ZM165.555 205.73V206.365H164.285V205.73H164.92V205.096H165.555V204.461H166.189V198.113H165.555V197.479H164.92V196.844H164.285V196.209H165.555V196.844H166.189V197.479H166.824V198.113H167.459V204.461H166.824V205.096H166.189V205.73H165.555Z" fill="#9F9F9F"/>
<rect x="0.5" y="0.5" width="194" height="230" stroke="url(#paint0_linear_6224_7728)" stroke-linejoin="round" stroke-dasharray="10.23 10.23"/>
<rect x="0.5" y="0.5" width="194" height="132" stroke="url(#paint1_linear_6224_7728)" stroke-linejoin="round" stroke-dasharray="10.23 10.23"/>
<path d="M57 90V84H51V78H63V84H81V66H51V48H87V54H63V60H87V66H93V84H87V90H57ZM111 54H105V48H117V60H111V54ZM141 48V54H135V48H141ZM111 66H99V54H105V60H111V66ZM129 54H135V60H129V54ZM123 60H129V66H123V60ZM117 66H123V72H117V66ZM111 72H117V78H111V72ZM129 72H141V84H135V78H129V72ZM105 78H111V84H105V78ZM129 84H135V90H123V78H129V84ZM99 84H105V90H99V84Z" fill="#EE2E95"/>
<defs>
<linearGradient id="paint0_linear_6224_7728" x1="97.5" y1="-3.10465" x2="97.5" y2="231" gradientUnits="userSpaceOnUse">
<stop stop-color="#FD8D23"/>
<stop offset="0.115" stop-color="#FAE61C"/>
<stop offset="0.22" stop-color="#EEF73B"/>
<stop offset="0.43" stop-color="#4CF038"/>
<stop offset="0.655" stop-color="#33C6F6"/>
<stop offset="0.735" stop-color="#559CFB"/>
<stop offset="0.81" stop-color="#7475FF"/>
<stop offset="1" stop-color="#D457FF"/>
</linearGradient>
<linearGradient id="paint1_linear_6224_7728" x1="97.5" y1="-1.78753" x2="97.5" y2="133" gradientUnits="userSpaceOnUse">
<stop stop-color="#FD8D23"/>
<stop offset="0.115" stop-color="#FAE61C"/>
<stop offset="0.22" stop-color="#EEF73B"/>
<stop offset="0.43" stop-color="#4CF038"/>
<stop offset="0.655" stop-color="#33C6F6"/>
<stop offset="0.735" stop-color="#559CFB"/>
<stop offset="0.81" stop-color="#7475FF"/>
<stop offset="1" stop-color="#D457FF"/>
</linearGradient>
</defs>
</svg>
