<svg width="195" height="231" viewBox="0 0 195 231" fill="none" xmlns="http://www.w3.org/2000/svg">
<rect y="133" width="195" height="98" fill="#212121"/>
<path d="M44.9629 145.479V152.803H48.625V152.07H49.3574V146.211H48.625V145.479H44.9629ZM43.498 154.268V144.014H49.3574V144.746H50.0898V145.479H50.8223V152.803H50.0898V153.535H49.3574V154.268H43.498ZM53.752 154.268V152.803H55.2168V145.479H53.752V144.014H58.1465V145.479H56.6816V152.803H58.1465V154.268H53.752ZM67.668 145.479H68.4004V146.943H66.9355V146.211H66.2031V145.479H63.2734V146.211H62.541V147.676H63.2734V148.408H66.9355V149.141H67.668V149.873H68.4004V152.803H67.668V153.535H66.9355V154.268H62.541V153.535H61.8086V152.803H61.0762V151.338H62.541V152.07H63.2734V152.803H66.2031V152.07H66.9355V150.605H66.2031V149.873H62.541V149.141H61.8086V148.408H61.0762V145.479H61.8086V144.746H62.541V144.014H66.9355V144.746H67.668V145.479ZM72.7949 145.479H69.8652V144.014H77.1895V145.479H74.2598V154.268H72.7949V145.479ZM80.1191 145.479V148.408H83.7812V147.676H84.5137V146.211H83.7812V145.479H80.1191ZM80.8516 149.873H80.1191V154.268H78.6543V144.014H84.5137V144.746H85.2461V145.479H85.9785V148.408H85.2461V149.141H84.5137V149.873H83.0488V150.605H83.7812V151.338H84.5137V152.07H85.2461V152.803H85.9785V154.268H84.5137V153.535H83.7812V152.803H83.0488V152.07H82.3164V151.338H81.584V150.605H80.8516V149.873ZM88.9082 154.268V152.803H90.373V145.479H88.9082V144.014H93.3027V145.479H91.8379V152.803H93.3027V154.268H88.9082ZM97.6973 148.408H101.359V147.676H102.092V146.211H101.359V145.479H97.6973V148.408ZM96.2324 154.268V144.014H102.092V144.746H102.824V145.479H103.557V148.408H102.824V149.873H103.557V152.803H102.824V153.535H102.092V154.268H96.2324ZM97.6973 152.803H101.359V152.07H102.092V150.605H101.359V149.873H97.6973V152.803ZM105.754 152.803H105.021V144.014H106.486V152.07H107.219V152.803H110.148V152.07H110.881V144.014H112.346V152.803H111.613V153.535H110.881V154.268H106.486V153.535H105.754V152.803ZM116.74 145.479H113.811V144.014H121.135V145.479H118.205V154.268H116.74V145.479ZM124.064 154.268V152.803H125.529V145.479H124.064V144.014H128.459V145.479H126.994V152.803H128.459V154.268H124.064ZM136.516 145.479H133.586V146.211H132.854V152.07H133.586V152.803H136.516V152.07H137.248V146.211H136.516V145.479ZM132.854 144.746V144.014H137.248V144.746H137.98V145.479H138.713V152.803H137.98V153.535H137.248V154.268H132.854V153.535H132.121V152.803H131.389V145.479H132.121V144.746H132.854ZM141.643 148.408V154.268H140.178V144.014H141.643V146.211H142.375V146.943H143.107V147.676H143.84V148.408H144.572V149.141H145.305V149.873H146.037V144.014H147.502V154.268H146.037V152.07H145.305V151.338H144.572V150.605H143.84V149.873H143.107V149.141H142.375V148.408H141.643Z" fill="#FAE61D"/>
<path d="M23.7715 175.73H24.4062V176.365H23.1367V175.73H22.502V175.096H21.8672V174.461H21.2324V168.113H21.8672V167.479H22.502V166.844H23.1367V166.209H24.4062V166.844H23.7715V167.479H23.1367V168.113H22.502V174.461H23.1367V175.096H23.7715V175.73ZM30.1191 168.748H27.5801V167.479H33.9277V168.748H31.3887V176.365H30.1191V168.748ZM36.4668 172.557V176.365H35.1973V167.479H36.4668V171.287H40.2754V167.479H41.5449V176.365H40.2754V172.557H36.4668ZM44.084 172.557H47.8926V170.652H47.2578V170.018H46.623V169.383H45.3535V170.018H44.7188V170.652H44.084V172.557ZM44.084 176.365H42.8145V170.018H43.4492V169.383H44.084V168.748H44.7188V168.113H45.3535V167.479H46.623V168.113H47.2578V168.748H47.8926V169.383H48.5273V170.018H49.1621V176.365H47.8926V173.826H44.084V176.365ZM52.9707 168.748H50.4316V167.479H56.7793V168.748H54.2402V176.365H52.9707V168.748ZM59.3184 171.287V170.652H59.9531V171.287H59.3184ZM59.9531 169.383H59.3184V167.479H61.2227V170.018H60.5879V170.652H59.9531V169.383ZM71.3789 168.748H72.0137V170.018H70.7441V169.383H70.1094V168.748H67.5703V169.383H66.9355V170.652H67.5703V171.287H70.7441V171.922H71.3789V172.557H72.0137V175.096H71.3789V175.73H70.7441V176.365H66.9355V175.73H66.3008V175.096H65.666V173.826H66.9355V174.461H67.5703V175.096H70.1094V174.461H70.7441V173.191H70.1094V172.557H66.9355V171.922H66.3008V171.287H65.666V168.748H66.3008V168.113H66.9355V167.479H70.7441V168.113H71.3789V168.748ZM87.248 167.479V168.748H82.1699V171.287H85.9785V172.557H82.1699V176.365H80.9004V167.479H87.248ZM92.9609 168.748H90.4219V169.383H89.7871V174.461H90.4219V175.096H92.9609V174.461H93.5957V169.383H92.9609V168.748ZM89.7871 168.113V167.479H93.5957V168.113H94.2305V168.748H94.8652V175.096H94.2305V175.73H93.5957V176.365H89.7871V175.73H89.1523V175.096H88.5176V168.748H89.1523V168.113H89.7871ZM97.4043 168.748V171.287H100.578V170.652H101.213V169.383H100.578V168.748H97.4043ZM98.0391 172.557H97.4043V176.365H96.1348V167.479H101.213V168.113H101.848V168.748H102.482V171.287H101.848V171.922H101.213V172.557H99.9434V173.191H100.578V173.826H101.213V174.461H101.848V175.096H102.482V176.365H101.213V175.73H100.578V175.096H99.9434V174.461H99.3086V173.826H98.6738V173.191H98.0391V172.557ZM115.178 176.365H113.908V173.191H113.273V172.557H112.639V171.922H112.004V171.287H111.369V167.479H112.639V170.652H113.273V171.287H113.908V171.922H115.178V171.287H115.812V170.652H116.447V167.479H117.717V171.287H117.082V171.922H116.447V172.557H115.812V173.191H115.178V176.365ZM120.256 171.287V170.652H120.891V171.287H120.256ZM120.891 169.383H120.256V167.479H122.16V170.018H121.525V170.652H120.891V169.383ZM127.873 172.557H131.682V170.652H131.047V170.018H130.412V169.383H129.143V170.018H128.508V170.652H127.873V172.557ZM127.873 176.365H126.604V170.018H127.238V169.383H127.873V168.748H128.508V168.113H129.143V167.479H130.412V168.113H131.047V168.748H131.682V169.383H132.316V170.018H132.951V176.365H131.682V173.826H127.873V176.365ZM134.221 176.365V167.479H135.49V175.096H140.568V176.365H134.221ZM141.838 176.365V167.479H143.107V175.096H148.186V176.365H141.838ZM151.994 175.096V173.826H153.264V175.096H152.629V175.73H151.994V176.365H150.725V175.73H151.359V175.096H151.994ZM159.611 168.748H157.072V167.479H163.42V168.748H160.881V176.365H159.611V168.748ZM169.133 168.748H166.594V169.383H165.959V174.461H166.594V175.096H169.133V174.461H169.768V169.383H169.133V168.748ZM165.959 168.113V167.479H169.768V168.113H170.402V168.748H171.037V175.096H170.402V175.73H169.768V176.365H165.959V175.73H165.324V175.096H164.689V168.748H165.324V168.113H165.959ZM49.1621 189.479V190.748H44.084V193.287H47.8926V194.557H44.084V197.096H49.1621V198.365H42.8145V189.479H49.1621ZM51.7012 194.557H55.5098V192.652H54.875V192.018H54.2402V191.383H52.9707V192.018H52.3359V192.652H51.7012V194.557ZM51.7012 198.365H50.4316V192.018H51.0664V191.383H51.7012V190.748H52.3359V190.113H52.9707V189.479H54.2402V190.113H54.875V190.748H55.5098V191.383H56.1445V192.018H56.7793V198.365H55.5098V195.826H51.7012V198.365ZM59.3184 190.748V193.287H62.4922V192.652H63.127V191.383H62.4922V190.748H59.3184ZM59.9531 194.557H59.3184V198.365H58.0488V189.479H63.127V190.113H63.7617V190.748H64.3965V193.287H63.7617V193.922H63.127V194.557H61.8574V195.191H62.4922V195.826H63.127V196.461H63.7617V197.096H64.3965V198.365H63.127V197.73H62.4922V197.096H61.8574V196.461H61.2227V195.826H60.5879V195.191H59.9531V194.557ZM66.9355 193.287V198.365H65.666V189.479H66.9355V191.383H67.5703V192.018H68.2051V192.652H68.8398V193.287H69.4746V193.922H70.1094V194.557H70.7441V189.479H72.0137V198.365H70.7441V196.461H70.1094V195.826H69.4746V195.191H68.8398V194.557H68.2051V193.922H67.5703V193.287H66.9355ZM80.9004 189.479H82.1699V196.461H83.4395V193.287H84.709V196.461H85.9785V189.479H87.248V197.096H86.6133V197.73H85.9785V198.365H84.709V197.73H83.4395V198.365H82.1699V197.73H81.5352V197.096H80.9004V189.479ZM89.7871 194.557V198.365H88.5176V189.479H89.7871V193.287H93.5957V189.479H94.8652V198.365H93.5957V194.557H89.7871ZM97.4043 198.365V197.096H98.6738V190.748H97.4043V189.479H101.213V190.748H99.9434V197.096H101.213V198.365H97.4043ZM103.752 198.365V189.479H105.021V197.096H110.1V198.365H103.752ZM117.717 189.479V190.748H112.639V193.287H116.447V194.557H112.639V197.096H117.717V198.365H111.369V189.479H117.717ZM130.412 198.365H129.143V195.191H128.508V194.557H127.873V193.922H127.238V193.287H126.604V189.479H127.873V192.652H128.508V193.287H129.143V193.922H130.412V193.287H131.047V192.652H131.682V189.479H132.951V193.287H132.316V193.922H131.682V194.557H131.047V195.191H130.412V198.365ZM138.664 190.748H136.125V191.383H135.49V196.461H136.125V197.096H138.664V196.461H139.299V191.383H138.664V190.748ZM135.49 190.113V189.479H139.299V190.113H139.934V190.748H140.568V197.096H139.934V197.73H139.299V198.365H135.49V197.73H134.855V197.096H134.221V190.748H134.855V190.113H135.49ZM142.473 197.096H141.838V189.479H143.107V196.461H143.742V197.096H146.281V196.461H146.916V189.479H148.186V197.096H147.551V197.73H146.916V198.365H143.107V197.73H142.473V197.096ZM55.5098 215.287H54.2402V214.018H55.5098V212.113H56.7793V213.383H58.0488V211.479H59.3184V212.748H60.5879V214.018H59.3184V215.922H60.5879V217.191H59.3184V219.096H58.0488V217.826H56.7793V219.73H55.5098V218.461H54.2402V217.191H55.5098V215.287ZM56.7793 214.652V216.557H58.0488V214.652H56.7793ZM63.127 212.748V219.096H66.3008V218.461H66.9355V213.383H66.3008V212.748H63.127ZM61.8574 220.365V211.479H66.9355V212.113H67.5703V212.748H68.2051V219.096H67.5703V219.73H66.9355V220.365H61.8574ZM73.918 212.748H71.3789V213.383H70.7441V218.461H71.3789V219.096H73.918V218.461H74.5527V213.383H73.918V212.748ZM70.7441 212.113V211.479H74.5527V212.113H75.1875V212.748H75.8223V219.096H75.1875V219.73H74.5527V220.365H70.7441V219.73H70.1094V219.096H69.4746V212.748H70.1094V212.113H70.7441ZM78.3613 215.287V220.365H77.0918V211.479H78.3613V213.383H78.9961V214.018H79.6309V214.652H80.2656V215.287H80.9004V215.922H81.5352V216.557H82.1699V211.479H83.4395V220.365H82.1699V218.461H81.5352V217.826H80.9004V217.191H80.2656V216.557H79.6309V215.922H78.9961V215.287H78.3613ZM89.1523 212.748H86.6133V213.383H85.9785V218.461H86.6133V219.096H89.1523V218.461H89.7871V213.383H89.1523V212.748ZM85.9785 212.113V211.479H89.7871V212.113H90.4219V212.748H91.0566V219.096H90.4219V219.73H89.7871V220.365H85.9785V219.73H85.3438V219.096H84.709V212.748H85.3438V212.113H85.9785ZM94.8652 212.748H92.3262V211.479H98.6738V212.748H96.1348V220.365H94.8652V212.748ZM101.213 216.557V220.365H99.9434V211.479H101.213V215.287H105.021V211.479H106.291V220.365H105.021V216.557H101.213ZM108.83 220.365V219.096H110.1V212.748H108.83V211.479H112.639V212.748H111.369V219.096H112.639V220.365H108.83ZM116.447 215.287V220.365H115.178V211.479H116.447V213.383H117.082V214.018H117.717V214.652H118.352V215.287H118.986V215.922H119.621V216.557H120.256V211.479H121.525V220.365H120.256V218.461H119.621V217.826H118.986V217.191H118.352V216.557H117.717V215.922H117.082V215.287H116.447ZM128.508 212.748H129.143V214.018H127.873V213.383H127.238V212.748H124.699V213.383H124.064V218.461H124.699V219.096H127.238V218.461H127.873V216.557H125.969V215.287H129.143V219.096H128.508V219.73H127.873V220.365H124.064V219.73H123.43V219.096H122.795V212.748H123.43V212.113H124.064V211.479H127.873V212.113H128.508V212.748ZM133.586 219.73V220.365H132.316V219.73H132.951V219.096H133.586V218.461H134.221V212.113H133.586V211.479H132.951V210.844H132.316V210.209H133.586V210.844H134.221V211.479H134.855V212.113H135.49V218.461H134.855V219.096H134.221V219.73H133.586Z" fill="#9F9F9F"/>
<rect x="0.5" y="0.5" width="194" height="230" stroke="url(#paint0_linear_6224_7713)" stroke-linejoin="round" stroke-dasharray="10.23 10.23"/>
<rect x="0.5" y="0.5" width="194" height="132" stroke="url(#paint1_linear_6224_7713)" stroke-linejoin="round" stroke-dasharray="10.23 10.23"/>
<path d="M33 90V84H27V72H33V66H27V54H33V48H57V54H63V66H57V72H69V84H63V90H33ZM45 66H57V54H39V60H45V66ZM33 84H57V78H45V72H33V84ZM99 90V78H75V66H81V60H87V54H93V48H111V72H117V78H111V90H99ZM87 72H99V60H93V66H87V72ZM135 54H129V48H141V60H135V54ZM165 48V54H159V48H165ZM135 66H123V54H129V60H135V66ZM153 54H159V60H153V54ZM147 60H153V66H147V60ZM141 66H147V72H141V66ZM135 72H141V78H135V72ZM153 72H165V84H159V78H153V72ZM129 78H135V84H129V78ZM153 84H159V90H147V78H153V84ZM123 84H129V90H123V84Z" fill="#FAE61D"/>
<defs>
<linearGradient id="paint0_linear_6224_7713" x1="97.5" y1="-3.10465" x2="97.5" y2="231" gradientUnits="userSpaceOnUse">
<stop stop-color="#FD8D23"/>
<stop offset="0.115" stop-color="#FAE61C"/>
<stop offset="0.22" stop-color="#EEF73B"/>
<stop offset="0.43" stop-color="#4CF038"/>
<stop offset="0.655" stop-color="#33C6F6"/>
<stop offset="0.735" stop-color="#559CFB"/>
<stop offset="0.81" stop-color="#7475FF"/>
<stop offset="1" stop-color="#D457FF"/>
</linearGradient>
<linearGradient id="paint1_linear_6224_7713" x1="97.5" y1="-1.78753" x2="97.5" y2="133" gradientUnits="userSpaceOnUse">
<stop stop-color="#FD8D23"/>
<stop offset="0.115" stop-color="#FAE61C"/>
<stop offset="0.22" stop-color="#EEF73B"/>
<stop offset="0.43" stop-color="#4CF038"/>
<stop offset="0.655" stop-color="#33C6F6"/>
<stop offset="0.735" stop-color="#559CFB"/>
<stop offset="0.81" stop-color="#7475FF"/>
<stop offset="1" stop-color="#D457FF"/>
</linearGradient>
</defs>
</svg>
