<svg width="71" height="67" viewBox="0 0 71 67" fill="none" xmlns="http://www.w3.org/2000/svg">
<path d="M59.1637 57.4502H56.793V59.6633H59.1637V57.4502Z" fill="url(#paint0_linear_6224_7549)"/>
<path d="M61.5282 50.8164H59.1641V53.0296H61.5282V50.8164Z" fill="url(#paint1_linear_6224_7549)"/>
<path d="M14.2001 28.7256H11.8359V30.9387H14.2001V28.7256Z" fill="#FAF1CE"/>
<path d="M68.6271 22.0986H66.2563H63.8922H61.528V24.3052V26.5184V28.7249V30.9381V33.1447V35.3578V37.5579V39.771V41.9842V44.1907V46.4039H59.1638V48.6105V50.8171H61.528V53.0302H59.1638V50.8171H56.793V53.0302H54.4288V55.2368H52.0646V57.45V59.6565H49.6938H47.3297V61.8697H44.9589V64.0763H42.5947H40.2305V66.2828H42.5947H44.9589H47.3297H49.6938V64.0763H52.0646H54.4288V61.8697H56.793V59.6565V57.45H59.1638V59.6565H61.528V57.45V55.2368H63.8922V53.0302H66.2563V50.8171V48.6105H68.6271V46.4039V44.1907H70.9979V41.9842V39.771V37.5579V35.3578V33.1447V30.9381V28.7249V26.5184V24.3052V22.0986H68.6271Z" fill="url(#paint2_linear_6224_7549)"/>
<path d="M44.9589 64.0234V64.076H40.2305V66.2826H49.6938V64.076H54.4288V64.0234H44.9589Z" fill="#1D1D1B"/>
<path d="M59.1637 15.4727H56.793V17.6858H59.1637V15.4727Z" fill="white"/>
<path d="M56.7897 22.0984V15.4721H54.4254V13.259H52.0613V11.0458H49.6905V8.83922H47.3263V6.63263H44.9358V4.42605H40.2075V2.21289H21.2939V4.42605H16.5655V6.63263H14.1947V8.83922H11.8305V11.0458H9.47288V13.259H7.1087V17.6918H4.73794V22.1116H2.36719V44.2037H4.73794V48.6234H7.1087V53.0431H9.47288V55.2497H11.8371V57.4629H14.2012V59.6695H16.5721V61.8826H21.3004V64.0892H40.2337V61.8826H44.9621V59.6563H47.3329V57.4497H49.6971V55.2366H52.0678V53.03H54.432V50.8169H56.7963V46.4037H59.167V22.105L56.7897 22.0984ZM11.8305 24.305V19.8918H14.1947V17.6918H16.5655V15.4852H18.9297V13.2721H21.2939V11.0589H40.2271V13.2721H42.5914V15.4852H44.9556V17.6918H47.3263V19.905H49.6905V24.3181H52.0613V41.9905H49.6905V46.4103H47.3263V48.6168H44.9358V50.8234H42.5717V53.0366H40.2075V55.2432H21.2939V53.0366H18.9297V50.8234H16.5655V48.6168H14.1947V46.4103H11.8305V41.9905H9.47288V24.305H11.8305Z" fill="url(#paint3_linear_6224_7549)"/>
<path d="M16.5701 22.0983H14.1992V24.3048V26.518V28.7246V30.9377V33.1443V35.3575V37.5575V39.7706H16.5701V41.9838V44.1904H18.9342V46.4035H21.2984V48.6101H23.6626H26.0334V50.8167H28.4041H30.7618H33.1326H35.4967H37.8675V48.6101H40.2317H42.5959V46.4035H44.9601V44.1904H47.3309V41.9838V39.7706H49.6951V37.5575V35.3575V33.1443V30.9377V28.7246V26.518H47.3309V24.3048V22.0983V19.8917H44.9601V17.6785H42.5959V15.4719H40.2317H37.8675V13.2588H35.4967H33.1326H30.7618H28.4041H26.0334H23.6626V15.4719H21.2984H18.9342V17.6785H16.5701V19.8917V22.0983Z" fill="url(#paint4_linear_6224_7549)"/>
<path d="M66.2566 15.4722V13.259V11.0459H63.8924V13.259H61.5282H59.1641V15.4722V17.6788V19.8919H61.5282V17.6788H63.8924H66.2566V19.8919V22.0985H68.6274V19.8919V17.6788V15.4722H66.2566Z" fill="url(#paint5_linear_6224_7549)"/>
<path d="M61.528 8.83948V6.63289H59.1638H56.793V4.42631H54.4288V2.21315H52.0646H49.6938V0H47.3297H44.9589H42.5947H40.2305V2.21315H42.5947H44.9589V4.42631H47.3297V6.63289H49.6938V8.83948H52.0646V11.0461H54.4288H56.793H59.1638H61.528H63.8922V8.83948H61.528Z" fill="url(#paint6_linear_6224_7549)"/>
<path d="M66.2566 15.4722V13.259V11.0459H63.8924V13.259H61.5282H59.1641V15.4722V17.6788V19.8919H61.5282V17.6788H63.8924H66.2566V19.8919V22.0985H68.6274V19.8919V17.6788V15.4722H66.2566Z" fill="url(#paint7_linear_6224_7549)"/>
<path d="M66.2548 15.4722V13.259V11.0459H63.8906V13.259V15.4722H66.2548V17.6788V19.8919V22.0985H68.6256V19.8919V17.6788V15.4722H66.2548Z" fill="#1D1D1B"/>
<path d="M56.7939 4.42578H54.4297V6.63893H56.7939V4.42578Z" fill="#1D1D1B"/>
<path d="M56.793 8.8394H59.1637H61.5279V6.63281H59.1637H56.793V8.8394Z" fill="#1D1D1B"/>
<path d="M52.0661 4.42605H54.4302V2.21289H52.0661H49.6953V4.42605H52.0661Z" fill="#1D1D1B"/>
<path d="M63.8942 8.83984H61.5234V11.053H63.8942V8.83984Z" fill="#1D1D1B"/>
<path d="M42.5947 2.21315H44.9589H47.3297H49.6938V0H47.3297H44.9589H42.5947H40.2305V2.21315H42.5947Z" fill="#1D1D1B"/>
<path d="M59.1637 50.8164H56.793V53.0296H59.1637V50.8164Z" fill="#1D1D1B"/>
<path d="M68.6286 22.0986H66.2578H68.6286V24.3052V26.5184V28.725V30.9381V33.1447V35.3578V37.5579V39.771V41.9842V44.1907H70.9994V41.9842V39.771V37.5579V35.3578V33.1447V30.9381V28.725V26.5184V24.3052V22.0986H68.6286Z" fill="#1D1D1B"/>
<path d="M59.1641 55.2373V57.4505V59.657H61.5282V57.4505V55.2373H59.1641Z" fill="#1D1D1B"/>
<path d="M63.8942 53.0303H61.5234V55.2434H63.8942V53.0303Z" fill="#1D1D1B"/>
<path d="M66.2548 44.1904V46.4036V48.6102H63.8906V50.8167V53.0299H66.2548V50.8167V48.6102H68.6256V46.4036V44.1904H66.2548Z" fill="#1D1D1B"/>
<path d="M49.6923 64.0762H47.3281V66.2827H49.6923V64.0762Z" fill="#1D1D1B"/>
<path d="M56.7939 59.6568V57.4502H54.4297V59.6568V61.8699H56.7939V59.6568Z" fill="#1D1D1B"/>
<path d="M54.4333 61.8701H52.0625V64.0833H54.4333V61.8701Z" fill="#1D1D1B"/>
<path d="M40.2301 61.8701V64.0767H37.8659H35.4952H33.131H30.7603H28.4026H26.0318H23.6611H21.2969V66.2833H23.6611H26.0318H28.4026H30.7603H33.131H35.4952H37.8659H40.2301V64.0767H42.5944H44.9586V61.8701H42.5944H40.2301Z" fill="#1D1D1B"/>
<path d="M47.3317 59.6562H44.9609V61.8694H47.3317V59.6562Z" fill="#1D1D1B"/>
<path d="M49.6923 57.4505H47.3281V59.657H49.6923H52.0631V57.4505V55.2373H49.6923V57.4505Z" fill="#1D1D1B"/>
<path d="M54.4333 53.0303H52.0625V55.2434H54.4333V53.0303Z" fill="#1D1D1B"/>
<path d="M56.7939 50.8164H54.4297V53.0296H56.7939V50.8164Z" fill="#1D1D1B"/>
<path d="M56.793 48.6099V50.8165H59.1637V48.6099V46.4033H56.793V48.6099Z" fill="#1D1D1B"/>
<path d="M59.1641 24.3047V26.5178V28.7244V30.9376V33.1442V35.3573V37.5573V39.7705V41.9836V44.1902V46.4034H61.5282V44.1902V41.9836V39.7705V37.5573V35.3573V33.1442V30.9376V28.7244V26.5178V24.3047H59.1641Z" fill="#1D1D1B"/>
<path d="M56.793 19.8928V22.0994H59.1637V19.8928V17.6797H56.793V19.8928Z" fill="#1D1D1B"/>
<path d="M56.7939 13.2588H54.4297V15.4719H56.7939V13.2588Z" fill="#1D1D1B"/>
<path d="M44.954 48.6104H42.5898V50.8169H44.954V48.6104Z" fill="#1D1D1B"/>
<path d="M47.3317 24.3048V26.5179H49.6959V28.7245V30.9377V33.1442V35.3574V37.5574V39.7706H47.3317V41.9837V44.1903H44.9609V46.4034V48.61H47.3317V46.4034H49.6959V44.1903V41.9837H52.0666V39.7706V37.5574V35.3574V33.1442V30.9377V28.7245V26.5179V24.3048H49.6959V22.0982V19.8916H47.3317V22.0982V24.3048Z" fill="#1D1D1B"/>
<path d="M47.3317 17.6797H44.9609V19.8928H47.3317V17.6797Z" fill="#1D1D1B"/>
<path d="M44.954 15.4727H42.5898V17.6858H44.954V15.4727Z" fill="#1D1D1B"/>
<path d="M54.4333 11.0459H52.0625V13.259H54.4333V11.0459Z" fill="#1D1D1B"/>
<path d="M52.0661 8.83984H49.6953V11.053H52.0661V8.83984Z" fill="#1D1D1B"/>
<path d="M49.6923 6.63281H47.3281V8.8394H49.6923V6.63281Z" fill="#1D1D1B"/>
<path d="M47.3317 4.42578H44.9609V6.63893H47.3317V4.42578Z" fill="#1D1D1B"/>
<path d="M40.2305 4.42605H42.5947H44.9589V2.21289H42.5947H40.2305V4.42605Z" fill="#1D1D1B"/>
<path d="M18.9345 61.8701H16.5703V64.0767H18.9345H21.2987V61.8701H18.9345Z" fill="#1D1D1B"/>
<path d="M16.5701 59.6562H14.1992V61.8694H16.5701V59.6562Z" fill="#1D1D1B"/>
<path d="M11.8368 57.4505V55.2373H9.47266V57.4505V59.657H11.8368H14.201V57.4505H11.8368Z" fill="#1D1D1B"/>
<path d="M9.46965 53.0303H7.10547V55.2434H9.46965V53.0303Z" fill="#1D1D1B"/>
<path d="M23.662 55.2361H26.0327H28.4035H30.7612H33.1319H35.4961H37.8668H40.231V53.0296H42.5953V50.8164H40.231H37.8668V53.0296H35.4961H33.1319H30.7612H28.4035H26.0327H23.662V50.8164H21.2978H18.9336V53.0296H21.2978V55.2361H23.662Z" fill="#1D1D1B"/>
<path d="M18.9345 48.6104H16.5703V50.8169H18.9345V48.6104Z" fill="#1D1D1B"/>
<path d="M7.10513 48.6104H4.73438V50.8169V53.0301H7.10513V50.8169V48.6104Z" fill="#1D1D1B"/>
<path d="M4.73794 44.1904H2.36719V46.4036V48.6102H4.73794V46.4036V44.1904Z" fill="#1D1D1B"/>
<path d="M2.36426 39.7705V37.5573V35.3573V33.1442V30.9376V28.7244V26.5178V24.3047H0V26.5178V28.7244V30.9376V33.1442V35.3573V37.5573V39.7705V41.9836H2.36426V39.7705Z" fill="#1D1D1B"/>
<path d="M16.5719 44.1915H14.201V41.985V39.7718H11.8368V37.5586V35.3586V33.1455V30.9389V28.7257V26.5192H14.201V24.306V22.0994H16.5719V19.8928V17.6797H14.201V19.8928H11.8368V22.0994V24.306H9.47266V26.5192V28.7257V30.9389V33.1455V35.3586V37.5586V39.7718V41.985H11.8368V44.1915V46.4047H14.201V48.6113H16.5719V46.4047V44.1915Z" fill="#1D1D1B"/>
<path d="M4.73794 19.8928V17.6797H2.36719V19.8928V22.0994H4.73794V19.8928Z" fill="#1D1D1B"/>
<path d="M18.9345 15.4727H16.5703V17.6858H18.9345V15.4727Z" fill="#1D1D1B"/>
<path d="M7.10513 15.4719V13.2588H4.73438V15.4719V17.6785H7.10513V15.4719Z" fill="#1D1D1B"/>
<path d="M23.662 15.4722V13.259H26.0327H28.4035H30.7612H33.1319H35.4961H37.8668V15.4722H40.231H42.5953V13.259H40.231V11.0459H37.8668H35.4961H33.1319H30.7612H28.4035H26.0327H23.662H21.2978V13.259H18.9336V15.4722H21.2978H23.662Z" fill="#1D1D1B"/>
<path d="M9.46965 11.0459H7.10547V13.259H9.46965V11.0459Z" fill="#1D1D1B"/>
<path d="M11.8434 8.83984H9.47266V11.053H11.8434V8.83984Z" fill="#1D1D1B"/>
<path d="M14.2001 6.63281H11.8359V8.8394H14.2001V6.63281Z" fill="#1D1D1B"/>
<path d="M16.5701 4.42578H14.1992V6.63893H16.5701V4.42578Z" fill="#1D1D1B"/>
<path d="M21.2987 4.42605V2.21289H18.9345H16.5703V4.42605H18.9345H21.2987Z" fill="#1D1D1B"/>
<path d="M26.0318 2.21315H28.4026H30.7603H33.131H35.4952H37.8659H40.2301V0H37.8659H35.4952H33.131H30.7603H28.4026H26.0318H23.6611H21.2969V2.21315H23.6611H26.0318Z" fill="#1D1D1B"/>
<path d="M63.8924 17.6797H61.5282V19.8928H59.1641V22.0994V24.306H61.5282V22.0994H63.8924H66.2566V19.8928V17.6797H63.8924Z" fill="white"/>
<path d="M61.5289 11.0459H59.1647H56.7939H54.4297V13.259H56.7939V15.4722H59.1647V13.259H61.5289H63.8931V11.0459H61.5289Z" fill="white"/>
<path d="M33.1328 50.8167H30.7621H28.4044H26.0336V48.6102H23.6629H21.2987V46.4036H18.9345V44.1904H16.5703V46.4036V48.6102H18.9345V50.8167H21.2987H23.6629V53.0299H26.0336H28.4044H30.7621H33.1328H35.497H37.8677V50.8167H35.497H33.1328Z" fill="white"/>
<path d="M37.8672 48.6104V50.8169H40.2314H42.5956V48.6104H40.2314H37.8672Z" fill="white"/>
<path d="M44.954 46.4043H42.5898V48.6174H44.954V46.4043Z" fill="white"/>
<path d="M16.5701 39.7715H14.1992V41.9846V44.1912H16.5701V41.9846V39.7715Z" fill="white"/>
<path d="M14.2001 35.3572V33.1441V30.9375H11.8359V33.1441V35.3572V37.5573V39.7704H14.2001V37.5573V35.3572Z" fill="white"/>
<path d="M14.2001 26.5186H11.8359V28.7317H14.2001V26.5186Z" fill="white"/>
<path d="M59.1637 57.4502H56.793V59.6633H59.1637V57.4502Z" fill="url(#paint8_linear_6224_7549)"/>
<path d="M61.5282 50.8164H59.1641V53.0296H61.5282V50.8164Z" fill="url(#paint9_linear_6224_7549)"/>
<path d="M14.2001 28.7256H11.8359V30.9387H14.2001V28.7256Z" fill="#FAF1CE"/>
<path d="M68.6271 22.0986H66.2563H63.8922H61.528V24.3052V26.5184V28.7249V30.9381V33.1447V35.3578V37.5579V39.771V41.9842V44.1907V46.4039H59.1638V48.6105V50.8171H61.528V53.0302H59.1638V50.8171H56.793V53.0302H54.4288V55.2368H52.0646V57.45V59.6565H49.6938H47.3297V61.8697H44.9589V64.0763H42.5947H40.2305V66.2828H42.5947H44.9589H47.3297H49.6938V64.0763H52.0646H54.4288V61.8697H56.793V59.6565V57.45H59.1638V59.6565H61.528V57.45V55.2368H63.8922V53.0302H66.2563V50.8171V48.6105H68.6271V46.4039V44.1907H70.9979V41.9842V39.771V37.5579V35.3578V33.1447V30.9381V28.7249V26.5184V24.3052V22.0986H68.6271Z" fill="url(#paint10_linear_6224_7549)"/>
<path d="M44.9589 64.0234V64.076H40.2305V66.2826H49.6938V64.076H54.4288V64.0234H44.9589Z" fill="#1D1D1B"/>
<path d="M59.1637 15.4727H56.793V17.6858H59.1637V15.4727Z" fill="white"/>
<path d="M56.7897 22.0984V15.4721H54.4254V13.259H52.0613V11.0458H49.6905V8.83922H47.3263V6.63263H44.9358V4.42605H40.2075V2.21289H21.2939V4.42605H16.5655V6.63263H14.1947V8.83922H11.8305V11.0458H9.47288V13.259H7.1087V17.6918H4.73794V22.1116H2.36719V44.2037H4.73794V48.6234H7.1087V53.0431H9.47288V55.2497H11.8371V57.4629H14.2012V59.6695H16.5721V61.8826H21.3004V64.0892H40.2337V61.8826H44.9621V59.6563H47.3329V57.4497H49.6971V55.2366H52.0678V53.03H54.432V50.8169H56.7963V46.4037H59.167V22.105L56.7897 22.0984ZM11.8305 24.305V19.8918H14.1947V17.6918H16.5655V15.4852H18.9297V13.2721H21.2939V11.0589H40.2271V13.2721H42.5914V15.4852H44.9556V17.6918H47.3263V19.905H49.6905V24.3181H52.0613V41.9905H49.6905V46.4103H47.3263V48.6168H44.9358V50.8234H42.5717V53.0366H40.2075V55.2432H21.2939V53.0366H18.9297V50.8234H16.5655V48.6168H14.1947V46.4103H11.8305V41.9905H9.47288V24.305H11.8305Z" fill="url(#paint11_linear_6224_7549)"/>
<path d="M16.5701 22.0983H14.1992V24.3048V26.518V28.7246V30.9377V33.1443V35.3575V37.5575V39.7706H16.5701V41.9838V44.1904H18.9342V46.4035H21.2984V48.6101H23.6626H26.0334V50.8167H28.4041H30.7618H33.1326H35.4967H37.8675V48.6101H40.2317H42.5959V46.4035H44.9601V44.1904H47.3309V41.9838V39.7706H49.6951V37.5575V35.3575V33.1443V30.9377V28.7246V26.518H47.3309V24.3048V22.0983V19.8917H44.9601V17.6785H42.5959V15.4719H40.2317H37.8675V13.2588H35.4967H33.1326H30.7618H28.4041H26.0334H23.6626V15.4719H21.2984H18.9342V17.6785H16.5701V19.8917V22.0983Z" fill="url(#paint12_linear_6224_7549)"/>
<path d="M66.2566 15.4722V13.259V11.0459H63.8924V13.259H61.5282H59.1641V15.4722V17.6788V19.8919H61.5282V17.6788H63.8924H66.2566V19.8919V22.0985H68.6274V19.8919V17.6788V15.4722H66.2566Z" fill="url(#paint13_linear_6224_7549)"/>
<path d="M61.528 8.83948V6.63289H59.1638H56.793V4.42631H54.4288V2.21315H52.0646H49.6938V0H47.3297H44.9589H42.5947H40.2305V2.21315H42.5947H44.9589V4.42631H47.3297V6.63289H49.6938V8.83948H52.0646V11.0461H54.4288H56.793H59.1638H61.528H63.8922V8.83948H61.528Z" fill="url(#paint14_linear_6224_7549)"/>
<path d="M66.2566 15.4722V13.259V11.0459H63.8924V13.259H61.5282H59.1641V15.4722V17.6788V19.8919H61.5282V17.6788H63.8924H66.2566V19.8919V22.0985H68.6274V19.8919V17.6788V15.4722H66.2566Z" fill="url(#paint15_linear_6224_7549)"/>
<path d="M66.2548 15.4722V13.259V11.0459H63.8906V13.259V15.4722H66.2548V17.6788V19.8919V22.0985H68.6256V19.8919V17.6788V15.4722H66.2548Z" fill="#1D1D1B"/>
<path d="M56.7939 4.42578H54.4297V6.63893H56.7939V4.42578Z" fill="#1D1D1B"/>
<path d="M56.793 8.8394H59.1637H61.5279V6.63281H59.1637H56.793V8.8394Z" fill="#1D1D1B"/>
<path d="M52.0661 4.42605H54.4302V2.21289H52.0661H49.6953V4.42605H52.0661Z" fill="#1D1D1B"/>
<path d="M63.8942 8.83984H61.5234V11.053H63.8942V8.83984Z" fill="#1D1D1B"/>
<path d="M42.5947 2.21315H44.9589H47.3297H49.6938V0H47.3297H44.9589H42.5947H40.2305V2.21315H42.5947Z" fill="#1D1D1B"/>
<path d="M59.1637 50.8164H56.793V53.0296H59.1637V50.8164Z" fill="#1D1D1B"/>
<path d="M68.6286 22.0986H66.2578H68.6286V24.3052V26.5184V28.725V30.9381V33.1447V35.3578V37.5579V39.771V41.9842V44.1907H70.9994V41.9842V39.771V37.5579V35.3578V33.1447V30.9381V28.725V26.5184V24.3052V22.0986H68.6286Z" fill="#1D1D1B"/>
<path d="M59.1641 55.2373V57.4505V59.657H61.5282V57.4505V55.2373H59.1641Z" fill="#1D1D1B"/>
<path d="M63.8942 53.0303H61.5234V55.2434H63.8942V53.0303Z" fill="#1D1D1B"/>
<path d="M66.2548 44.1904V46.4036V48.6102H63.8906V50.8167V53.0299H66.2548V50.8167V48.6102H68.6256V46.4036V44.1904H66.2548Z" fill="#1D1D1B"/>
<path d="M49.6923 64.0762H47.3281V66.2827H49.6923V64.0762Z" fill="#1D1D1B"/>
<path d="M56.7939 59.6568V57.4502H54.4297V59.6568V61.8699H56.7939V59.6568Z" fill="#1D1D1B"/>
<path d="M54.4333 61.8701H52.0625V64.0833H54.4333V61.8701Z" fill="#1D1D1B"/>
<path d="M40.2301 61.8701V64.0767H37.8659H35.4952H33.131H30.7603H28.4026H26.0318H23.6611H21.2969V66.2833H23.6611H26.0318H28.4026H30.7603H33.131H35.4952H37.8659H40.2301V64.0767H42.5944H44.9586V61.8701H42.5944H40.2301Z" fill="#1D1D1B"/>
<path d="M47.3317 59.6562H44.9609V61.8694H47.3317V59.6562Z" fill="#1D1D1B"/>
<path d="M49.6923 57.4505H47.3281V59.657H49.6923H52.0631V57.4505V55.2373H49.6923V57.4505Z" fill="#1D1D1B"/>
<path d="M54.4333 53.0303H52.0625V55.2434H54.4333V53.0303Z" fill="#1D1D1B"/>
<path d="M56.7939 50.8164H54.4297V53.0296H56.7939V50.8164Z" fill="#1D1D1B"/>
<path d="M56.793 48.6099V50.8165H59.1637V48.6099V46.4033H56.793V48.6099Z" fill="#1D1D1B"/>
<path d="M59.1641 24.3047V26.5178V28.7244V30.9376V33.1442V35.3573V37.5573V39.7705V41.9836V44.1902V46.4034H61.5282V44.1902V41.9836V39.7705V37.5573V35.3573V33.1442V30.9376V28.7244V26.5178V24.3047H59.1641Z" fill="#1D1D1B"/>
<path d="M56.793 19.8928V22.0994H59.1637V19.8928V17.6797H56.793V19.8928Z" fill="#1D1D1B"/>
<path d="M56.7939 13.2588H54.4297V15.4719H56.7939V13.2588Z" fill="#1D1D1B"/>
<path d="M44.954 48.6104H42.5898V50.8169H44.954V48.6104Z" fill="#1D1D1B"/>
<path d="M47.3317 24.3048V26.5179H49.6959V28.7245V30.9377V33.1442V35.3574V37.5574V39.7706H47.3317V41.9837V44.1903H44.9609V46.4034V48.61H47.3317V46.4034H49.6959V44.1903V41.9837H52.0666V39.7706V37.5574V35.3574V33.1442V30.9377V28.7245V26.5179V24.3048H49.6959V22.0982V19.8916H47.3317V22.0982V24.3048Z" fill="#1D1D1B"/>
<path d="M47.3317 17.6797H44.9609V19.8928H47.3317V17.6797Z" fill="#1D1D1B"/>
<path d="M44.954 15.4727H42.5898V17.6858H44.954V15.4727Z" fill="#1D1D1B"/>
<path d="M54.4333 11.0459H52.0625V13.259H54.4333V11.0459Z" fill="#1D1D1B"/>
<path d="M52.0661 8.83984H49.6953V11.053H52.0661V8.83984Z" fill="#1D1D1B"/>
<path d="M49.6923 6.63281H47.3281V8.8394H49.6923V6.63281Z" fill="#1D1D1B"/>
<path d="M47.3317 4.42578H44.9609V6.63893H47.3317V4.42578Z" fill="#1D1D1B"/>
<path d="M40.2305 4.42605H42.5947H44.9589V2.21289H42.5947H40.2305V4.42605Z" fill="#1D1D1B"/>
<path d="M18.9345 61.8701H16.5703V64.0767H18.9345H21.2987V61.8701H18.9345Z" fill="#1D1D1B"/>
<path d="M16.5701 59.6562H14.1992V61.8694H16.5701V59.6562Z" fill="#1D1D1B"/>
<path d="M11.8368 57.4505V55.2373H9.47266V57.4505V59.657H11.8368H14.201V57.4505H11.8368Z" fill="#1D1D1B"/>
<path d="M9.46965 53.0303H7.10547V55.2434H9.46965V53.0303Z" fill="#1D1D1B"/>
<path d="M23.662 55.2361H26.0327H28.4035H30.7612H33.1319H35.4961H37.8668H40.231V53.0296H42.5953V50.8164H40.231H37.8668V53.0296H35.4961H33.1319H30.7612H28.4035H26.0327H23.662V50.8164H21.2978H18.9336V53.0296H21.2978V55.2361H23.662Z" fill="#1D1D1B"/>
<path d="M18.9345 48.6104H16.5703V50.8169H18.9345V48.6104Z" fill="#1D1D1B"/>
<path d="M7.10513 48.6104H4.73438V50.8169V53.0301H7.10513V50.8169V48.6104Z" fill="#1D1D1B"/>
<path d="M4.73794 44.1904H2.36719V46.4036V48.6102H4.73794V46.4036V44.1904Z" fill="#1D1D1B"/>
<path d="M2.36426 39.7705V37.5573V35.3573V33.1442V30.9376V28.7244V26.5178V24.3047H0V26.5178V28.7244V30.9376V33.1442V35.3573V37.5573V39.7705V41.9836H2.36426V39.7705Z" fill="#1D1D1B"/>
<path d="M16.5719 44.1915H14.201V41.985V39.7718H11.8368V37.5586V35.3586V33.1455V30.9389V28.7257V26.5192H14.201V24.306V22.0994H16.5719V19.8928V17.6797H14.201V19.8928H11.8368V22.0994V24.306H9.47266V26.5192V28.7257V30.9389V33.1455V35.3586V37.5586V39.7718V41.985H11.8368V44.1915V46.4047H14.201V48.6113H16.5719V46.4047V44.1915Z" fill="#1D1D1B"/>
<path d="M4.73794 19.8928V17.6797H2.36719V19.8928V22.0994H4.73794V19.8928Z" fill="#1D1D1B"/>
<path d="M18.9345 15.4727H16.5703V17.6858H18.9345V15.4727Z" fill="#1D1D1B"/>
<path d="M7.10513 15.4719V13.2588H4.73438V15.4719V17.6785H7.10513V15.4719Z" fill="#1D1D1B"/>
<path d="M23.662 15.4722V13.259H26.0327H28.4035H30.7612H33.1319H35.4961H37.8668V15.4722H40.231H42.5953V13.259H40.231V11.0459H37.8668H35.4961H33.1319H30.7612H28.4035H26.0327H23.662H21.2978V13.259H18.9336V15.4722H21.2978H23.662Z" fill="#1D1D1B"/>
<path d="M9.46965 11.0459H7.10547V13.259H9.46965V11.0459Z" fill="#1D1D1B"/>
<path d="M11.8434 8.83984H9.47266V11.053H11.8434V8.83984Z" fill="#1D1D1B"/>
<path d="M14.2001 6.63281H11.8359V8.8394H14.2001V6.63281Z" fill="#1D1D1B"/>
<path d="M16.5701 4.42578H14.1992V6.63893H16.5701V4.42578Z" fill="#1D1D1B"/>
<path d="M21.2987 4.42605V2.21289H18.9345H16.5703V4.42605H18.9345H21.2987Z" fill="#1D1D1B"/>
<path d="M26.0318 2.21315H28.4026H30.7603H33.131H35.4952H37.8659H40.2301V0H37.8659H35.4952H33.131H30.7603H28.4026H26.0318H23.6611H21.2969V2.21315H23.6611H26.0318Z" fill="#1D1D1B"/>
<path d="M63.8924 17.6797H61.5282V19.8928H59.1641V22.0994V24.306H61.5282V22.0994H63.8924H66.2566V19.8928V17.6797H63.8924Z" fill="white"/>
<path d="M61.5289 11.0459H59.1647H56.7939H54.4297V13.259H56.7939V15.4722H59.1647V13.259H61.5289H63.8931V11.0459H61.5289Z" fill="white"/>
<path d="M33.1328 50.8167H30.7621H28.4044H26.0336V48.6102H23.6629H21.2987V46.4036H18.9345V44.1904H16.5703V46.4036V48.6102H18.9345V50.8167H21.2987H23.6629V53.0299H26.0336H28.4044H30.7621H33.1328H35.497H37.8677V50.8167H35.497H33.1328Z" fill="white"/>
<path d="M37.8672 48.6104V50.8169H40.2314H42.5956V48.6104H40.2314H37.8672Z" fill="white"/>
<path d="M44.954 46.4043H42.5898V48.6174H44.954V46.4043Z" fill="white"/>
<path d="M16.5701 39.7715H14.1992V41.9846V44.1912H16.5701V41.9846V39.7715Z" fill="white"/>
<path d="M14.2001 35.3572V33.1441V30.9375H11.8359V33.1441V35.3572V37.5573V39.7704H14.2001V37.5573V35.3572Z" fill="white"/>
<path d="M14.2001 26.5186H11.8359V28.7317H14.2001V26.5186Z" fill="white"/>
<path d="M22.6895 41.3535V23.0604H27.9161V25.6737H30.5294V28.287H33.1427V25.6737H35.756V23.0604H40.9826V41.3535H35.756V30.9003H33.1427V36.1269H30.5294V30.9003H27.9161V41.3535H22.6895Z" fill="black"/>
<defs>
<linearGradient id="paint0_linear_6224_7549" x1="57.9783" y1="57.4205" x2="57.9783" y2="59.6633" gradientUnits="userSpaceOnUse">
<stop stop-color="#FD8D23"/>
<stop offset="0.115" stop-color="#FAE61C"/>
<stop offset="0.22" stop-color="#EEF73B"/>
<stop offset="0.43" stop-color="#4CF038"/>
<stop offset="0.655" stop-color="#33C6F6"/>
<stop offset="0.81" stop-color="#7475FF"/>
<stop offset="1" stop-color="#D457FF"/>
</linearGradient>
<linearGradient id="paint1_linear_6224_7549" x1="60.3462" y1="50.7867" x2="60.3462" y2="53.0296" gradientUnits="userSpaceOnUse">
<stop stop-color="#FD8D23"/>
<stop offset="0.115" stop-color="#FAE61C"/>
<stop offset="0.22" stop-color="#EEF73B"/>
<stop offset="0.43" stop-color="#4CF038"/>
<stop offset="0.655" stop-color="#33C6F6"/>
<stop offset="0.81" stop-color="#7475FF"/>
<stop offset="1" stop-color="#D457FF"/>
</linearGradient>
<linearGradient id="paint2_linear_6224_7549" x1="55.6142" y1="21.5048" x2="55.6142" y2="66.2828" gradientUnits="userSpaceOnUse">
<stop stop-color="#FD8D23"/>
<stop offset="0.115" stop-color="#FAE61C"/>
<stop offset="0.22" stop-color="#EEF73B"/>
<stop offset="0.43" stop-color="#4CF038"/>
<stop offset="0.655" stop-color="#33C6F6"/>
<stop offset="0.81" stop-color="#7475FF"/>
<stop offset="1" stop-color="#D457FF"/>
</linearGradient>
<linearGradient id="paint3_linear_6224_7549" x1="30.7671" y1="1.38127" x2="30.7671" y2="64.0892" gradientUnits="userSpaceOnUse">
<stop stop-color="#FD8D23"/>
<stop offset="0.115" stop-color="#FAE61C"/>
<stop offset="0.22" stop-color="#EEF73B"/>
<stop offset="0.43" stop-color="#4CF038"/>
<stop offset="0.655" stop-color="#33C6F6"/>
<stop offset="0.81" stop-color="#7475FF"/>
<stop offset="1" stop-color="#D457FF"/>
</linearGradient>
<linearGradient id="paint4_linear_6224_7549" x1="31.9471" y1="12.754" x2="31.9471" y2="50.8167" gradientUnits="userSpaceOnUse">
<stop stop-color="#FD8D23"/>
<stop offset="0.115" stop-color="#FAE61C"/>
<stop offset="0.22" stop-color="#EEF73B"/>
<stop offset="0.43" stop-color="#4CF038"/>
<stop offset="0.655" stop-color="#33C6F6"/>
<stop offset="0.81" stop-color="#7475FF"/>
<stop offset="1" stop-color="#D457FF"/>
</linearGradient>
<linearGradient id="paint5_linear_6224_7549" x1="63.8957" y1="10.8974" x2="63.8957" y2="22.0985" gradientUnits="userSpaceOnUse">
<stop stop-color="#FD8D23"/>
<stop offset="0.115" stop-color="#FAE61C"/>
<stop offset="0.22" stop-color="#EEF73B"/>
<stop offset="0.43" stop-color="#4CF038"/>
<stop offset="0.655" stop-color="#33C6F6"/>
<stop offset="0.81" stop-color="#7475FF"/>
<stop offset="1" stop-color="#D457FF"/>
</linearGradient>
<linearGradient id="paint6_linear_6224_7549" x1="52.0613" y1="-0.14846" x2="52.0613" y2="11.0461" gradientUnits="userSpaceOnUse">
<stop stop-color="#FD8D23"/>
<stop offset="0.115" stop-color="#FAE61C"/>
<stop offset="0.22" stop-color="#EEF73B"/>
<stop offset="0.43" stop-color="#4CF038"/>
<stop offset="0.655" stop-color="#33C6F6"/>
<stop offset="0.81" stop-color="#7475FF"/>
<stop offset="1" stop-color="#D457FF"/>
</linearGradient>
<linearGradient id="paint7_linear_6224_7549" x1="63.8957" y1="10.8974" x2="63.8957" y2="22.0985" gradientUnits="userSpaceOnUse">
<stop stop-color="#FD8D23"/>
<stop offset="0.115" stop-color="#FAE61C"/>
<stop offset="0.22" stop-color="#EEF73B"/>
<stop offset="0.43" stop-color="#4CF038"/>
<stop offset="0.655" stop-color="#33C6F6"/>
<stop offset="0.81" stop-color="#7475FF"/>
<stop offset="1" stop-color="#D457FF"/>
</linearGradient>
<linearGradient id="paint8_linear_6224_7549" x1="57.9783" y1="57.4205" x2="57.9783" y2="59.6633" gradientUnits="userSpaceOnUse">
<stop stop-color="#FD8D23"/>
<stop offset="0.115" stop-color="#FAE61C"/>
<stop offset="0.22" stop-color="#EEF73B"/>
<stop offset="0.43" stop-color="#4CF038"/>
<stop offset="0.655" stop-color="#33C6F6"/>
<stop offset="0.81" stop-color="#7475FF"/>
<stop offset="1" stop-color="#D457FF"/>
</linearGradient>
<linearGradient id="paint9_linear_6224_7549" x1="60.3462" y1="50.7867" x2="60.3462" y2="53.0296" gradientUnits="userSpaceOnUse">
<stop stop-color="#FD8D23"/>
<stop offset="0.115" stop-color="#FAE61C"/>
<stop offset="0.22" stop-color="#EEF73B"/>
<stop offset="0.43" stop-color="#4CF038"/>
<stop offset="0.655" stop-color="#33C6F6"/>
<stop offset="0.81" stop-color="#7475FF"/>
<stop offset="1" stop-color="#D457FF"/>
</linearGradient>
<linearGradient id="paint10_linear_6224_7549" x1="55.6142" y1="21.5048" x2="55.6142" y2="66.2828" gradientUnits="userSpaceOnUse">
<stop stop-color="#FD8D23"/>
<stop offset="0.115" stop-color="#FAE61C"/>
<stop offset="0.22" stop-color="#EEF73B"/>
<stop offset="0.43" stop-color="#4CF038"/>
<stop offset="0.655" stop-color="#33C6F6"/>
<stop offset="0.81" stop-color="#7475FF"/>
<stop offset="1" stop-color="#D457FF"/>
</linearGradient>
<linearGradient id="paint11_linear_6224_7549" x1="30.7671" y1="1.38127" x2="30.7671" y2="64.0892" gradientUnits="userSpaceOnUse">
<stop stop-color="#FD8D23"/>
<stop offset="0.115" stop-color="#FAE61C"/>
<stop offset="0.22" stop-color="#EEF73B"/>
<stop offset="0.43" stop-color="#4CF038"/>
<stop offset="0.655" stop-color="#33C6F6"/>
<stop offset="0.81" stop-color="#7475FF"/>
<stop offset="1" stop-color="#D457FF"/>
</linearGradient>
<linearGradient id="paint12_linear_6224_7549" x1="31.9471" y1="12.754" x2="31.9471" y2="50.8167" gradientUnits="userSpaceOnUse">
<stop stop-color="#FD8D23"/>
<stop offset="0.115" stop-color="#FAE61C"/>
<stop offset="0.22" stop-color="#EEF73B"/>
<stop offset="0.43" stop-color="#4CF038"/>
<stop offset="0.655" stop-color="#33C6F6"/>
<stop offset="0.81" stop-color="#7475FF"/>
<stop offset="1" stop-color="#D457FF"/>
</linearGradient>
<linearGradient id="paint13_linear_6224_7549" x1="63.8957" y1="10.8974" x2="63.8957" y2="22.0985" gradientUnits="userSpaceOnUse">
<stop stop-color="#FD8D23"/>
<stop offset="0.115" stop-color="#FAE61C"/>
<stop offset="0.22" stop-color="#EEF73B"/>
<stop offset="0.43" stop-color="#4CF038"/>
<stop offset="0.655" stop-color="#33C6F6"/>
<stop offset="0.81" stop-color="#7475FF"/>
<stop offset="1" stop-color="#D457FF"/>
</linearGradient>
<linearGradient id="paint14_linear_6224_7549" x1="52.0613" y1="-0.14846" x2="52.0613" y2="11.0461" gradientUnits="userSpaceOnUse">
<stop stop-color="#FD8D23"/>
<stop offset="0.115" stop-color="#FAE61C"/>
<stop offset="0.22" stop-color="#EEF73B"/>
<stop offset="0.43" stop-color="#4CF038"/>
<stop offset="0.655" stop-color="#33C6F6"/>
<stop offset="0.81" stop-color="#7475FF"/>
<stop offset="1" stop-color="#D457FF"/>
</linearGradient>
<linearGradient id="paint15_linear_6224_7549" x1="63.8957" y1="10.8974" x2="63.8957" y2="22.0985" gradientUnits="userSpaceOnUse">
<stop stop-color="#FD8D23"/>
<stop offset="0.115" stop-color="#FAE61C"/>
<stop offset="0.22" stop-color="#EEF73B"/>
<stop offset="0.43" stop-color="#4CF038"/>
<stop offset="0.655" stop-color="#33C6F6"/>
<stop offset="0.81" stop-color="#7475FF"/>
<stop offset="1" stop-color="#D457FF"/>
</linearGradient>
</defs>
</svg>
