<svg width="148" height="48" viewBox="0 0 148 48" fill="none" xmlns="http://www.w3.org/2000/svg">
<path d="M42.5141 41.2842H40.8105V42.8745H42.5141V41.2842Z" fill="url(#paint0_linear_6102_32817)"/>
<path d="M44.2115 36.5156H42.5127V38.1059H44.2115V36.5156Z" fill="url(#paint1_linear_6102_32817)"/>
<path d="M10.2018 20.6406H8.50293V22.2309H10.2018V20.6406Z" fill="#FAF1CE"/>
<path d="M49.3154 15.8789H47.6118H45.913H44.2141V17.4645V19.0548V20.6404V22.2308V23.8164V25.4067V26.9876V28.5779V30.1682V31.7538V33.3442H42.5153V34.9298V36.5154H44.2141V38.1057H42.5153V36.5154H40.8117V38.1057H39.1128V39.6913H37.4139V41.2816V42.8672H35.7103H34.0115V44.4576H32.3079V46.0432H30.6091H28.9102V47.6288H30.6091H32.3079H34.0115H35.7103V46.0432H37.4139H39.1128V44.4576H40.8117V42.8672V41.2816H42.5153V42.8672H44.2141V41.2816V39.6913H45.913V38.1057H47.6118V36.5154V34.9298H49.3154V33.3442V31.7538H51.019V30.1682V28.5779V26.9876V25.4067V23.8164V22.2308V20.6404V19.0548V17.4645V15.8789H49.3154Z" fill="url(#paint2_linear_6102_32817)"/>
<path d="M32.3079 46.0068V46.0446H28.9102V47.6302H35.7103V46.0446H39.1128V46.0068H32.3079Z" fill="#1D1D1B"/>
<path d="M42.5141 11.1172H40.8105V12.7075H42.5141V11.1172Z" fill="white"/>
<path d="M40.8091 15.8802V11.1186H39.1102V9.5283H37.4113V7.93797H35.7077V6.35237H34.0089V4.76676H32.2911V3.18115H28.8934V1.59082H15.3025V3.18115H11.9048V4.76676H10.2011V6.35237H8.50228V7.93797H6.80815V9.5283H5.1093V12.7137H3.40573V15.8896H1.70215V31.7645H3.40573V34.9405H5.1093V38.1164H6.80815V39.702H8.50701V41.2923H10.2059V42.878H11.9095V44.4683H15.3072V46.0539H28.9123V44.4683H32.31V42.8685H34.0136V41.2829H35.7124V39.6926H37.416V38.107H39.1149V36.5166H40.8138V33.3454H42.5174V15.8849L40.8091 15.8802ZM8.50228 17.4658V14.2946H10.2011V12.7137H11.9048V11.1281H13.6036V9.53774H15.3025V7.94741H28.9075V9.53774H30.6064V11.1281H32.3053V12.7137H34.0089V14.304H35.7077V17.4752H37.4113V30.1742H35.7077V33.3502H34.0089V34.9358H32.2911V36.5214H30.5923V38.1117H28.8934V39.6973H15.3025V38.1117H13.6036V36.5214H11.9048V34.9358H10.2011V33.3502H8.50228V30.1742H6.80815V17.4658H8.50228Z" fill="url(#paint3_linear_6102_32817)"/>
<path d="M11.9048 15.8792H10.2012V17.4648V19.0551V20.6407V22.2311V23.8167V25.407V26.9879V28.5782H11.9048V30.1685V31.7542H13.6037V33.3445H15.3025V34.9301H17.0014H18.7049V36.5157H20.4085H22.1027H23.8063H25.5051H27.2087V34.9301H28.9076H30.6065V33.3445H32.3053V31.7542H34.0089V30.1685V28.5782H35.7078V26.9879V25.407V23.8167V22.2311V20.6407V19.0551H34.0089V17.4648V15.8792V14.2936H32.3053V12.7033H30.6065V11.1177H28.9076H27.2087V9.52734H25.5051H23.8063H22.1027H20.4085H18.7049H17.0014V11.1177H15.3025H13.6037V12.7033H11.9048V14.2936V15.8792Z" fill="url(#paint4_linear_6102_32817)"/>
<path d="M47.6093 11.1181V9.52782V7.9375H45.9104V9.52782H44.2115H42.5127V11.1181V12.7038V14.2941H44.2115V12.7038H45.9104H47.6093V14.2941V15.8797H49.3128V14.2941V12.7038V11.1181H47.6093Z" fill="url(#paint5_linear_6102_32817)"/>
<path d="M44.2141 6.35187V4.76626H42.5153H40.8117V3.18065H39.1128V1.59032H37.4139H35.7103V0H34.0115H32.3079H30.6091H28.9102V1.59032H30.6091H32.3079V3.18065H34.0115V4.76626H35.7103V6.35187H37.4139V7.93747H39.1128H40.8117H42.5153H44.2141H45.913V6.35187H44.2141Z" fill="url(#paint6_linear_6102_32817)"/>
<path d="M47.6093 11.1181V9.52782V7.9375H45.9104V9.52782H44.2115H42.5127V11.1181V12.7038V14.2941H44.2115V12.7038H45.9104H47.6093V14.2941V15.8797H49.3128V14.2941V12.7038V11.1181H47.6093Z" fill="url(#paint7_linear_6102_32817)"/>
<path d="M47.608 11.1181V9.52782V7.9375H45.9092V9.52782V11.1181H47.608V12.7038V14.2941V15.8797H49.3116V14.2941V12.7038V11.1181H47.608Z" fill="#1D1D1B"/>
<path d="M40.8122 3.17969H39.1133V4.77001H40.8122V3.17969Z" fill="#1D1D1B"/>
<path d="M40.8105 6.35123H42.5141H44.213V4.76562H42.5141H40.8105V6.35123Z" fill="#1D1D1B"/>
<path d="M37.4135 3.18115H39.1124V1.59082H37.4135H35.71V3.18115H37.4135Z" fill="#1D1D1B"/>
<path d="M45.9135 6.35254H44.21V7.94286H45.9135V6.35254Z" fill="#1D1D1B"/>
<path d="M30.6091 1.59032H32.3079H34.0115H35.7103V0H34.0115H32.3079H30.6091H28.9102V1.59032H30.6091Z" fill="#1D1D1B"/>
<path d="M42.5141 36.5156H40.8105V38.1059H42.5141V36.5156Z" fill="#1D1D1B"/>
<path d="M49.3149 15.8789H47.6113H49.3149V17.4645V19.0548V20.6404V22.2308V23.8164V25.4067V26.9876V28.5779V30.1682V31.7538H51.0185V30.1682V28.5779V26.9876V25.4067V23.8164V22.2308V20.6404V19.0548V17.4645V15.8789H49.3149Z" fill="#1D1D1B"/>
<path d="M42.5127 39.6924V41.2827V42.8683H44.2115V41.2827V39.6924H42.5127Z" fill="#1D1D1B"/>
<path d="M45.9135 38.1084H44.21V39.6987H45.9135V38.1084Z" fill="#1D1D1B"/>
<path d="M47.608 31.7549V33.3452V34.9308H45.9092V36.5164V38.1067H47.608V36.5164V34.9308H49.3116V33.3452V31.7549H47.608Z" fill="#1D1D1B"/>
<path d="M35.7076 46.043H34.0088V47.6286H35.7076V46.043Z" fill="#1D1D1B"/>
<path d="M40.8122 42.8698V41.2842H39.1133V42.8698V44.4601H40.8122V42.8698Z" fill="#1D1D1B"/>
<path d="M39.1147 44.459H37.4111V46.0493H39.1147V44.459Z" fill="#1D1D1B"/>
<path d="M28.9078 44.459V46.0446H27.2089H25.5054H23.8065H22.1029H20.4087H18.7052H17.0016H15.3027V47.6302H17.0016H18.7052H20.4087H22.1029H23.8065H25.5054H27.2089H28.9078V46.0446H30.6067H32.3055V44.459H30.6067H28.9078Z" fill="#1D1D1B"/>
<path d="M34.0122 42.8672H32.3086V44.4575H34.0122V42.8672Z" fill="#1D1D1B"/>
<path d="M35.7076 41.2827H34.0088V42.8683H35.7076H37.4112V41.2827V39.6924H35.7076V41.2827Z" fill="#1D1D1B"/>
<path d="M39.1147 38.1084H37.4111V39.6987H39.1147V38.1084Z" fill="#1D1D1B"/>
<path d="M40.8122 36.5156H39.1133V38.1059H40.8122V36.5156Z" fill="#1D1D1B"/>
<path d="M40.8105 34.9303V36.5159H42.5141V34.9303V33.3447H40.8105V34.9303Z" fill="#1D1D1B"/>
<path d="M42.5127 17.4648V19.0552V20.6408V22.2311V23.8167V25.407V26.9879V28.5782V30.1686V31.7542V33.3445H44.2115V31.7542V30.1686V28.5782V26.9879V25.407V23.8167V22.2311V20.6408V19.0552V17.4648H42.5127Z" fill="#1D1D1B"/>
<path d="M40.8105 14.2935V15.8791H42.5141V14.2935V12.7031H40.8105V14.2935Z" fill="#1D1D1B"/>
<path d="M40.8122 9.52734H39.1133V11.1177H40.8122V9.52734Z" fill="#1D1D1B"/>
<path d="M32.3043 34.9297H30.6055V36.5153H32.3043V34.9297Z" fill="#1D1D1B"/>
<path d="M34.0122 17.4632V19.0535H35.711V20.6391V22.2295V23.8151V25.4054V26.9863V28.5766H34.0122V30.1669V31.7525H32.3086V33.3429V34.9285H34.0122V33.3429H35.711V31.7525V30.1669H37.4146V28.5766V26.9863V25.4054V23.8151V22.2295V20.6391V19.0535V17.4632H35.711V15.8776V14.292H34.0122V15.8776V17.4632Z" fill="#1D1D1B"/>
<path d="M34.0122 12.7031H32.3086V14.2935H34.0122V12.7031Z" fill="#1D1D1B"/>
<path d="M32.3043 11.1172H30.6055V12.7075H32.3043V11.1172Z" fill="#1D1D1B"/>
<path d="M39.1147 7.9375H37.4111V9.52782H39.1147V7.9375Z" fill="#1D1D1B"/>
<path d="M37.4135 6.35254H35.71V7.94286H37.4135V6.35254Z" fill="#1D1D1B"/>
<path d="M35.7076 4.76562H34.0088V6.35123H35.7076V4.76562Z" fill="#1D1D1B"/>
<path d="M34.0122 3.17969H32.3086V4.77001H34.0122V3.17969Z" fill="#1D1D1B"/>
<path d="M28.9102 3.18115H30.6091H32.3079V1.59082H30.6091H28.9102V3.18115Z" fill="#1D1D1B"/>
<path d="M13.6071 44.459H11.9082V46.0446H13.6071H15.3059V44.459H13.6071Z" fill="#1D1D1B"/>
<path d="M11.9048 42.8672H10.2012V44.4575H11.9048V42.8672Z" fill="#1D1D1B"/>
<path d="M8.50549 41.2827V39.6924H6.80664V41.2827V42.8683H8.50549H10.2043V41.2827H8.50549Z" fill="#1D1D1B"/>
<path d="M6.80335 38.1084H5.10449V39.6987H6.80335V38.1084Z" fill="#1D1D1B"/>
<path d="M17.0032 39.6916H18.7068H20.4103H22.1045H23.8081H25.5069H27.2105H28.9094V38.1059H30.6083V36.5156H28.9094H27.2105V38.1059H25.5069H23.8081H22.1045H20.4103H18.7068H17.0032V36.5156H15.3043H13.6055V38.1059H15.3043V39.6916H17.0032Z" fill="#1D1D1B"/>
<path d="M13.6071 34.9297H11.9082V36.5153H13.6071V34.9297Z" fill="#1D1D1B"/>
<path d="M5.10494 34.9297H3.40137V36.5153V38.1056H5.10494V36.5153V34.9297Z" fill="#1D1D1B"/>
<path d="M3.40377 31.7549H1.7002V33.3452V34.9308H3.40377V33.3452V31.7549Z" fill="#1D1D1B"/>
<path d="M1.69891 28.5782V26.9879V25.407V23.8167V22.2311V20.6408V19.0552V17.4648H0V19.0552V20.6408V22.2311V23.8167V25.407V26.9879V28.5782V30.1686H1.69891V28.5782Z" fill="#1D1D1B"/>
<path d="M11.908 31.754H10.2043V30.1684V28.5781H8.50549V26.9877V25.4069V23.8165V22.2309V20.6406V19.055H10.2043V17.4647V15.8791H11.908V14.2935V12.7031H10.2043V14.2935H8.50549V15.8791V17.4647H6.80664V19.055V20.6406V22.2309V23.8165V25.4069V26.9877V28.5781V30.1684H8.50549V31.754V33.3443H10.2043V34.9299H11.908V33.3443V31.754Z" fill="#1D1D1B"/>
<path d="M3.40377 14.2935V12.7031H1.7002V14.2935V15.8791H3.40377V14.2935Z" fill="#1D1D1B"/>
<path d="M13.6071 11.1172H11.9082V12.7075H13.6071V11.1172Z" fill="#1D1D1B"/>
<path d="M5.10494 11.1177V9.52734H3.40137V11.1177V12.7033H5.10494V11.1177Z" fill="#1D1D1B"/>
<path d="M17.0032 11.1181V9.52782H18.7068H20.4103H22.1045H23.8081H25.5069H27.2105V11.1181H28.9094H30.6083V9.52782H28.9094V7.9375H27.2105H25.5069H23.8081H22.1045H20.4103H18.7068H17.0032H15.3043V9.52782H13.6055V11.1181H15.3043H17.0032Z" fill="#1D1D1B"/>
<path d="M6.80335 7.9375H5.10449V9.52782H6.80335V7.9375Z" fill="#1D1D1B"/>
<path d="M8.51022 6.35254H6.80664V7.94286H8.51022V6.35254Z" fill="#1D1D1B"/>
<path d="M10.2018 4.76562H8.50293V6.35123H10.2018V4.76562Z" fill="#1D1D1B"/>
<path d="M11.9048 3.17969H10.2012V4.77001H11.9048V3.17969Z" fill="#1D1D1B"/>
<path d="M15.3059 3.18115V1.59082H13.6071H11.9082V3.18115H13.6071H15.3059Z" fill="#1D1D1B"/>
<path d="M18.7052 1.59032H20.4087H22.1029H23.8065H25.5054H27.2089H28.9078V0H27.2089H25.5054H23.8065H22.1029H20.4087H18.7052H17.0016H15.3027V1.59032H17.0016H18.7052Z" fill="#1D1D1B"/>
<path d="M45.9104 12.7031H44.2115V14.2935H42.5127V15.8791V17.4647H44.2115V15.8791H45.9104H47.6093V14.2935V12.7031H45.9104Z" fill="white"/>
<path d="M44.2146 7.9375H42.5158H40.8122H39.1133V9.52782H40.8122V11.1181H42.5158V9.52782H44.2146H45.9135V7.9375H44.2146Z" fill="white"/>
<path d="M23.8097 36.5164H22.1061H20.4119H18.7083V34.9308H17.0048H15.3059V33.3452H13.6071V31.7549H11.9082V33.3452V34.9308H13.6071V36.5164H15.3059H17.0048V38.1067H18.7083H20.4119H22.1061H23.8097H25.5085H27.2121V36.5164H25.5085H23.8097Z" fill="white"/>
<path d="M27.2119 34.9297V36.5153H28.9108H30.6097V34.9297H28.9108H27.2119Z" fill="white"/>
<path d="M32.3043 33.3447H30.6055V34.9351H32.3043V33.3447Z" fill="white"/>
<path d="M11.9048 28.5771H10.2012V30.1675V31.7531H11.9048V30.1675V28.5771Z" fill="white"/>
<path d="M10.2018 25.4064V23.8161V22.2305H8.50293V23.8161V25.4064V26.9873V28.5776H10.2018V26.9873V25.4064Z" fill="white"/>
<path d="M10.2018 19.0557H8.50293V20.646H10.2018V19.0557Z" fill="white"/>
<path d="M42.5141 41.2842H40.8105V42.8745H42.5141V41.2842Z" fill="url(#paint8_linear_6102_32817)"/>
<path d="M44.2115 36.5156H42.5127V38.1059H44.2115V36.5156Z" fill="url(#paint9_linear_6102_32817)"/>
<path d="M10.2018 20.6406H8.50293V22.2309H10.2018V20.6406Z" fill="#FAF1CE"/>
<path d="M49.3154 15.8789H47.6118H45.913H44.2141V17.4645V19.0548V20.6404V22.2308V23.8164V25.4067V26.9876V28.5779V30.1682V31.7538V33.3442H42.5153V34.9298V36.5154H44.2141V38.1057H42.5153V36.5154H40.8117V38.1057H39.1128V39.6913H37.4139V41.2816V42.8672H35.7103H34.0115V44.4576H32.3079V46.0432H30.6091H28.9102V47.6288H30.6091H32.3079H34.0115H35.7103V46.0432H37.4139H39.1128V44.4576H40.8117V42.8672V41.2816H42.5153V42.8672H44.2141V41.2816V39.6913H45.913V38.1057H47.6118V36.5154V34.9298H49.3154V33.3442V31.7538H51.019V30.1682V28.5779V26.9876V25.4067V23.8164V22.2308V20.6404V19.0548V17.4645V15.8789H49.3154Z" fill="url(#paint10_linear_6102_32817)"/>
<path d="M32.3079 46.0068V46.0446H28.9102V47.6302H35.7103V46.0446H39.1128V46.0068H32.3079Z" fill="#1D1D1B"/>
<path d="M42.5141 11.1172H40.8105V12.7075H42.5141V11.1172Z" fill="white"/>
<path d="M40.8091 15.8802V11.1186H39.1102V9.5283H37.4113V7.93797H35.7077V6.35237H34.0089V4.76676H32.2911V3.18115H28.8934V1.59082H15.3025V3.18115H11.9048V4.76676H10.2011V6.35237H8.50228V7.93797H6.80815V9.5283H5.1093V12.7137H3.40573V15.8896H1.70215V31.7645H3.40573V34.9405H5.1093V38.1164H6.80815V39.702H8.50701V41.2923H10.2059V42.878H11.9095V44.4683H15.3072V46.0539H28.9123V44.4683H32.31V42.8685H34.0136V41.2829H35.7124V39.6926H37.416V38.107H39.1149V36.5166H40.8138V33.3454H42.5174V15.8849L40.8091 15.8802ZM8.50228 17.4658V14.2946H10.2011V12.7137H11.9048V11.1281H13.6036V9.53774H15.3025V7.94741H28.9075V9.53774H30.6064V11.1281H32.3053V12.7137H34.0089V14.304H35.7077V17.4752H37.4113V30.1742H35.7077V33.3502H34.0089V34.9358H32.2911V36.5214H30.5923V38.1117H28.8934V39.6973H15.3025V38.1117H13.6036V36.5214H11.9048V34.9358H10.2011V33.3502H8.50228V30.1742H6.80815V17.4658H8.50228Z" fill="url(#paint11_linear_6102_32817)"/>
<path d="M11.9048 15.8792H10.2012V17.4648V19.0551V20.6407V22.2311V23.8167V25.407V26.9879V28.5782H11.9048V30.1685V31.7542H13.6037V33.3445H15.3025V34.9301H17.0014H18.7049V36.5157H20.4085H22.1027H23.8063H25.5051H27.2087V34.9301H28.9076H30.6065V33.3445H32.3053V31.7542H34.0089V30.1685V28.5782H35.7078V26.9879V25.407V23.8167V22.2311V20.6407V19.0551H34.0089V17.4648V15.8792V14.2936H32.3053V12.7033H30.6065V11.1177H28.9076H27.2087V9.52734H25.5051H23.8063H22.1027H20.4085H18.7049H17.0014V11.1177H15.3025H13.6037V12.7033H11.9048V14.2936V15.8792Z" fill="url(#paint12_linear_6102_32817)"/>
<path d="M47.6093 11.1181V9.52782V7.9375H45.9104V9.52782H44.2115H42.5127V11.1181V12.7038V14.2941H44.2115V12.7038H45.9104H47.6093V14.2941V15.8797H49.3128V14.2941V12.7038V11.1181H47.6093Z" fill="url(#paint13_linear_6102_32817)"/>
<path d="M44.2141 6.35187V4.76626H42.5153H40.8117V3.18065H39.1128V1.59032H37.4139H35.7103V0H34.0115H32.3079H30.6091H28.9102V1.59032H30.6091H32.3079V3.18065H34.0115V4.76626H35.7103V6.35187H37.4139V7.93747H39.1128H40.8117H42.5153H44.2141H45.913V6.35187H44.2141Z" fill="url(#paint14_linear_6102_32817)"/>
<path d="M47.6093 11.1181V9.52782V7.9375H45.9104V9.52782H44.2115H42.5127V11.1181V12.7038V14.2941H44.2115V12.7038H45.9104H47.6093V14.2941V15.8797H49.3128V14.2941V12.7038V11.1181H47.6093Z" fill="url(#paint15_linear_6102_32817)"/>
<path d="M47.608 11.1181V9.52782V7.9375H45.9092V9.52782V11.1181H47.608V12.7038V14.2941V15.8797H49.3116V14.2941V12.7038V11.1181H47.608Z" fill="#1D1D1B"/>
<path d="M40.8122 3.17969H39.1133V4.77001H40.8122V3.17969Z" fill="#1D1D1B"/>
<path d="M40.8105 6.35123H42.5141H44.213V4.76562H42.5141H40.8105V6.35123Z" fill="#1D1D1B"/>
<path d="M37.4135 3.18115H39.1124V1.59082H37.4135H35.71V3.18115H37.4135Z" fill="#1D1D1B"/>
<path d="M45.9135 6.35254H44.21V7.94286H45.9135V6.35254Z" fill="#1D1D1B"/>
<path d="M30.6091 1.59032H32.3079H34.0115H35.7103V0H34.0115H32.3079H30.6091H28.9102V1.59032H30.6091Z" fill="#1D1D1B"/>
<path d="M42.5141 36.5156H40.8105V38.1059H42.5141V36.5156Z" fill="#1D1D1B"/>
<path d="M49.3149 15.8789H47.6113H49.3149V17.4645V19.0548V20.6404V22.2308V23.8164V25.4067V26.9876V28.5779V30.1682V31.7538H51.0185V30.1682V28.5779V26.9876V25.4067V23.8164V22.2308V20.6404V19.0548V17.4645V15.8789H49.3149Z" fill="#1D1D1B"/>
<path d="M42.5127 39.6924V41.2827V42.8683H44.2115V41.2827V39.6924H42.5127Z" fill="#1D1D1B"/>
<path d="M45.9135 38.1084H44.21V39.6987H45.9135V38.1084Z" fill="#1D1D1B"/>
<path d="M47.608 31.7549V33.3452V34.9308H45.9092V36.5164V38.1067H47.608V36.5164V34.9308H49.3116V33.3452V31.7549H47.608Z" fill="#1D1D1B"/>
<path d="M35.7076 46.043H34.0088V47.6286H35.7076V46.043Z" fill="#1D1D1B"/>
<path d="M40.8122 42.8698V41.2842H39.1133V42.8698V44.4601H40.8122V42.8698Z" fill="#1D1D1B"/>
<path d="M39.1147 44.459H37.4111V46.0493H39.1147V44.459Z" fill="#1D1D1B"/>
<path d="M28.9078 44.459V46.0446H27.2089H25.5054H23.8065H22.1029H20.4087H18.7052H17.0016H15.3027V47.6302H17.0016H18.7052H20.4087H22.1029H23.8065H25.5054H27.2089H28.9078V46.0446H30.6067H32.3055V44.459H30.6067H28.9078Z" fill="#1D1D1B"/>
<path d="M34.0122 42.8672H32.3086V44.4575H34.0122V42.8672Z" fill="#1D1D1B"/>
<path d="M35.7076 41.2827H34.0088V42.8683H35.7076H37.4112V41.2827V39.6924H35.7076V41.2827Z" fill="#1D1D1B"/>
<path d="M39.1147 38.1084H37.4111V39.6987H39.1147V38.1084Z" fill="#1D1D1B"/>
<path d="M40.8122 36.5156H39.1133V38.1059H40.8122V36.5156Z" fill="#1D1D1B"/>
<path d="M40.8105 34.9303V36.5159H42.5141V34.9303V33.3447H40.8105V34.9303Z" fill="#1D1D1B"/>
<path d="M42.5127 17.4648V19.0552V20.6408V22.2311V23.8167V25.407V26.9879V28.5782V30.1686V31.7542V33.3445H44.2115V31.7542V30.1686V28.5782V26.9879V25.407V23.8167V22.2311V20.6408V19.0552V17.4648H42.5127Z" fill="#1D1D1B"/>
<path d="M40.8105 14.2935V15.8791H42.5141V14.2935V12.7031H40.8105V14.2935Z" fill="#1D1D1B"/>
<path d="M40.8122 9.52734H39.1133V11.1177H40.8122V9.52734Z" fill="#1D1D1B"/>
<path d="M32.3043 34.9297H30.6055V36.5153H32.3043V34.9297Z" fill="#1D1D1B"/>
<path d="M34.0122 17.4632V19.0535H35.711V20.6391V22.2295V23.8151V25.4054V26.9863V28.5766H34.0122V30.1669V31.7525H32.3086V33.3429V34.9285H34.0122V33.3429H35.711V31.7525V30.1669H37.4146V28.5766V26.9863V25.4054V23.8151V22.2295V20.6391V19.0535V17.4632H35.711V15.8776V14.292H34.0122V15.8776V17.4632Z" fill="#1D1D1B"/>
<path d="M34.0122 12.7031H32.3086V14.2935H34.0122V12.7031Z" fill="#1D1D1B"/>
<path d="M32.3043 11.1172H30.6055V12.7075H32.3043V11.1172Z" fill="#1D1D1B"/>
<path d="M39.1147 7.9375H37.4111V9.52782H39.1147V7.9375Z" fill="#1D1D1B"/>
<path d="M37.4135 6.35254H35.71V7.94286H37.4135V6.35254Z" fill="#1D1D1B"/>
<path d="M35.7076 4.76562H34.0088V6.35123H35.7076V4.76562Z" fill="#1D1D1B"/>
<path d="M34.0122 3.17969H32.3086V4.77001H34.0122V3.17969Z" fill="#1D1D1B"/>
<path d="M28.9102 3.18115H30.6091H32.3079V1.59082H30.6091H28.9102V3.18115Z" fill="#1D1D1B"/>
<path d="M13.6071 44.459H11.9082V46.0446H13.6071H15.3059V44.459H13.6071Z" fill="#1D1D1B"/>
<path d="M11.9048 42.8672H10.2012V44.4575H11.9048V42.8672Z" fill="#1D1D1B"/>
<path d="M8.50549 41.2827V39.6924H6.80664V41.2827V42.8683H8.50549H10.2043V41.2827H8.50549Z" fill="#1D1D1B"/>
<path d="M6.80335 38.1084H5.10449V39.6987H6.80335V38.1084Z" fill="#1D1D1B"/>
<path d="M17.0032 39.6916H18.7068H20.4103H22.1045H23.8081H25.5069H27.2105H28.9094V38.1059H30.6083V36.5156H28.9094H27.2105V38.1059H25.5069H23.8081H22.1045H20.4103H18.7068H17.0032V36.5156H15.3043H13.6055V38.1059H15.3043V39.6916H17.0032Z" fill="#1D1D1B"/>
<path d="M13.6071 34.9297H11.9082V36.5153H13.6071V34.9297Z" fill="#1D1D1B"/>
<path d="M5.10494 34.9297H3.40137V36.5153V38.1056H5.10494V36.5153V34.9297Z" fill="#1D1D1B"/>
<path d="M3.40377 31.7549H1.7002V33.3452V34.9308H3.40377V33.3452V31.7549Z" fill="#1D1D1B"/>
<path d="M1.69891 28.5782V26.9879V25.407V23.8167V22.2311V20.6408V19.0552V17.4648H0V19.0552V20.6408V22.2311V23.8167V25.407V26.9879V28.5782V30.1686H1.69891V28.5782Z" fill="#1D1D1B"/>
<path d="M11.908 31.754H10.2043V30.1684V28.5781H8.50549V26.9877V25.4069V23.8165V22.2309V20.6406V19.055H10.2043V17.4647V15.8791H11.908V14.2935V12.7031H10.2043V14.2935H8.50549V15.8791V17.4647H6.80664V19.055V20.6406V22.2309V23.8165V25.4069V26.9877V28.5781V30.1684H8.50549V31.754V33.3443H10.2043V34.9299H11.908V33.3443V31.754Z" fill="#1D1D1B"/>
<path d="M3.40377 14.2935V12.7031H1.7002V14.2935V15.8791H3.40377V14.2935Z" fill="#1D1D1B"/>
<path d="M13.6071 11.1172H11.9082V12.7075H13.6071V11.1172Z" fill="#1D1D1B"/>
<path d="M5.10494 11.1177V9.52734H3.40137V11.1177V12.7033H5.10494V11.1177Z" fill="#1D1D1B"/>
<path d="M17.0032 11.1181V9.52782H18.7068H20.4103H22.1045H23.8081H25.5069H27.2105V11.1181H28.9094H30.6083V9.52782H28.9094V7.9375H27.2105H25.5069H23.8081H22.1045H20.4103H18.7068H17.0032H15.3043V9.52782H13.6055V11.1181H15.3043H17.0032Z" fill="#1D1D1B"/>
<path d="M6.80335 7.9375H5.10449V9.52782H6.80335V7.9375Z" fill="#1D1D1B"/>
<path d="M8.51022 6.35254H6.80664V7.94286H8.51022V6.35254Z" fill="#1D1D1B"/>
<path d="M10.2018 4.76562H8.50293V6.35123H10.2018V4.76562Z" fill="#1D1D1B"/>
<path d="M11.9048 3.17969H10.2012V4.77001H11.9048V3.17969Z" fill="#1D1D1B"/>
<path d="M15.3059 3.18115V1.59082H13.6071H11.9082V3.18115H13.6071H15.3059Z" fill="#1D1D1B"/>
<path d="M18.7052 1.59032H20.4087H22.1029H23.8065H25.5054H27.2089H28.9078V0H27.2089H25.5054H23.8065H22.1029H20.4087H18.7052H17.0016H15.3027V1.59032H17.0016H18.7052Z" fill="#1D1D1B"/>
<path d="M45.9104 12.7031H44.2115V14.2935H42.5127V15.8791V17.4647H44.2115V15.8791H45.9104H47.6093V14.2935V12.7031H45.9104Z" fill="white"/>
<path d="M44.2146 7.9375H42.5158H40.8122H39.1133V9.52782H40.8122V11.1181H42.5158V9.52782H44.2146H45.9135V7.9375H44.2146Z" fill="white"/>
<path d="M23.8097 36.5164H22.1061H20.4119H18.7083V34.9308H17.0048H15.3059V33.3452H13.6071V31.7549H11.9082V33.3452V34.9308H13.6071V36.5164H15.3059H17.0048V38.1067H18.7083H20.4119H22.1061H23.8097H25.5085H27.2121V36.5164H25.5085H23.8097Z" fill="white"/>
<path d="M27.2119 34.9297V36.5153H28.9108H30.6097V34.9297H28.9108H27.2119Z" fill="white"/>
<path d="M32.3043 33.3447H30.6055V34.9351H32.3043V33.3447Z" fill="white"/>
<path d="M11.9048 28.5771H10.2012V30.1675V31.7531H11.9048V30.1675V28.5771Z" fill="white"/>
<path d="M10.2018 25.4064V23.8161V22.2305H8.50293V23.8161V25.4064V26.9873V28.5776H10.2018V26.9873V25.4064Z" fill="white"/>
<path d="M10.2018 19.0557H8.50293V20.646H10.2018V19.0557Z" fill="white"/>
<path d="M16.3042 29.876V16.731H20.0599V18.6088H21.9378V20.4867H23.8156V18.6088H25.6935V16.731H29.4492V29.876H25.6935V22.3646H23.8156V26.1203H21.9378V22.3646H20.0599V29.876H16.3042Z" fill="black"/>
<mask id="path-144-outside-1_6102_32817" maskUnits="userSpaceOnUse" x="58.2041" y="14.7842" width="88" height="16" fill="black">
<rect fill="white" x="58.2041" y="14.7842" width="88" height="16"/>
<path d="M59.4062 28.9593V16.1849H63.056V18.0098H64.8809V19.8347H66.7058V18.0098H68.5307V16.1849H72.1806V28.9593H68.5307V21.6596H66.7058V25.3094H64.8809V21.6596H63.056V28.9593H59.4062ZM74.0055 28.9593V16.1849H86.7799V18.0098H77.6553V21.6596H84.955V23.4845H77.6553V27.1344H86.7799V28.9593H74.0055ZM88.6048 28.9593V16.1849H92.2546V18.0098H94.0795V19.8347H95.9044V18.0098H97.7294V16.1849H101.379V28.9593H97.7294V21.6596H95.9044V25.3094H94.0795V21.6596H92.2546V28.9593H88.6048ZM103.204 28.9593V16.1849H115.979V18.0098H106.854V21.6596H114.154V23.4845H106.854V27.1344H115.979V28.9593H103.204ZM123.278 28.9593V18.0098H119.628V16.1849H130.578V18.0098H126.928V28.9593H123.278ZM137.877 28.9593V27.1344H136.053V25.3094H134.228V23.4845H132.403V16.1849H136.053V21.6596H137.877V23.4845H139.702V21.6596H141.527V16.1849H145.177V23.4845H143.352V25.3094H141.527V27.1344H139.702V28.9593H137.877Z"/>
</mask>
<path d="M59.4062 28.9593V16.1849H63.056V18.0098H64.8809V19.8347H66.7058V18.0098H68.5307V16.1849H72.1806V28.9593H68.5307V21.6596H66.7058V25.3094H64.8809V21.6596H63.056V28.9593H59.4062ZM74.0055 28.9593V16.1849H86.7799V18.0098H77.6553V21.6596H84.955V23.4845H77.6553V27.1344H86.7799V28.9593H74.0055ZM88.6048 28.9593V16.1849H92.2546V18.0098H94.0795V19.8347H95.9044V18.0098H97.7294V16.1849H101.379V28.9593H97.7294V21.6596H95.9044V25.3094H94.0795V21.6596H92.2546V28.9593H88.6048ZM103.204 28.9593V16.1849H115.979V18.0098H106.854V21.6596H114.154V23.4845H106.854V27.1344H115.979V28.9593H103.204ZM123.278 28.9593V18.0098H119.628V16.1849H130.578V18.0098H126.928V28.9593H123.278ZM137.877 28.9593V27.1344H136.053V25.3094H134.228V23.4845H132.403V16.1849H136.053V21.6596H137.877V23.4845H139.702V21.6596H141.527V16.1849H145.177V23.4845H143.352V25.3094H141.527V27.1344H139.702V28.9593H137.877Z" fill="url(#paint16_linear_6102_32817)"/>
<path d="M59.4062 28.9593H58.4062V29.9593H59.4062V28.9593ZM59.4062 16.1849V15.1849H58.4062V16.1849H59.4062ZM63.056 16.1849H64.056V15.1849H63.056V16.1849ZM63.056 18.0098H62.056V19.0098H63.056V18.0098ZM64.8809 18.0098H65.8809V17.0098H64.8809V18.0098ZM64.8809 19.8347H63.8809V20.8347H64.8809V19.8347ZM66.7058 19.8347V20.8347H67.7058V19.8347H66.7058ZM66.7058 18.0098V17.0098H65.7058V18.0098H66.7058ZM68.5307 18.0098V19.0098H69.5307V18.0098H68.5307ZM68.5307 16.1849V15.1849H67.5307V16.1849H68.5307ZM72.1806 16.1849H73.1806V15.1849H72.1806V16.1849ZM72.1806 28.9593V29.9593H73.1806V28.9593H72.1806ZM68.5307 28.9593H67.5307V29.9593H68.5307V28.9593ZM68.5307 21.6596H69.5307V20.6596H68.5307V21.6596ZM66.7058 21.6596V20.6596H65.7058V21.6596H66.7058ZM66.7058 25.3094V26.3094H67.7058V25.3094H66.7058ZM64.8809 25.3094H63.8809V26.3094H64.8809V25.3094ZM64.8809 21.6596H65.8809V20.6596H64.8809V21.6596ZM63.056 21.6596V20.6596H62.056V21.6596H63.056ZM63.056 28.9593V29.9593H64.056V28.9593H63.056ZM60.4062 28.9593V16.1849H58.4062V28.9593H60.4062ZM59.4062 17.1849H63.056V15.1849H59.4062V17.1849ZM62.056 16.1849V18.0098H64.056V16.1849H62.056ZM63.056 19.0098H64.8809V17.0098H63.056V19.0098ZM63.8809 18.0098V19.8347H65.8809V18.0098H63.8809ZM64.8809 20.8347H66.7058V18.8347H64.8809V20.8347ZM67.7058 19.8347V18.0098H65.7058V19.8347H67.7058ZM66.7058 19.0098H68.5307V17.0098H66.7058V19.0098ZM69.5307 18.0098V16.1849H67.5307V18.0098H69.5307ZM68.5307 17.1849H72.1806V15.1849H68.5307V17.1849ZM71.1806 16.1849V28.9593H73.1806V16.1849H71.1806ZM72.1806 27.9593H68.5307V29.9593H72.1806V27.9593ZM69.5307 28.9593V21.6596H67.5307V28.9593H69.5307ZM68.5307 20.6596H66.7058V22.6596H68.5307V20.6596ZM65.7058 21.6596V25.3094H67.7058V21.6596H65.7058ZM66.7058 24.3094H64.8809V26.3094H66.7058V24.3094ZM65.8809 25.3094V21.6596H63.8809V25.3094H65.8809ZM64.8809 20.6596H63.056V22.6596H64.8809V20.6596ZM62.056 21.6596V28.9593H64.056V21.6596H62.056ZM63.056 27.9593H59.4062V29.9593H63.056V27.9593ZM74.0055 28.9593H73.0055V29.9593H74.0055V28.9593ZM74.0055 16.1849V15.1849H73.0055V16.1849H74.0055ZM86.7799 16.1849H87.7799V15.1849H86.7799V16.1849ZM86.7799 18.0098V19.0098H87.7799V18.0098H86.7799ZM77.6553 18.0098V17.0098H76.6553V18.0098H77.6553ZM77.6553 21.6596H76.6553V22.6596H77.6553V21.6596ZM84.955 21.6596H85.955V20.6596H84.955V21.6596ZM84.955 23.4845V24.4845H85.955V23.4845H84.955ZM77.6553 23.4845V22.4845H76.6553V23.4845H77.6553ZM77.6553 27.1344H76.6553V28.1344H77.6553V27.1344ZM86.7799 27.1344H87.7799V26.1344H86.7799V27.1344ZM86.7799 28.9593V29.9593H87.7799V28.9593H86.7799ZM75.0055 28.9593V16.1849H73.0055V28.9593H75.0055ZM74.0055 17.1849H86.7799V15.1849H74.0055V17.1849ZM85.7799 16.1849V18.0098H87.7799V16.1849H85.7799ZM86.7799 17.0098H77.6553V19.0098H86.7799V17.0098ZM76.6553 18.0098V21.6596H78.6553V18.0098H76.6553ZM77.6553 22.6596H84.955V20.6596H77.6553V22.6596ZM83.955 21.6596V23.4845H85.955V21.6596H83.955ZM84.955 22.4845H77.6553V24.4845H84.955V22.4845ZM76.6553 23.4845V27.1344H78.6553V23.4845H76.6553ZM77.6553 28.1344H86.7799V26.1344H77.6553V28.1344ZM85.7799 27.1344V28.9593H87.7799V27.1344H85.7799ZM86.7799 27.9593H74.0055V29.9593H86.7799V27.9593ZM88.6048 28.9593H87.6048V29.9593H88.6048V28.9593ZM88.6048 16.1849V15.1849H87.6048V16.1849H88.6048ZM92.2546 16.1849H93.2546V15.1849H92.2546V16.1849ZM92.2546 18.0098H91.2546V19.0098H92.2546V18.0098ZM94.0795 18.0098H95.0795V17.0098H94.0795V18.0098ZM94.0795 19.8347H93.0795V20.8347H94.0795V19.8347ZM95.9044 19.8347V20.8347H96.9044V19.8347H95.9044ZM95.9044 18.0098V17.0098H94.9044V18.0098H95.9044ZM97.7294 18.0098V19.0098H98.7294V18.0098H97.7294ZM97.7294 16.1849V15.1849H96.7294V16.1849H97.7294ZM101.379 16.1849H102.379V15.1849H101.379V16.1849ZM101.379 28.9593V29.9593H102.379V28.9593H101.379ZM97.7294 28.9593H96.7294V29.9593H97.7294V28.9593ZM97.7294 21.6596H98.7294V20.6596H97.7294V21.6596ZM95.9044 21.6596V20.6596H94.9044V21.6596H95.9044ZM95.9044 25.3094V26.3094H96.9044V25.3094H95.9044ZM94.0795 25.3094H93.0795V26.3094H94.0795V25.3094ZM94.0795 21.6596H95.0795V20.6596H94.0795V21.6596ZM92.2546 21.6596V20.6596H91.2546V21.6596H92.2546ZM92.2546 28.9593V29.9593H93.2546V28.9593H92.2546ZM89.6048 28.9593V16.1849H87.6048V28.9593H89.6048ZM88.6048 17.1849H92.2546V15.1849H88.6048V17.1849ZM91.2546 16.1849V18.0098H93.2546V16.1849H91.2546ZM92.2546 19.0098H94.0795V17.0098H92.2546V19.0098ZM93.0795 18.0098V19.8347H95.0795V18.0098H93.0795ZM94.0795 20.8347H95.9044V18.8347H94.0795V20.8347ZM96.9044 19.8347V18.0098H94.9044V19.8347H96.9044ZM95.9044 19.0098H97.7294V17.0098H95.9044V19.0098ZM98.7294 18.0098V16.1849H96.7294V18.0098H98.7294ZM97.7294 17.1849H101.379V15.1849H97.7294V17.1849ZM100.379 16.1849V28.9593H102.379V16.1849H100.379ZM101.379 27.9593H97.7294V29.9593H101.379V27.9593ZM98.7294 28.9593V21.6596H96.7294V28.9593H98.7294ZM97.7294 20.6596H95.9044V22.6596H97.7294V20.6596ZM94.9044 21.6596V25.3094H96.9044V21.6596H94.9044ZM95.9044 24.3094H94.0795V26.3094H95.9044V24.3094ZM95.0795 25.3094V21.6596H93.0795V25.3094H95.0795ZM94.0795 20.6596H92.2546V22.6596H94.0795V20.6596ZM91.2546 21.6596V28.9593H93.2546V21.6596H91.2546ZM92.2546 27.9593H88.6048V29.9593H92.2546V27.9593ZM103.204 28.9593H102.204V29.9593H103.204V28.9593ZM103.204 16.1849V15.1849H102.204V16.1849H103.204ZM115.979 16.1849H116.979V15.1849H115.979V16.1849ZM115.979 18.0098V19.0098H116.979V18.0098H115.979ZM106.854 18.0098V17.0098H105.854V18.0098H106.854ZM106.854 21.6596H105.854V22.6596H106.854V21.6596ZM114.154 21.6596H115.154V20.6596H114.154V21.6596ZM114.154 23.4845V24.4845H115.154V23.4845H114.154ZM106.854 23.4845V22.4845H105.854V23.4845H106.854ZM106.854 27.1344H105.854V28.1344H106.854V27.1344ZM115.979 27.1344H116.979V26.1344H115.979V27.1344ZM115.979 28.9593V29.9593H116.979V28.9593H115.979ZM104.204 28.9593V16.1849H102.204V28.9593H104.204ZM103.204 17.1849H115.979V15.1849H103.204V17.1849ZM114.979 16.1849V18.0098H116.979V16.1849H114.979ZM115.979 17.0098H106.854V19.0098H115.979V17.0098ZM105.854 18.0098V21.6596H107.854V18.0098H105.854ZM106.854 22.6596H114.154V20.6596H106.854V22.6596ZM113.154 21.6596V23.4845H115.154V21.6596H113.154ZM114.154 22.4845H106.854V24.4845H114.154V22.4845ZM105.854 23.4845V27.1344H107.854V23.4845H105.854ZM106.854 28.1344H115.979V26.1344H106.854V28.1344ZM114.979 27.1344V28.9593H116.979V27.1344H114.979ZM115.979 27.9593H103.204V29.9593H115.979V27.9593ZM123.278 28.9593H122.278V29.9593H123.278V28.9593ZM123.278 18.0098H124.278V17.0098H123.278V18.0098ZM119.628 18.0098H118.628V19.0098H119.628V18.0098ZM119.628 16.1849V15.1849H118.628V16.1849H119.628ZM130.578 16.1849H131.578V15.1849H130.578V16.1849ZM130.578 18.0098V19.0098H131.578V18.0098H130.578ZM126.928 18.0098V17.0098H125.928V18.0098H126.928ZM126.928 28.9593V29.9593H127.928V28.9593H126.928ZM124.278 28.9593V18.0098H122.278V28.9593H124.278ZM123.278 17.0098H119.628V19.0098H123.278V17.0098ZM120.628 18.0098V16.1849H118.628V18.0098H120.628ZM119.628 17.1849H130.578V15.1849H119.628V17.1849ZM129.578 16.1849V18.0098H131.578V16.1849H129.578ZM130.578 17.0098H126.928V19.0098H130.578V17.0098ZM125.928 18.0098V28.9593H127.928V18.0098H125.928ZM126.928 27.9593H123.278V29.9593H126.928V27.9593ZM137.877 28.9593H136.877V29.9593H137.877V28.9593ZM137.877 27.1344H138.877V26.1344H137.877V27.1344ZM136.053 27.1344H135.053V28.1344H136.053V27.1344ZM136.053 25.3094H137.053V24.3094H136.053V25.3094ZM134.228 25.3094H133.228V26.3094H134.228V25.3094ZM134.228 23.4845H135.228V22.4845H134.228V23.4845ZM132.403 23.4845H131.403V24.4845H132.403V23.4845ZM132.403 16.1849V15.1849H131.403V16.1849H132.403ZM136.053 16.1849H137.053V15.1849H136.053V16.1849ZM136.053 21.6596H135.053V22.6596H136.053V21.6596ZM137.877 21.6596H138.877V20.6596H137.877V21.6596ZM137.877 23.4845H136.877V24.4845H137.877V23.4845ZM139.702 23.4845V24.4845H140.702V23.4845H139.702ZM139.702 21.6596V20.6596H138.702V21.6596H139.702ZM141.527 21.6596V22.6596H142.527V21.6596H141.527ZM141.527 16.1849V15.1849H140.527V16.1849H141.527ZM145.177 16.1849H146.177V15.1849H145.177V16.1849ZM145.177 23.4845V24.4845H146.177V23.4845H145.177ZM143.352 23.4845V22.4845H142.352V23.4845H143.352ZM143.352 25.3094V26.3094H144.352V25.3094H143.352ZM141.527 25.3094V24.3094H140.527V25.3094H141.527ZM141.527 27.1344V28.1344H142.527V27.1344H141.527ZM139.702 27.1344V26.1344H138.702V27.1344H139.702ZM139.702 28.9593V29.9593H140.702V28.9593H139.702ZM138.877 28.9593V27.1344H136.877V28.9593H138.877ZM137.877 26.1344H136.053V28.1344H137.877V26.1344ZM137.053 27.1344V25.3094H135.053V27.1344H137.053ZM136.053 24.3094H134.228V26.3094H136.053V24.3094ZM135.228 25.3094V23.4845H133.228V25.3094H135.228ZM134.228 22.4845H132.403V24.4845H134.228V22.4845ZM133.403 23.4845V16.1849H131.403V23.4845H133.403ZM132.403 17.1849H136.053V15.1849H132.403V17.1849ZM135.053 16.1849V21.6596H137.053V16.1849H135.053ZM136.053 22.6596H137.877V20.6596H136.053V22.6596ZM136.877 21.6596V23.4845H138.877V21.6596H136.877ZM137.877 24.4845H139.702V22.4845H137.877V24.4845ZM140.702 23.4845V21.6596H138.702V23.4845H140.702ZM139.702 22.6596H141.527V20.6596H139.702V22.6596ZM142.527 21.6596V16.1849H140.527V21.6596H142.527ZM141.527 17.1849H145.177V15.1849H141.527V17.1849ZM144.177 16.1849V23.4845H146.177V16.1849H144.177ZM145.177 22.4845H143.352V24.4845H145.177V22.4845ZM142.352 23.4845V25.3094H144.352V23.4845H142.352ZM143.352 24.3094H141.527V26.3094H143.352V24.3094ZM140.527 25.3094V27.1344H142.527V25.3094H140.527ZM141.527 26.1344H139.702V28.1344H141.527V26.1344ZM138.702 27.1344V28.9593H140.702V27.1344H138.702ZM139.702 27.9593H137.877V29.9593H139.702V27.9593Z" fill="black" mask="url(#path-144-outside-1_6102_32817)"/>
<defs>
<linearGradient id="paint0_linear_6102_32817" x1="41.6623" y1="41.2628" x2="41.6623" y2="42.8745" gradientUnits="userSpaceOnUse">
<stop stop-color="#FD8D23"/>
<stop offset="0.115" stop-color="#FAE61C"/>
<stop offset="0.22" stop-color="#EEF73B"/>
<stop offset="0.43" stop-color="#4CF038"/>
<stop offset="0.655" stop-color="#33C6F6"/>
<stop offset="0.81" stop-color="#7475FF"/>
<stop offset="1" stop-color="#D457FF"/>
</linearGradient>
<linearGradient id="paint1_linear_6102_32817" x1="43.3621" y1="36.4943" x2="43.3621" y2="38.1059" gradientUnits="userSpaceOnUse">
<stop stop-color="#FD8D23"/>
<stop offset="0.115" stop-color="#FAE61C"/>
<stop offset="0.22" stop-color="#EEF73B"/>
<stop offset="0.43" stop-color="#4CF038"/>
<stop offset="0.655" stop-color="#33C6F6"/>
<stop offset="0.81" stop-color="#7475FF"/>
<stop offset="1" stop-color="#D457FF"/>
</linearGradient>
<linearGradient id="paint2_linear_6102_32817" x1="39.9646" y1="15.4522" x2="39.9646" y2="47.6288" gradientUnits="userSpaceOnUse">
<stop stop-color="#FD8D23"/>
<stop offset="0.115" stop-color="#FAE61C"/>
<stop offset="0.22" stop-color="#EEF73B"/>
<stop offset="0.43" stop-color="#4CF038"/>
<stop offset="0.655" stop-color="#33C6F6"/>
<stop offset="0.81" stop-color="#7475FF"/>
<stop offset="1" stop-color="#D457FF"/>
</linearGradient>
<linearGradient id="paint3_linear_6102_32817" x1="22.1098" y1="0.993235" x2="22.1098" y2="46.0539" gradientUnits="userSpaceOnUse">
<stop stop-color="#FD8D23"/>
<stop offset="0.115" stop-color="#FAE61C"/>
<stop offset="0.22" stop-color="#EEF73B"/>
<stop offset="0.43" stop-color="#4CF038"/>
<stop offset="0.655" stop-color="#33C6F6"/>
<stop offset="0.81" stop-color="#7475FF"/>
<stop offset="1" stop-color="#D457FF"/>
</linearGradient>
<linearGradient id="paint4_linear_6102_32817" x1="22.9545" y1="9.16462" x2="22.9545" y2="36.5157" gradientUnits="userSpaceOnUse">
<stop stop-color="#FD8D23"/>
<stop offset="0.115" stop-color="#FAE61C"/>
<stop offset="0.22" stop-color="#EEF73B"/>
<stop offset="0.43" stop-color="#4CF038"/>
<stop offset="0.655" stop-color="#33C6F6"/>
<stop offset="0.81" stop-color="#7475FF"/>
<stop offset="1" stop-color="#D457FF"/>
</linearGradient>
<linearGradient id="paint5_linear_6102_32817" x1="45.9128" y1="7.83076" x2="45.9128" y2="15.8797" gradientUnits="userSpaceOnUse">
<stop stop-color="#FD8D23"/>
<stop offset="0.115" stop-color="#FAE61C"/>
<stop offset="0.22" stop-color="#EEF73B"/>
<stop offset="0.43" stop-color="#4CF038"/>
<stop offset="0.655" stop-color="#33C6F6"/>
<stop offset="0.81" stop-color="#7475FF"/>
<stop offset="1" stop-color="#D457FF"/>
</linearGradient>
<linearGradient id="paint6_linear_6102_32817" x1="37.4116" y1="-0.10668" x2="37.4116" y2="7.93747" gradientUnits="userSpaceOnUse">
<stop stop-color="#FD8D23"/>
<stop offset="0.115" stop-color="#FAE61C"/>
<stop offset="0.22" stop-color="#EEF73B"/>
<stop offset="0.43" stop-color="#4CF038"/>
<stop offset="0.655" stop-color="#33C6F6"/>
<stop offset="0.81" stop-color="#7475FF"/>
<stop offset="1" stop-color="#D457FF"/>
</linearGradient>
<linearGradient id="paint7_linear_6102_32817" x1="45.9128" y1="7.83076" x2="45.9128" y2="15.8797" gradientUnits="userSpaceOnUse">
<stop stop-color="#FD8D23"/>
<stop offset="0.115" stop-color="#FAE61C"/>
<stop offset="0.22" stop-color="#EEF73B"/>
<stop offset="0.43" stop-color="#4CF038"/>
<stop offset="0.655" stop-color="#33C6F6"/>
<stop offset="0.81" stop-color="#7475FF"/>
<stop offset="1" stop-color="#D457FF"/>
</linearGradient>
<linearGradient id="paint8_linear_6102_32817" x1="41.6623" y1="41.2628" x2="41.6623" y2="42.8745" gradientUnits="userSpaceOnUse">
<stop stop-color="#FD8D23"/>
<stop offset="0.115" stop-color="#FAE61C"/>
<stop offset="0.22" stop-color="#EEF73B"/>
<stop offset="0.43" stop-color="#4CF038"/>
<stop offset="0.655" stop-color="#33C6F6"/>
<stop offset="0.81" stop-color="#7475FF"/>
<stop offset="1" stop-color="#D457FF"/>
</linearGradient>
<linearGradient id="paint9_linear_6102_32817" x1="43.3621" y1="36.4943" x2="43.3621" y2="38.1059" gradientUnits="userSpaceOnUse">
<stop stop-color="#FD8D23"/>
<stop offset="0.115" stop-color="#FAE61C"/>
<stop offset="0.22" stop-color="#EEF73B"/>
<stop offset="0.43" stop-color="#4CF038"/>
<stop offset="0.655" stop-color="#33C6F6"/>
<stop offset="0.81" stop-color="#7475FF"/>
<stop offset="1" stop-color="#D457FF"/>
</linearGradient>
<linearGradient id="paint10_linear_6102_32817" x1="39.9646" y1="15.4522" x2="39.9646" y2="47.6288" gradientUnits="userSpaceOnUse">
<stop stop-color="#FD8D23"/>
<stop offset="0.115" stop-color="#FAE61C"/>
<stop offset="0.22" stop-color="#EEF73B"/>
<stop offset="0.43" stop-color="#4CF038"/>
<stop offset="0.655" stop-color="#33C6F6"/>
<stop offset="0.81" stop-color="#7475FF"/>
<stop offset="1" stop-color="#D457FF"/>
</linearGradient>
<linearGradient id="paint11_linear_6102_32817" x1="22.1098" y1="0.993235" x2="22.1098" y2="46.0539" gradientUnits="userSpaceOnUse">
<stop stop-color="#FD8D23"/>
<stop offset="0.115" stop-color="#FAE61C"/>
<stop offset="0.22" stop-color="#EEF73B"/>
<stop offset="0.43" stop-color="#4CF038"/>
<stop offset="0.655" stop-color="#33C6F6"/>
<stop offset="0.81" stop-color="#7475FF"/>
<stop offset="1" stop-color="#D457FF"/>
</linearGradient>
<linearGradient id="paint12_linear_6102_32817" x1="22.9545" y1="9.16462" x2="22.9545" y2="36.5157" gradientUnits="userSpaceOnUse">
<stop stop-color="#FD8D23"/>
<stop offset="0.115" stop-color="#FAE61C"/>
<stop offset="0.22" stop-color="#EEF73B"/>
<stop offset="0.43" stop-color="#4CF038"/>
<stop offset="0.655" stop-color="#33C6F6"/>
<stop offset="0.81" stop-color="#7475FF"/>
<stop offset="1" stop-color="#D457FF"/>
</linearGradient>
<linearGradient id="paint13_linear_6102_32817" x1="45.9128" y1="7.83076" x2="45.9128" y2="15.8797" gradientUnits="userSpaceOnUse">
<stop stop-color="#FD8D23"/>
<stop offset="0.115" stop-color="#FAE61C"/>
<stop offset="0.22" stop-color="#EEF73B"/>
<stop offset="0.43" stop-color="#4CF038"/>
<stop offset="0.655" stop-color="#33C6F6"/>
<stop offset="0.81" stop-color="#7475FF"/>
<stop offset="1" stop-color="#D457FF"/>
</linearGradient>
<linearGradient id="paint14_linear_6102_32817" x1="37.4116" y1="-0.10668" x2="37.4116" y2="7.93747" gradientUnits="userSpaceOnUse">
<stop stop-color="#FD8D23"/>
<stop offset="0.115" stop-color="#FAE61C"/>
<stop offset="0.22" stop-color="#EEF73B"/>
<stop offset="0.43" stop-color="#4CF038"/>
<stop offset="0.655" stop-color="#33C6F6"/>
<stop offset="0.81" stop-color="#7475FF"/>
<stop offset="1" stop-color="#D457FF"/>
</linearGradient>
<linearGradient id="paint15_linear_6102_32817" x1="45.9128" y1="7.83076" x2="45.9128" y2="15.8797" gradientUnits="userSpaceOnUse">
<stop stop-color="#FD8D23"/>
<stop offset="0.115" stop-color="#FAE61C"/>
<stop offset="0.22" stop-color="#EEF73B"/>
<stop offset="0.43" stop-color="#4CF038"/>
<stop offset="0.655" stop-color="#33C6F6"/>
<stop offset="0.81" stop-color="#7475FF"/>
<stop offset="1" stop-color="#D457FF"/>
</linearGradient>
<linearGradient id="paint16_linear_6102_32817" x1="103.204" y1="18.04" x2="103.204" y2="29.226" gradientUnits="userSpaceOnUse">
<stop stop-color="#FD8D23"/>
<stop offset="0.115" stop-color="#FAE61C"/>
<stop offset="0.22" stop-color="#EEF73B"/>
<stop offset="0.43" stop-color="#4CF038"/>
<stop offset="0.655" stop-color="#33C6F6"/>
<stop offset="0.81" stop-color="#7475FF"/>
<stop offset="1" stop-color="#D457FF"/>
</linearGradient>
</defs>
</svg>
