<svg width="417" height="231" viewBox="0 0 417 231" fill="none" xmlns="http://www.w3.org/2000/svg">
<rect y="133" width="195" height="98" fill="#212121"/>
<path d="M19.5668 153.113V159.949H22.9848V159.266H23.6684V153.797H22.9848V153.113H19.5668ZM18.1996 161.316V151.746H23.6684V152.43H24.352V153.113H25.0356V159.949H24.352V160.633H23.6684V161.316H18.1996ZM27.7699 161.316V159.949H29.1371V153.113H27.7699V151.746H31.8715V153.113H30.5043V159.949H31.8715V161.316H27.7699ZM40.7582 153.113H41.4418V154.48H40.0746V153.797H39.391V153.113H36.6567V153.797H35.9731V155.164H36.6567V155.848H40.0746V156.531H40.7582V157.215H41.4418V159.949H40.7582V160.633H40.0746V161.316H35.9731V160.633H35.2895V159.949H34.6059V158.582H35.9731V159.266H36.6567V159.949H39.391V159.266H40.0746V157.898H39.391V157.215H35.9731V156.531H35.2895V155.848H34.6059V153.113H35.2895V152.43H35.9731V151.746H40.0746V152.43H40.7582V153.113ZM45.5434 153.113H42.809V151.746H49.6449V153.113H46.9106V161.316H45.5434V153.113ZM52.3793 153.113V155.848H55.7973V155.164H56.4809V153.797H55.7973V153.113H52.3793ZM53.0629 157.215H52.3793V161.316H51.0121V151.746H56.4809V152.43H57.1645V153.113H57.8481V155.848H57.1645V156.531H56.4809V157.215H55.1137V157.898H55.7973V158.582H56.4809V159.266H57.1645V159.949H57.8481V161.316H56.4809V160.633H55.7973V159.949H55.1137V159.266H54.4301V158.582H53.7465V157.898H53.0629V157.215ZM60.5824 161.316V159.949H61.9496V153.113H60.5824V151.746H64.684V153.113H63.3168V159.949H64.684V161.316H60.5824ZM68.7856 155.848H72.2035V155.164H72.8871V153.797H72.2035V153.113H68.7856V155.848ZM67.4184 161.316V151.746H72.8871V152.43H73.5707V153.113H74.2543V155.848H73.5707V157.215H74.2543V159.949H73.5707V160.633H72.8871V161.316H67.4184ZM68.7856 159.949H72.2035V159.266H72.8871V157.898H72.2035V157.215H68.7856V159.949ZM76.3051 159.949H75.6215V151.746H76.9887V159.266H77.6723V159.949H80.4067V159.266H81.0903V151.746H82.4574V159.949H81.7738V160.633H81.0903V161.316H76.9887V160.633H76.3051V159.949ZM86.559 153.113H83.8246V151.746H90.6606V153.113H87.9262V161.316H86.559V153.113ZM93.3949 161.316V159.949H94.7621V153.113H93.3949V151.746H97.4965V153.113H96.1293V159.949H97.4965V161.316H93.3949ZM105.016 153.113H102.282V153.797H101.598V159.266H102.282V159.949H105.016V159.266H105.7V153.797H105.016V153.113ZM101.598 152.43V151.746H105.7V152.43H106.383V153.113H107.067V159.949H106.383V160.633H105.7V161.316H101.598V160.633H100.914V159.949H100.231V153.113H100.914V152.43H101.598ZM109.801 155.848V161.316H108.434V151.746H109.801V153.797H110.485V154.48H111.168V155.164H111.852V155.848H112.536V156.531H113.219V157.215H113.903V151.746H115.27V161.316H113.903V159.266H113.219V158.582H112.536V157.898H111.852V157.215H111.168V156.531H110.485V155.848H109.801ZM120.739 160.633H121.422V161.316H120.055V160.633H119.372V159.949H118.688V159.266H118.004V152.43H118.688V151.746H119.372V151.062H120.055V150.379H121.422V151.062H120.739V151.746H120.055V152.43H119.372V159.266H120.055V159.949H120.739V160.633ZM127.575 153.113H124.84V151.746H131.676V153.113H128.942V161.316H127.575V153.113ZM134.411 157.215V161.316H133.043V151.746H134.411V155.848H138.512V151.746H139.879V161.316H138.512V157.215H134.411ZM142.614 157.215H146.715V155.164H146.032V154.48H145.348V153.797H143.981V154.48H143.297V155.164H142.614V157.215ZM142.614 161.316H141.247V154.48H141.93V153.797H142.614V153.113H143.297V152.43H143.981V151.746H145.348V152.43H146.032V153.113H146.715V153.797H147.399V154.48H148.082V161.316H146.715V158.582H142.614V161.316ZM152.184 153.113H149.45V151.746H156.286V153.113H153.551V161.316H152.184V153.113ZM159.02 155.848V155.164H159.704V155.848H159.02ZM159.704 153.797H159.02V151.746H161.071V154.48H160.387V155.164H159.704V153.797ZM172.008 153.113H172.692V154.48H171.325V153.797H170.641V153.113H167.907V153.797H167.223V155.164H167.907V155.848H171.325V156.531H172.008V157.215H172.692V159.949H172.008V160.633H171.325V161.316H167.223V160.633H166.539V159.949H165.856V158.582H167.223V159.266H167.907V159.949H170.641V159.266H171.325V157.898H170.641V157.215H167.223V156.531H166.539V155.848H165.856V153.113H166.539V152.43H167.223V151.746H171.325V152.43H172.008V153.113ZM33.2387 174.746V176.113H27.7699V178.848H31.8715V180.215H27.7699V184.316H26.4028V174.746H33.2387ZM39.391 176.113H36.6567V176.797H35.9731V182.266H36.6567V182.949H39.391V182.266H40.0746V176.797H39.391V176.113ZM35.9731 175.43V174.746H40.0746V175.43H40.7582V176.113H41.4418V182.949H40.7582V183.633H40.0746V184.316H35.9731V183.633H35.2895V182.949H34.6059V176.113H35.2895V175.43H35.9731ZM44.1762 176.113V178.848H47.5942V178.164H48.2778V176.797H47.5942V176.113H44.1762ZM44.8598 180.215H44.1762V184.316H42.809V174.746H48.2778V175.43H48.9613V176.113H49.6449V178.848H48.9613V179.531H48.2778V180.215H46.9106V180.898H47.5942V181.582H48.2778V182.266H48.9613V182.949H49.6449V184.316H48.2778V183.633H47.5942V182.949H46.9106V182.266H46.227V181.582H45.5434V180.898H44.8598V180.215ZM63.3168 184.316H61.9496V180.898H61.266V180.215H60.5824V179.531H59.8988V178.848H59.2153V174.746H60.5824V178.164H61.266V178.848H61.9496V179.531H63.3168V178.848H64.0004V178.164H64.684V174.746H66.0512V178.848H65.3676V179.531H64.684V180.215H64.0004V180.898H63.3168V184.316ZM68.7856 178.848V178.164H69.4692V178.848H68.7856ZM69.4692 176.797H68.7856V174.746H70.8363V177.48H70.1528V178.164H69.4692V176.797ZM76.9887 180.215H81.0903V178.164H80.4067V177.48H79.7231V176.797H78.3559V177.48H77.6723V178.164H76.9887V180.215ZM76.9887 184.316H75.6215V177.48H76.3051V176.797H76.9887V176.113H77.6723V175.43H78.3559V174.746H79.7231V175.43H80.4067V176.113H81.0903V176.797H81.7738V177.48H82.4574V184.316H81.0903V181.582H76.9887V184.316ZM83.8246 184.316V174.746H85.1918V182.949H90.6606V184.316H83.8246ZM92.0278 184.316V174.746H93.3949V182.949H98.8637V184.316H92.0278ZM102.965 182.949V181.582H104.332V182.949H103.649V183.633H102.965V184.316H101.598V183.633H102.282V182.949H102.965ZM111.168 176.113H108.434V174.746H115.27V176.113H112.536V184.316H111.168V176.113ZM121.422 176.113H118.688V176.797H118.004V182.266H118.688V182.949H121.422V182.266H122.106V176.797H121.422V176.113ZM118.004 175.43V174.746H122.106V175.43H122.789V176.113H123.473V182.949H122.789V183.633H122.106V184.316H118.004V183.633H117.321V182.949H116.637V176.113H117.321V175.43H118.004ZM139.879 174.746V176.113H134.411V178.848H138.512V180.215H134.411V182.949H139.879V184.316H133.043V174.746H139.879ZM142.614 180.215H146.715V178.164H146.032V177.48H145.348V176.797H143.981V177.48H143.297V178.164H142.614V180.215ZM142.614 184.316H141.247V177.48H141.93V176.797H142.614V176.113H143.297V175.43H143.981V174.746H145.348V175.43H146.032V176.113H146.715V176.797H147.399V177.48H148.082V184.316H146.715V181.582H142.614V184.316ZM150.817 176.113V178.848H154.235V178.164H154.918V176.797H154.235V176.113H150.817ZM151.5 180.215H150.817V184.316H149.45V174.746H154.918V175.43H155.602V176.113H156.286V178.848H155.602V179.531H154.918V180.215H153.551V180.898H154.235V181.582H154.918V182.266H155.602V182.949H156.286V184.316H154.918V183.633H154.235V182.949H153.551V182.266H152.868V181.582H152.184V180.898H151.5V180.215ZM159.02 178.848V184.316H157.653V174.746H159.02V176.797H159.704V177.48H160.387V178.164H161.071V178.848H161.754V179.531H162.438V180.215H163.122V174.746H164.489V184.316H163.122V182.266H162.438V181.582H161.754V180.898H161.071V180.215H160.387V179.531H159.704V178.848H159.02ZM9.99651 197.746H11.3637V205.266H12.7309V201.848H14.0981V205.266H15.4653V197.746H16.8324V205.949H16.1488V206.633H15.4653V207.316H14.0981V206.633H12.7309V207.316H11.3637V206.633H10.6801V205.949H9.99651V197.746ZM19.5668 203.215V207.316H18.1996V197.746H19.5668V201.848H23.6684V197.746H25.0356V207.316H23.6684V203.215H19.5668ZM27.7699 207.316V205.949H29.1371V199.113H27.7699V197.746H31.8715V199.113H30.5043V205.949H31.8715V207.316H27.7699ZM34.6059 207.316V197.746H35.9731V205.949H41.4418V207.316H34.6059ZM49.6449 197.746V199.113H44.1762V201.848H48.2778V203.215H44.1762V205.949H49.6449V207.316H42.809V197.746H49.6449ZM63.3168 207.316H61.9496V203.898H61.266V203.215H60.5824V202.531H59.8988V201.848H59.2153V197.746H60.5824V201.164H61.266V201.848H61.9496V202.531H63.3168V201.848H64.0004V201.164H64.684V197.746H66.0512V201.848H65.3676V202.531H64.684V203.215H64.0004V203.898H63.3168V207.316ZM72.2035 199.113H69.4692V199.797H68.7856V205.266H69.4692V205.949H72.2035V205.266H72.8871V199.797H72.2035V199.113ZM68.7856 198.43V197.746H72.8871V198.43H73.5707V199.113H74.2543V205.949H73.5707V206.633H72.8871V207.316H68.7856V206.633H68.102V205.949H67.4184V199.113H68.102V198.43H68.7856ZM76.3051 205.949H75.6215V197.746H76.9887V205.266H77.6723V205.949H80.4067V205.266H81.0903V197.746H82.4574V205.949H81.7738V206.633H81.0903V207.316H76.9887V206.633H76.3051V205.949ZM93.3949 201.848H92.0278V200.48H93.3949V198.43H94.7621V199.797H96.1293V197.746H97.4965V199.113H98.8637V200.48H97.4965V202.531H98.8637V203.898H97.4965V205.949H96.1293V204.582H94.7621V206.633H93.3949V205.266H92.0278V203.898H93.3949V201.848ZM94.7621 201.164V203.215H96.1293V201.164H94.7621ZM101.598 199.113V205.949H105.016V205.266H105.7V199.797H105.016V199.113H101.598ZM100.231 207.316V197.746H105.7V198.43H106.383V199.113H107.067V205.949H106.383V206.633H105.7V207.316H100.231ZM113.219 199.113H110.485V199.797H109.801V205.266H110.485V205.949H113.219V205.266H113.903V199.797H113.219V199.113ZM109.801 198.43V197.746H113.903V198.43H114.586V199.113H115.27V205.949H114.586V206.633H113.903V207.316H109.801V206.633H109.118V205.949H108.434V199.113H109.118V198.43H109.801ZM118.004 201.848V207.316H116.637V197.746H118.004V199.797H118.688V200.48H119.372V201.164H120.055V201.848H120.739V202.531H121.422V203.215H122.106V197.746H123.473V207.316H122.106V205.266H121.422V204.582H120.739V203.898H120.055V203.215H119.372V202.531H118.688V201.848H118.004ZM129.625 199.113H126.891V199.797H126.207V205.266H126.891V205.949H129.625V205.266H130.309V199.797H129.625V199.113ZM126.207 198.43V197.746H130.309V198.43H130.993V199.113H131.676V205.949H130.993V206.633H130.309V207.316H126.207V206.633H125.524V205.949H124.84V199.113H125.524V198.43H126.207ZM135.778 199.113H133.043V197.746H139.879V199.113H137.145V207.316H135.778V199.113ZM142.614 203.215V207.316H141.247V197.746H142.614V201.848H146.715V197.746H148.082V207.316H146.715V203.215H142.614ZM150.817 207.316V205.949H152.184V199.113H150.817V197.746H154.918V199.113H153.551V205.949H154.918V207.316H150.817ZM159.02 201.848V207.316H157.653V197.746H159.02V199.797H159.704V200.48H160.387V201.164H161.071V201.848H161.754V202.531H162.438V203.215H163.122V197.746H164.489V207.316H163.122V205.266H162.438V204.582H161.754V203.898H161.071V203.215H160.387V202.531H159.704V201.848H159.02ZM172.008 199.113H172.692V200.48H171.325V199.797H170.641V199.113H167.907V199.797H167.223V205.266H167.907V205.949H170.641V205.266H171.325V203.215H169.274V201.848H172.692V205.949H172.008V206.633H171.325V207.316H167.223V206.633H166.539V205.949H165.856V199.113H166.539V198.43H167.223V197.746H171.325V198.43H172.008V199.113ZM177.477 206.633V207.316H176.11V206.633H176.793V205.949H177.477V205.266H178.161V198.43H177.477V197.746H176.793V197.062H176.11V196.379H177.477V197.062H178.161V197.746H178.844V198.43H179.528V205.266H178.844V205.949H178.161V206.633H177.477Z" fill="#9F9F9F"/>
<rect x="0.5" y="0.5" width="194" height="230" stroke="url(#paint0_linear_6498_22710)" stroke-linejoin="round" stroke-dasharray="10.23 10.23"/>
<rect x="0.5" y="0.5" width="194" height="132" stroke="url(#paint1_linear_6498_22710)" stroke-linejoin="round" stroke-dasharray="10.23 10.23"/>
<path d="M33 90V84H27V72H33V66H27V54H33V48H57V54H63V66H57V72H69V84H63V90H33ZM45 66H57V54H39V60H45V66ZM33 84H57V78H45V72H33V84ZM99 90V78H75V66H81V60H87V54H93V48H111V72H117V78H111V90H99ZM87 72H99V60H93V66H87V72ZM135 54H129V48H141V60H135V54ZM165 48V54H159V48H165ZM135 66H123V54H129V60H135V66ZM153 54H159V60H153V54ZM147 60H153V66H147V60ZM141 66H147V72H141V66ZM135 72H141V78H135V72ZM153 72H165V84H159V78H153V72ZM129 78H135V84H129V78ZM153 84H159V90H147V78H153V84ZM123 84H129V90H123V84Z" fill="#FAE61D"/>
<rect x="222" y="133" width="195" height="98" fill="#212121"/>
<path d="M239.52 155.848H242.938V155.164H243.621V153.797H242.938V153.113H239.52V155.848ZM238.152 161.316V151.746H243.621V152.43H244.305V153.113H244.988V155.848H244.305V157.215H244.988V159.949H244.305V160.633H243.621V161.316H238.152ZM239.52 159.949H242.938V159.266H243.621V157.898H242.938V157.215H239.52V159.949ZM247.039 159.949H246.355V151.746H247.723V159.266H248.406V159.949H251.141V159.266H251.824V151.746H253.191V159.949H252.508V160.633H251.824V161.316H247.723V160.633H247.039V159.949ZM255.926 161.316V159.949H257.293V153.113H255.926V151.746H260.027V153.113H258.66V159.949H260.027V161.316H255.926ZM262.762 161.316V151.746H264.129V159.949H269.598V161.316H262.762ZM272.332 153.113V159.949H275.75V159.266H276.434V153.797H275.75V153.113H272.332ZM270.965 161.316V151.746H276.434V152.43H277.117V153.113H277.801V159.949H277.117V160.633H276.434V161.316H270.965ZM283.27 160.633H283.953V161.316H282.586V160.633H281.902V159.949H281.219V159.266H280.535V152.43H281.219V151.746H281.902V151.062H282.586V150.379H283.953V151.062H283.27V151.746H282.586V152.43H281.902V159.266H282.586V159.949H283.27V160.633ZM287.371 151.746H288.738V159.266H290.105V155.848H291.473V159.266H292.84V151.746H294.207V159.949H293.523V160.633H292.84V161.316H291.473V160.633H290.105V161.316H288.738V160.633H288.055V159.949H287.371V151.746ZM302.41 151.746V153.113H296.941V155.848H301.043V157.215H296.941V159.949H302.41V161.316H295.574V151.746H302.41ZM314.031 159.949H316.766V159.266H317.449V158.582H318.816V159.949H318.133V160.633H317.449V161.316H313.348V160.633H312.664V159.949H311.98V153.113H312.664V152.43H313.348V151.746H317.449V152.43H318.133V153.113H318.816V154.48H317.449V153.797H316.766V153.113H314.031V153.797H313.348V159.266H314.031V159.949ZM321.551 157.215H325.652V155.164H324.969V154.48H324.285V153.797H322.918V154.48H322.234V155.164H321.551V157.215ZM321.551 161.316H320.184V154.48H320.867V153.797H321.551V153.113H322.234V152.43H322.918V151.746H324.285V152.43H324.969V153.113H325.652V153.797H326.336V154.48H327.02V161.316H325.652V158.582H321.551V161.316ZM329.754 155.848V161.316H328.387V151.746H329.754V153.797H330.438V154.48H331.121V155.164H331.805V155.848H332.488V156.531H333.172V157.215H333.855V151.746H335.223V161.316H333.855V159.266H333.172V158.582H332.488V157.898H331.805V157.215H331.121V156.531H330.438V155.848H329.754ZM337.957 155.848V155.164H338.641V155.848H337.957ZM338.641 153.797H337.957V151.746H340.008V154.48H339.324V155.164H338.641V153.797ZM347.527 153.113H344.793V151.746H351.629V153.113H348.895V161.316H347.527V153.113ZM361.883 159.949H361.199V158.582H362.566V159.266H363.25V159.949H364.617V159.266H365.301V153.113H363.934V151.746H368.035V153.113H366.668V159.949H365.984V160.633H365.301V161.316H362.566V160.633H361.883V159.949ZM370.086 159.949H369.402V151.746H370.77V159.266H371.453V159.949H374.188V159.266H374.871V151.746H376.238V159.949H375.555V160.633H374.871V161.316H370.77V160.633H370.086V159.949ZM383.758 153.113H384.441V154.48H383.074V153.797H382.391V153.113H379.656V153.797H378.973V155.164H379.656V155.848H383.074V156.531H383.758V157.215H384.441V159.949H383.758V160.633H383.074V161.316H378.973V160.633H378.289V159.949H377.605V158.582H378.973V159.266H379.656V159.949H382.391V159.266H383.074V157.898H382.391V157.215H378.973V156.531H378.289V155.848H377.605V153.113H378.289V152.43H378.973V151.746H383.074V152.43H383.758V153.113ZM387.176 155.848V155.164H387.859V155.848H387.176ZM387.859 153.797H387.176V151.746H389.227V154.48H388.543V155.164H387.859V153.797ZM396.746 153.113H394.012V151.746H400.848V153.113H398.113V161.316H396.746V153.113ZM239.52 176.113V182.949H242.938V182.266H243.621V176.797H242.938V176.113H239.52ZM238.152 184.316V174.746H243.621V175.43H244.305V176.113H244.988V182.949H244.305V183.633H243.621V184.316H238.152ZM251.141 176.113H248.406V176.797H247.723V182.266H248.406V182.949H251.141V182.266H251.824V176.797H251.141V176.113ZM247.723 175.43V174.746H251.824V175.43H252.508V176.113H253.191V182.949H252.508V183.633H251.824V184.316H247.723V183.633H247.039V182.949H246.355V176.113H247.039V175.43H247.723ZM255.926 178.848V184.316H254.559V174.746H255.926V176.797H256.609V177.48H257.293V178.164H257.977V178.848H258.66V179.531H259.344V180.215H260.027V174.746H261.395V184.316H260.027V182.266H259.344V181.582H258.66V180.898H257.977V180.215H257.293V179.531H256.609V178.848H255.926ZM267.547 176.113H264.812V176.797H264.129V182.266H264.812V182.949H267.547V182.266H268.23V176.797H267.547V176.113ZM264.129 175.43V174.746H268.23V175.43H268.914V176.113H269.598V182.949H268.914V183.633H268.23V184.316H264.129V183.633H263.445V182.949H262.762V176.113H263.445V175.43H264.129ZM273.699 176.113H270.965V174.746H277.801V176.113H275.066V184.316H273.699V176.113ZM280.535 180.215V184.316H279.168V174.746H280.535V178.848H284.637V174.746H286.004V184.316H284.637V180.215H280.535ZM288.738 184.316V182.949H290.105V176.113H288.738V174.746H292.84V176.113H291.473V182.949H292.84V184.316H288.738ZM296.941 178.848V184.316H295.574V174.746H296.941V176.797H297.625V177.48H298.309V178.164H298.992V178.848H299.676V179.531H300.359V180.215H301.043V174.746H302.41V184.316H301.043V182.266H300.359V181.582H299.676V180.898H298.992V180.215H298.309V179.531H297.625V178.848H296.941ZM309.93 176.113H310.613V177.48H309.246V176.797H308.562V176.113H305.828V176.797H305.145V182.266H305.828V182.949H308.562V182.266H309.246V180.215H307.195V178.848H310.613V182.949H309.93V183.633H309.246V184.316H305.145V183.633H304.461V182.949H303.777V176.113H304.461V175.43H305.145V174.746H309.246V175.43H309.93V176.113ZM315.398 182.949V184.316H314.031V182.949H315.398ZM321.551 184.316H320.184V174.746H321.551V176.113H322.234V176.797H322.918V177.48H324.285V176.797H324.969V176.113H325.652V174.746H327.02V184.316H325.652V178.164H324.969V178.848H324.285V180.215H322.918V178.848H322.234V178.164H321.551V184.316ZM335.223 174.746V176.113H329.754V178.848H333.855V180.215H329.754V182.949H335.223V184.316H328.387V174.746H335.223ZM337.957 184.316H336.59V174.746H337.957V176.113H338.641V176.797H339.324V177.48H340.691V176.797H341.375V176.113H342.059V174.746H343.426V184.316H342.059V178.164H341.375V178.848H340.691V180.215H339.324V178.848H338.641V178.164H337.957V184.316ZM351.629 174.746V176.113H346.16V178.848H350.262V180.215H346.16V182.949H351.629V184.316H344.793V174.746H351.629ZM359.148 176.113H359.832V177.48H358.465V176.797H357.781V176.113H355.047V176.797H354.363V178.164H355.047V178.848H358.465V179.531H359.148V180.215H359.832V182.949H359.148V183.633H358.465V184.316H354.363V183.633H353.68V182.949H352.996V181.582H354.363V182.266H355.047V182.949H357.781V182.266H358.465V180.898H357.781V180.215H354.363V179.531H353.68V178.848H352.996V176.113H353.68V175.43H354.363V174.746H358.465V175.43H359.148V176.113ZM370.77 178.848V184.316H369.402V174.746H370.77V176.797H371.453V177.48H372.137V178.164H372.82V178.848H373.504V179.531H374.188V180.215H374.871V174.746H376.238V184.316H374.871V182.266H374.188V181.582H373.504V180.898H372.82V180.215H372.137V179.531H371.453V178.848H370.77ZM384.441 174.746V176.113H378.973V178.848H383.074V180.215H378.973V182.949H384.441V184.316H377.605V174.746H384.441ZM392.645 174.746V176.113H387.176V178.848H391.277V180.215H387.176V182.949H392.645V184.316H385.809V174.746H392.645ZM395.379 176.113V182.949H398.797V182.266H399.48V176.797H398.797V176.113H395.379ZM394.012 184.316V174.746H399.48V175.43H400.164V176.113H400.848V182.949H400.164V183.633H399.48V184.316H394.012ZM294.207 199.113H291.473V197.746H298.309V199.113H295.574V207.316H294.207V199.113ZM304.461 199.113H301.727V199.797H301.043V205.266H301.727V205.949H304.461V205.266H305.145V199.797H304.461V199.113ZM301.043 198.43V197.746H305.145V198.43H305.828V199.113H306.512V205.949H305.828V206.633H305.145V207.316H301.043V206.633H300.359V205.949H299.676V199.113H300.359V198.43H301.043ZM316.082 197.746H317.449V205.266H318.816V201.848H320.184V205.266H321.551V197.746H322.918V205.949H322.234V206.633H321.551V207.316H320.184V206.633H318.816V207.316H317.449V206.633H316.766V205.949H316.082V197.746ZM325.652 207.316V205.949H327.02V199.113H325.652V197.746H329.754V199.113H328.387V205.949H329.754V207.316H325.652ZM333.855 201.848V207.316H332.488V197.746H333.855V199.797H334.539V200.48H335.223V201.164H335.906V201.848H336.59V202.531H337.273V203.215H337.957V197.746H339.324V207.316H337.957V205.266H337.273V204.582H336.59V203.898H335.906V203.215H335.223V202.531H334.539V201.848H333.855ZM344.109 206.633V207.316H342.742V206.633H343.426V205.949H344.109V205.266H344.793V198.43H344.109V197.746H343.426V197.062H342.742V196.379H344.109V197.062H344.793V197.746H345.477V198.43H346.16V205.266H345.477V205.949H344.793V206.633H344.109Z" fill="#9F9F9F"/>
<rect x="222.5" y="0.5" width="194" height="230" stroke="url(#paint2_linear_6498_22710)" stroke-linejoin="round" stroke-dasharray="10.23 10.23"/>
<rect x="222.5" y="0.5" width="194" height="132" stroke="url(#paint3_linear_6498_22710)" stroke-linejoin="round" stroke-dasharray="10.23 10.23"/>
<path d="M255 90V84H267V60H261V54H267V48H279V84H291V90H255ZM309 90V84H303V78H297V60H303V54H309V48H327V54H333V60H339V78H333V84H327V90H309ZM315 84H327V60H321V54H309V78H315V84ZM357 54H351V48H363V60H357V54ZM387 48V54H381V48H387ZM357 66H345V54H351V60H357V66ZM375 54H381V60H375V54ZM369 60H375V66H369V60ZM363 66H369V72H363V66ZM357 72H363V78H357V72ZM375 72H387V84H381V78H375V72ZM351 78H357V84H351V78ZM375 84H381V90H369V78H375V84ZM345 84H351V90H345V84Z" fill="#2D913C"/>
<defs>
<linearGradient id="paint0_linear_6498_22710" x1="97.5" y1="-3.10465" x2="97.5" y2="231" gradientUnits="userSpaceOnUse">
<stop stop-color="#FD8D23"/>
<stop offset="0.115" stop-color="#FAE61C"/>
<stop offset="0.22" stop-color="#EEF73B"/>
<stop offset="0.43" stop-color="#4CF038"/>
<stop offset="0.655" stop-color="#33C6F6"/>
<stop offset="0.735" stop-color="#559CFB"/>
<stop offset="0.81" stop-color="#7475FF"/>
<stop offset="1" stop-color="#D457FF"/>
</linearGradient>
<linearGradient id="paint1_linear_6498_22710" x1="97.5" y1="-1.78753" x2="97.5" y2="133" gradientUnits="userSpaceOnUse">
<stop stop-color="#FD8D23"/>
<stop offset="0.115" stop-color="#FAE61C"/>
<stop offset="0.22" stop-color="#EEF73B"/>
<stop offset="0.43" stop-color="#4CF038"/>
<stop offset="0.655" stop-color="#33C6F6"/>
<stop offset="0.735" stop-color="#559CFB"/>
<stop offset="0.81" stop-color="#7475FF"/>
<stop offset="1" stop-color="#D457FF"/>
</linearGradient>
<linearGradient id="paint2_linear_6498_22710" x1="319.5" y1="-3.10465" x2="319.5" y2="231" gradientUnits="userSpaceOnUse">
<stop stop-color="#FD8D23"/>
<stop offset="0.115" stop-color="#FAE61C"/>
<stop offset="0.22" stop-color="#EEF73B"/>
<stop offset="0.43" stop-color="#4CF038"/>
<stop offset="0.655" stop-color="#33C6F6"/>
<stop offset="0.735" stop-color="#559CFB"/>
<stop offset="0.81" stop-color="#7475FF"/>
<stop offset="1" stop-color="#D457FF"/>
</linearGradient>
<linearGradient id="paint3_linear_6498_22710" x1="319.5" y1="-1.78753" x2="319.5" y2="133" gradientUnits="userSpaceOnUse">
<stop stop-color="#FD8D23"/>
<stop offset="0.115" stop-color="#FAE61C"/>
<stop offset="0.22" stop-color="#EEF73B"/>
<stop offset="0.43" stop-color="#4CF038"/>
<stop offset="0.655" stop-color="#33C6F6"/>
<stop offset="0.735" stop-color="#559CFB"/>
<stop offset="0.81" stop-color="#7475FF"/>
<stop offset="1" stop-color="#D457FF"/>
</linearGradient>
</defs>
</svg>
