<svg width="417" height="231" viewBox="0 0 417 231" fill="none" xmlns="http://www.w3.org/2000/svg">
<rect y="133" width="195" height="98" fill="#212121"/>
<path d="M17.0195 153.113V155.848H20.4375V155.164H21.1211V153.797H20.4375V153.113H17.0195ZM17.0195 157.215V161.316H15.6523V151.746H21.1211V152.43H21.8047V153.113H22.4883V155.848H21.8047V156.531H21.1211V157.215H17.0195ZM25.2227 157.215H29.3242V155.164H28.6406V154.48H27.957V153.797H26.5898V154.48H25.9062V155.164H25.2227V157.215ZM25.2227 161.316H23.8555V154.48H24.5391V153.797H25.2227V153.113H25.9062V152.43H26.5898V151.746H27.957V152.43H28.6406V153.113H29.3242V153.797H30.0078V154.48H30.6914V161.316H29.3242V158.582H25.2227V161.316ZM33.4258 153.113V155.848H36.8438V155.164H37.5273V153.797H36.8438V153.113H33.4258ZM34.1094 157.215H33.4258V161.316H32.0586V151.746H37.5273V152.43H38.2109V153.113H38.8945V155.848H38.2109V156.531H37.5273V157.215H36.1602V157.898H36.8438V158.582H37.5273V159.266H38.2109V159.949H38.8945V161.316H37.5273V160.633H36.8438V159.949H36.1602V159.266H35.4766V158.582H34.793V157.898H34.1094V157.215ZM42.9961 153.113H40.2617V151.746H47.0977V153.113H44.3633V161.316H42.9961V153.113ZM49.832 155.848V161.316H48.4648V151.746H49.832V153.797H50.5156V154.48H51.1992V155.164H51.8828V155.848H52.5664V156.531H53.25V157.215H53.9336V151.746H55.3008V161.316H53.9336V159.266H53.25V158.582H52.5664V157.898H51.8828V157.215H51.1992V156.531H50.5156V155.848H49.832ZM63.5039 151.746V153.113H58.0352V155.848H62.1367V157.215H58.0352V159.949H63.5039V161.316H56.668V151.746H63.5039ZM66.2383 153.113V155.848H69.6562V155.164H70.3398V153.797H69.6562V153.113H66.2383ZM66.9219 157.215H66.2383V161.316H64.8711V151.746H70.3398V152.43H71.0234V153.113H71.707V155.848H71.0234V156.531H70.3398V157.215H68.9727V157.898H69.6562V158.582H70.3398V159.266H71.0234V159.949H71.707V161.316H70.3398V160.633H69.6562V159.949H68.9727V159.266H68.2891V158.582H67.6055V157.898H66.9219V157.215ZM79.2266 153.113H79.9102V154.48H78.543V153.797H77.8594V153.113H75.125V153.797H74.4414V155.164H75.125V155.848H78.543V156.531H79.2266V157.215H79.9102V159.949H79.2266V160.633H78.543V161.316H74.4414V160.633H73.7578V159.949H73.0742V158.582H74.4414V159.266H75.125V159.949H77.8594V159.266H78.543V157.898H77.8594V157.215H74.4414V156.531H73.7578V155.848H73.0742V153.113H73.7578V152.43H74.4414V151.746H78.543V152.43H79.2266V153.113ZM82.6445 157.215V161.316H81.2773V151.746H82.6445V155.848H86.7461V151.746H88.1133V161.316H86.7461V157.215H82.6445ZM90.8477 161.316V159.949H92.2148V153.113H90.8477V151.746H94.9492V153.113H93.582V159.949H94.9492V161.316H90.8477ZM99.0508 153.113V155.848H102.469V155.164H103.152V153.797H102.469V153.113H99.0508ZM99.0508 157.215V161.316H97.6836V151.746H103.152V152.43H103.836V153.113H104.52V155.848H103.836V156.531H103.152V157.215H99.0508ZM112.039 153.113H112.723V154.48H111.355V153.797H110.672V153.113H107.938V153.797H107.254V155.164H107.938V155.848H111.355V156.531H112.039V157.215H112.723V159.949H112.039V160.633H111.355V161.316H107.254V160.633H106.57V159.949H105.887V158.582H107.254V159.266H107.938V159.949H110.672V159.266H111.355V157.898H110.672V157.215H107.254V156.531H106.57V155.848H105.887V153.113H106.57V152.43H107.254V151.746H111.355V152.43H112.039V153.113ZM118.191 160.633H118.875V161.316H117.508V160.633H116.824V159.949H116.141V159.266H115.457V152.43H116.141V151.746H116.824V151.062H117.508V150.379H118.875V151.062H118.191V151.746H117.508V152.43H116.824V159.266H117.508V159.949H118.191V160.633ZM122.293 151.746H123.66V159.266H125.027V155.848H126.395V159.266H127.762V151.746H129.129V159.949H128.445V160.633H127.762V161.316H126.395V160.633H125.027V161.316H123.66V160.633H122.977V159.949H122.293V151.746ZM137.332 151.746V153.113H131.863V155.848H135.965V157.215H131.863V159.949H137.332V161.316H130.496V151.746H137.332ZM148.27 155.848V161.316H146.902V151.746H148.27V153.797H148.953V154.48H149.637V155.164H150.32V155.848H151.004V156.531H151.688V157.215H152.371V151.746H153.738V161.316H152.371V159.266H151.688V158.582H151.004V157.898H150.32V157.215H149.637V156.531H148.953V155.848H148.27ZM161.941 151.746V153.113H156.473V155.848H160.574V157.215H156.473V159.949H161.941V161.316H155.105V151.746H161.941ZM170.145 151.746V153.113H164.676V155.848H168.777V157.215H164.676V159.949H170.145V161.316H163.309V151.746H170.145ZM172.879 153.113V159.949H176.297V159.266H176.98V153.797H176.297V153.113H172.879ZM171.512 161.316V151.746H176.98V152.43H177.664V153.113H178.348V159.949H177.664V160.633H176.98V161.316H171.512ZM14.2852 176.113H11.5508V174.746H18.3867V176.113H15.6523V184.316H14.2852V176.113ZM24.5391 176.113H21.8047V176.797H21.1211V182.266H21.8047V182.949H24.5391V182.266H25.2227V176.797H24.5391V176.113ZM21.1211 175.43V174.746H25.2227V175.43H25.9062V176.113H26.5898V182.949H25.9062V183.633H25.2227V184.316H21.1211V183.633H20.4375V182.949H19.7539V176.113H20.4375V175.43H21.1211ZM42.3125 176.113H42.9961V177.48H41.6289V176.797H40.9453V176.113H38.2109V176.797H37.5273V178.164H38.2109V178.848H41.6289V179.531H42.3125V180.215H42.9961V182.949H42.3125V183.633H41.6289V184.316H37.5273V183.633H36.8438V182.949H36.1602V181.582H37.5273V182.266H38.2109V182.949H40.9453V182.266H41.6289V180.898H40.9453V180.215H37.5273V179.531H36.8438V178.848H36.1602V176.113H36.8438V175.43H37.5273V174.746H41.6289V175.43H42.3125V176.113ZM45.7305 176.113V178.848H49.1484V178.164H49.832V176.797H49.1484V176.113H45.7305ZM45.7305 180.215V184.316H44.3633V174.746H49.832V175.43H50.5156V176.113H51.1992V178.848H50.5156V179.531H49.832V180.215H45.7305ZM59.4023 174.746V176.113H53.9336V178.848H58.0352V180.215H53.9336V182.949H59.4023V184.316H52.5664V174.746H59.4023ZM62.1367 178.848V184.316H60.7695V174.746H62.1367V176.797H62.8203V177.48H63.5039V178.164H64.1875V178.848H64.8711V179.531H65.5547V180.215H66.2383V174.746H67.6055V184.316H66.2383V182.266H65.5547V181.582H64.8711V180.898H64.1875V180.215H63.5039V179.531H62.8203V178.848H62.1367ZM70.3398 176.113V182.949H73.7578V182.266H74.4414V176.797H73.7578V176.113H70.3398ZM68.9727 184.316V174.746H74.4414V175.43H75.125V176.113H75.8086V182.949H75.125V183.633H74.4414V184.316H68.9727ZM88.1133 176.113H85.3789V174.746H92.2148V176.113H89.4805V184.316H88.1133V176.113ZM98.3672 176.113H95.6328V176.797H94.9492V182.266H95.6328V182.949H98.3672V182.266H99.0508V176.797H98.3672V176.113ZM94.9492 175.43V174.746H99.0508V175.43H99.7344V176.113H100.418V182.949H99.7344V183.633H99.0508V184.316H94.9492V183.633H94.2656V182.949H93.582V176.113H94.2656V175.43H94.9492ZM111.355 176.113V178.848H114.773V178.164H115.457V176.797H114.773V176.113H111.355ZM112.039 180.215H111.355V184.316H109.988V174.746H115.457V175.43H116.141V176.113H116.824V178.848H116.141V179.531H115.457V180.215H114.09V180.898H114.773V181.582H115.457V182.266H116.141V182.949H116.824V184.316H115.457V183.633H114.773V182.949H114.09V182.266H113.406V181.582H112.723V180.898H112.039V180.215ZM125.027 174.746V176.113H119.559V178.848H123.66V180.215H119.559V182.949H125.027V184.316H118.191V174.746H125.027ZM127.762 180.215H131.863V178.164H131.18V177.48H130.496V176.797H129.129V177.48H128.445V178.164H127.762V180.215ZM127.762 184.316H126.395V177.48H127.078V176.797H127.762V176.113H128.445V175.43H129.129V174.746H130.496V175.43H131.18V176.113H131.863V176.797H132.547V177.48H133.23V184.316H131.863V181.582H127.762V184.316ZM136.648 182.949H139.383V182.266H140.066V181.582H141.434V182.949H140.75V183.633H140.066V184.316H135.965V183.633H135.281V182.949H134.598V176.113H135.281V175.43H135.965V174.746H140.066V175.43H140.75V176.113H141.434V177.48H140.066V176.797H139.383V176.113H136.648V176.797H135.965V182.266H136.648V182.949ZM144.168 180.215V184.316H142.801V174.746H144.168V178.848H148.27V174.746H149.637V184.316H148.27V180.215H144.168ZM163.992 176.113H161.258V176.797H160.574V182.266H161.258V182.949H163.992V182.266H164.676V176.797H163.992V176.113ZM160.574 175.43V174.746H164.676V175.43H165.359V176.113H166.043V182.949H165.359V183.633H164.676V184.316H160.574V183.633H159.891V182.949H159.207V176.113H159.891V175.43H160.574ZM168.094 182.949H167.41V174.746H168.777V182.266H169.461V182.949H172.195V182.266H172.879V174.746H174.246V182.949H173.562V183.633H172.879V184.316H168.777V183.633H168.094V182.949ZM178.348 176.113H175.613V174.746H182.449V176.113H179.715V184.316H178.348V176.113ZM63.5039 199.113H60.7695V197.746H67.6055V199.113H64.8711V207.316H63.5039V199.113ZM73.7578 199.113H71.0234V199.797H70.3398V205.266H71.0234V205.949H73.7578V205.266H74.4414V199.797H73.7578V199.113ZM70.3398 198.43V197.746H74.4414V198.43H75.125V199.113H75.8086V205.949H75.125V206.633H74.4414V207.316H70.3398V206.633H69.6562V205.949H68.9727V199.113H69.6562V198.43H70.3398ZM89.4805 207.316H88.1133V203.898H87.4297V203.215H86.7461V202.531H86.0625V201.848H85.3789V197.746H86.7461V201.164H87.4297V201.848H88.1133V202.531H89.4805V201.848H90.1641V201.164H90.8477V197.746H92.2148V201.848H91.5312V202.531H90.8477V203.215H90.1641V203.898H89.4805V207.316ZM94.9492 201.848V201.164H95.6328V201.848H94.9492ZM95.6328 199.797H94.9492V197.746H97V200.48H96.3164V201.164H95.6328V199.797ZM103.152 203.215H107.254V201.164H106.57V200.48H105.887V199.797H104.52V200.48H103.836V201.164H103.152V203.215ZM103.152 207.316H101.785V200.48H102.469V199.797H103.152V199.113H103.836V198.43H104.52V197.746H105.887V198.43H106.57V199.113H107.254V199.797H107.938V200.48H108.621V207.316H107.254V204.582H103.152V207.316ZM109.988 207.316V197.746H111.355V205.949H116.824V207.316H109.988ZM118.191 207.316V197.746H119.559V205.949H125.027V207.316H118.191ZM129.812 206.633V207.316H128.445V206.633H129.129V205.949H129.812V205.266H130.496V198.43H129.812V197.746H129.129V197.062H128.445V196.379H129.812V197.062H130.496V197.746H131.18V198.43H131.863V205.266H131.18V205.949H130.496V206.633H129.812Z" fill="#9F9F9F"/>
<rect x="0.5" y="0.5" width="194" height="230" stroke="url(#paint0_linear_6498_22711)" stroke-linejoin="round" stroke-dasharray="10.23 10.23"/>
<rect x="0.5" y="0.5" width="194" height="132" stroke="url(#paint1_linear_6498_22711)" stroke-linejoin="round" stroke-dasharray="10.23 10.23"/>
<path d="M57 90V84H51V78H63V84H81V66H51V48H87V54H63V60H87V66H93V84H87V90H57ZM111 54H105V48H117V60H111V54ZM141 48V54H135V48H141ZM111 66H99V54H105V60H111V66ZM129 54H135V60H129V54ZM123 60H129V66H123V60ZM117 66H123V72H117V66ZM111 72H117V78H111V72ZM129 72H141V84H135V78H129V72ZM105 78H111V84H105V78ZM129 84H135V90H123V78H129V84ZM99 84H105V90H99V84Z" fill="#EE2E95"/>
<rect x="222" y="133" width="195" height="98" fill="#212121"/>
<path d="M252.191 153.113H249.457V151.746H256.293V153.113H253.559V161.316H252.191V153.113ZM259.027 157.215V161.316H257.66V151.746H259.027V155.848H263.129V151.746H264.496V161.316H263.129V157.215H259.027ZM267.23 157.215H271.332V155.164H270.648V154.48H269.965V153.797H268.598V154.48H267.914V155.164H267.23V157.215ZM267.23 161.316H265.863V154.48H266.547V153.797H267.23V153.113H267.914V152.43H268.598V151.746H269.965V152.43H270.648V153.113H271.332V153.797H272.016V154.48H272.699V161.316H271.332V158.582H267.23V161.316ZM276.801 153.113H274.066V151.746H280.902V153.113H278.168V161.316H276.801V153.113ZM283.637 155.848V155.164H284.32V155.848H283.637ZM284.32 153.797H283.637V151.746H285.688V154.48H285.004V155.164H284.32V153.797ZM296.625 153.113H297.309V154.48H295.941V153.797H295.258V153.113H292.523V153.797H291.84V155.164H292.523V155.848H295.941V156.531H296.625V157.215H297.309V159.949H296.625V160.633H295.941V161.316H291.84V160.633H291.156V159.949H290.473V158.582H291.84V159.266H292.523V159.949H295.258V159.266H295.941V157.898H295.258V157.215H291.84V156.531H291.156V155.848H290.473V153.113H291.156V152.43H291.84V151.746H295.941V152.43H296.625V153.113ZM313.715 151.746V153.113H308.246V155.848H312.348V157.215H308.246V161.316H306.879V151.746H313.715ZM319.867 153.113H317.133V153.797H316.449V159.266H317.133V159.949H319.867V159.266H320.551V153.797H319.867V153.113ZM316.449 152.43V151.746H320.551V152.43H321.234V153.113H321.918V159.949H321.234V160.633H320.551V161.316H316.449V160.633H315.766V159.949H315.082V153.113H315.766V152.43H316.449ZM324.652 153.113V155.848H328.07V155.164H328.754V153.797H328.07V153.113H324.652ZM325.336 157.215H324.652V161.316H323.285V151.746H328.754V152.43H329.438V153.113H330.121V155.848H329.438V156.531H328.754V157.215H327.387V157.898H328.07V158.582H328.754V159.266H329.438V159.949H330.121V161.316H328.754V160.633H328.07V159.949H327.387V159.266H326.703V158.582H326.02V157.898H325.336V157.215ZM340.375 159.949H339.691V151.746H341.059V159.266H341.742V159.949H344.477V159.266H345.16V151.746H346.527V159.949H345.844V160.633H345.16V161.316H341.059V160.633H340.375V159.949ZM354.047 153.113H354.73V154.48H353.363V153.797H352.68V153.113H349.945V153.797H349.262V155.164H349.945V155.848H353.363V156.531H354.047V157.215H354.73V159.949H354.047V160.633H353.363V161.316H349.262V160.633H348.578V159.949H347.895V158.582H349.262V159.266H349.945V159.949H352.68V159.266H353.363V157.898H352.68V157.215H349.262V156.531H348.578V155.848H347.895V153.113H348.578V152.43H349.262V151.746H353.363V152.43H354.047V153.113ZM359.516 159.949V161.316H358.148V159.949H359.516ZM368.402 161.316H367.035V157.898H366.352V157.215H365.668V156.531H364.984V155.848H364.301V151.746H365.668V155.164H366.352V155.848H367.035V156.531H368.402V155.848H369.086V155.164H369.77V151.746H371.137V155.848H370.453V156.531H369.77V157.215H369.086V157.898H368.402V161.316ZM377.289 153.113H374.555V153.797H373.871V159.266H374.555V159.949H377.289V159.266H377.973V153.797H377.289V153.113ZM373.871 152.43V151.746H377.973V152.43H378.656V153.113H379.34V159.949H378.656V160.633H377.973V161.316H373.871V160.633H373.188V159.949H372.504V153.113H373.188V152.43H373.871ZM381.391 159.949H380.707V151.746H382.074V159.266H382.758V159.949H385.492V159.266H386.176V151.746H387.543V159.949H386.859V160.633H386.176V161.316H382.074V160.633H381.391V159.949ZM263.129 180.215H267.23V178.164H266.547V177.48H265.863V176.797H264.496V177.48H263.812V178.164H263.129V180.215ZM263.129 184.316H261.762V177.48H262.445V176.797H263.129V176.113H263.812V175.43H264.496V174.746H265.863V175.43H266.547V176.113H267.23V176.797H267.914V177.48H268.598V184.316H267.23V181.582H263.129V184.316ZM271.332 176.113V178.848H274.75V178.164H275.434V176.797H274.75V176.113H271.332ZM271.332 180.215V184.316H269.965V174.746H275.434V175.43H276.117V176.113H276.801V178.848H276.117V179.531H275.434V180.215H271.332ZM279.535 176.113V178.848H282.953V178.164H283.637V176.797H282.953V176.113H279.535ZM279.535 180.215V184.316H278.168V174.746H283.637V175.43H284.32V176.113H285.004V178.848H284.32V179.531H283.637V180.215H279.535ZM287.738 176.113V178.848H291.156V178.164H291.84V176.797H291.156V176.113H287.738ZM288.422 180.215H287.738V184.316H286.371V174.746H291.84V175.43H292.523V176.113H293.207V178.848H292.523V179.531H291.84V180.215H290.473V180.898H291.156V181.582H291.84V182.266H292.523V182.949H293.207V184.316H291.84V183.633H291.156V182.949H290.473V182.266H289.789V181.582H289.105V180.898H288.422V180.215ZM299.359 176.113H296.625V176.797H295.941V182.266H296.625V182.949H299.359V182.266H300.043V176.797H299.359V176.113ZM295.941 175.43V174.746H300.043V175.43H300.727V176.113H301.41V182.949H300.727V183.633H300.043V184.316H295.941V183.633H295.258V182.949H294.574V176.113H295.258V175.43H295.941ZM303.461 181.582H302.777V174.746H304.145V180.898H304.828V181.582H305.512V182.266H306.879V181.582H307.562V180.898H308.246V174.746H309.613V181.582H308.93V182.266H308.246V182.949H307.562V183.633H306.879V184.316H305.512V183.633H304.828V182.949H304.145V182.266H303.461V181.582ZM317.816 174.746V176.113H312.348V178.848H316.449V180.215H312.348V182.949H317.816V184.316H310.98V174.746H317.816ZM321.918 182.949V181.582H323.285V182.949H322.602V183.633H321.918V184.316H320.551V183.633H321.234V182.949H321.918ZM328.754 176.113V178.848H332.172V178.164H332.855V176.797H332.172V176.113H328.754ZM329.438 180.215H328.754V184.316H327.387V174.746H332.855V175.43H333.539V176.113H334.223V178.848H333.539V179.531H332.855V180.215H331.488V180.898H332.172V181.582H332.855V182.266H333.539V182.949H334.223V184.316H332.855V183.633H332.172V182.949H331.488V182.266H330.805V181.582H330.121V180.898H329.438V180.215ZM336.957 184.316V182.949H338.324V176.113H336.957V174.746H341.059V176.113H339.691V182.949H341.059V184.316H336.957ZM349.945 176.113H350.629V177.48H349.262V176.797H348.578V176.113H345.844V176.797H345.16V182.266H345.844V182.949H348.578V182.266H349.262V180.215H347.211V178.848H350.629V182.949H349.945V183.633H349.262V184.316H345.16V183.633H344.477V182.949H343.793V176.113H344.477V175.43H345.16V174.746H349.262V175.43H349.945V176.113ZM353.363 180.215V184.316H351.996V174.746H353.363V178.848H357.465V174.746H358.832V184.316H357.465V180.215H353.363ZM362.934 176.113H360.199V174.746H367.035V176.113H364.301V184.316H362.934V176.113ZM372.504 182.949V184.316H371.137V182.949H372.504ZM372.504 179.531V178.848H373.188V178.164H373.871V176.797H373.188V176.113H370.453V176.797H369.77V177.48H368.402V176.113H369.086V175.43H369.77V174.746H373.871V175.43H374.555V176.113H375.238V178.848H374.555V179.531H373.871V180.215H373.188V180.898H372.504V181.582H371.137V180.215H371.82V179.531H372.504Z" fill="#9F9F9F"/>
<rect x="222.5" y="0.5" width="194" height="230" stroke="url(#paint2_linear_6498_22711)" stroke-linejoin="round" stroke-dasharray="10.23 10.23"/>
<rect x="222.5" y="0.5" width="194" height="132" stroke="url(#paint3_linear_6498_22711)" stroke-linejoin="round" stroke-dasharray="10.23 10.23"/>
<path d="M279 90V84H291V60H285V54H291V48H303V84H315V90H279ZM333 54H327V48H339V60H333V54ZM363 48V54H357V48H363ZM333 66H321V54H327V60H333V66ZM351 54H357V60H351V54ZM345 60H351V66H345V60ZM339 66H345V72H339V66ZM333 72H339V78H333V72ZM351 72H363V84H357V78H351V72ZM327 78H333V84H327V78ZM351 84H357V90H345V78H351V84ZM321 84H327V90H321V84Z" fill="#2D913C"/>
<defs>
<linearGradient id="paint0_linear_6498_22711" x1="97.5" y1="-3.10465" x2="97.5" y2="231" gradientUnits="userSpaceOnUse">
<stop stop-color="#FD8D23"/>
<stop offset="0.115" stop-color="#FAE61C"/>
<stop offset="0.22" stop-color="#EEF73B"/>
<stop offset="0.43" stop-color="#4CF038"/>
<stop offset="0.655" stop-color="#33C6F6"/>
<stop offset="0.735" stop-color="#559CFB"/>
<stop offset="0.81" stop-color="#7475FF"/>
<stop offset="1" stop-color="#D457FF"/>
</linearGradient>
<linearGradient id="paint1_linear_6498_22711" x1="97.5" y1="-1.78753" x2="97.5" y2="133" gradientUnits="userSpaceOnUse">
<stop stop-color="#FD8D23"/>
<stop offset="0.115" stop-color="#FAE61C"/>
<stop offset="0.22" stop-color="#EEF73B"/>
<stop offset="0.43" stop-color="#4CF038"/>
<stop offset="0.655" stop-color="#33C6F6"/>
<stop offset="0.735" stop-color="#559CFB"/>
<stop offset="0.81" stop-color="#7475FF"/>
<stop offset="1" stop-color="#D457FF"/>
</linearGradient>
<linearGradient id="paint2_linear_6498_22711" x1="319.5" y1="-3.10465" x2="319.5" y2="231" gradientUnits="userSpaceOnUse">
<stop stop-color="#FD8D23"/>
<stop offset="0.115" stop-color="#FAE61C"/>
<stop offset="0.22" stop-color="#EEF73B"/>
<stop offset="0.43" stop-color="#4CF038"/>
<stop offset="0.655" stop-color="#33C6F6"/>
<stop offset="0.735" stop-color="#559CFB"/>
<stop offset="0.81" stop-color="#7475FF"/>
<stop offset="1" stop-color="#D457FF"/>
</linearGradient>
<linearGradient id="paint3_linear_6498_22711" x1="319.5" y1="-1.78753" x2="319.5" y2="133" gradientUnits="userSpaceOnUse">
<stop stop-color="#FD8D23"/>
<stop offset="0.115" stop-color="#FAE61C"/>
<stop offset="0.22" stop-color="#EEF73B"/>
<stop offset="0.43" stop-color="#4CF038"/>
<stop offset="0.655" stop-color="#33C6F6"/>
<stop offset="0.735" stop-color="#559CFB"/>
<stop offset="0.81" stop-color="#7475FF"/>
<stop offset="1" stop-color="#D457FF"/>
</linearGradient>
</defs>
</svg>
