<svg width="270" height="260" viewBox="0 0 270 260" fill="none" xmlns="http://www.w3.org/2000/svg">
<rect x="1.99163" y="1.02288" width="266.971" height="257.765" stroke="url(#paint0_linear_6456_6038)" stroke-width="2.04575" stroke-linejoin="round" stroke-dasharray="8.18 8.18"/>
<rect x="1.99163" y="1.02288" width="266.971" height="81.8301" stroke="url(#paint1_linear_6456_6038)" stroke-width="2.04575" stroke-linejoin="round" stroke-dasharray="8.18 8.18"/>
<path d="M61.7067 45.7554V27.3227H77.5062V29.956H80.1394V37.8557H77.5062V40.4889H66.9732V45.7554H61.7067ZM66.9732 37.8557H74.873V29.956H66.9732V37.8557ZM82.7727 45.7554V27.3227H88.0392V32.5892H98.5721V35.2225H101.205V45.7554H95.9389V35.2225H88.0392V45.7554H82.7727ZM106.472 45.7554V43.1222H103.839V40.4889H106.472V37.8557H117.005V35.2225H106.472V32.5892H119.638V35.2225H122.271V45.7554H106.472ZM109.105 43.1222H117.005V40.4889H109.105V43.1222ZM124.905 45.7554V43.1222H138.071V40.4889H127.538V37.8557H124.905V35.2225H127.538V32.5892H140.704V35.2225H130.171V37.8557H140.704V40.4889H143.337V43.1222H140.704V45.7554H124.905ZM148.604 45.7554V43.1222H145.97V35.2225H148.604V32.5892H161.77V35.2225H164.403V40.4889H151.237V43.1222H161.77V45.7554H148.604ZM151.237 37.8557H159.137V35.2225H151.237V37.8557ZM198.635 45.7554V40.4889H188.102V35.2225H190.736V32.5892H193.369V29.956H196.002V27.3227H203.902V37.8557H206.535V40.4889H203.902V45.7554H198.635ZM193.369 37.8557H198.635V32.5892H196.002V35.2225H193.369V37.8557Z" fill="#2D913C"/>
<path d="M65.5075 128.386V115.586H67.3362V126.558H74.6507V128.386H65.5075ZM79.2223 126.558H82.8796V125.644H83.7939V123.815H82.8796V122.901H79.2223V123.815H78.308V125.644H79.2223V126.558ZM78.308 128.386V127.472H77.3937V126.558H76.4794V122.901H77.3937V121.986H78.308V121.072H82.8796V121.986H83.7939V120.158H82.8796V119.243H78.308V117.415H83.7939V118.329H84.7082V119.243H85.6226V128.386H83.7939V127.472H82.8796V128.386H78.308ZM87.4512 118.329H89.2798V125.644H90.1942V126.558H93.8514V125.644H94.7658V118.329H96.5944V126.558H95.6801V127.472H94.7658V128.386H89.2798V127.472H88.3655V126.558H87.4512V118.329ZM100.252 121.072V128.386H98.423V118.329H100.252V119.243H101.166V118.329H105.738V119.243H106.652V120.158H107.566V128.386H105.738V121.072H104.823V120.158H101.166V121.072H100.252ZM116.709 125.644V124.729H118.538V126.558H117.624V127.472H116.709V128.386H111.224V127.472H110.309V126.558H109.395V120.158H110.309V119.243H111.224V118.329H116.709V119.243H117.624V120.158H118.538V121.986H116.709V121.072H115.795V120.158H112.138V121.072H111.224V125.644H112.138V126.558H115.795V125.644H116.709ZM122.195 122.901V128.386H120.367V115.586H122.195V120.158H123.11V119.243H124.024V118.329H126.767V119.243H127.681V120.158H128.596V121.072H129.51V128.386H127.681V121.986H126.767V121.072H125.853V120.158H124.938V121.072H124.024V121.986H123.11V122.901H122.195ZM145.053 126.558H148.711V125.644H149.625V121.072H148.711V120.158H145.053V121.072H144.139V125.644H145.053V126.558ZM144.139 128.386V127.472H143.225V126.558H142.31V120.158H143.225V119.243H144.139V118.329H149.625V119.243H150.539V120.158H151.454V126.558H150.539V127.472H149.625V128.386H144.139ZM158.768 128.386H156.939V120.158H154.197V118.329H156.939V116.5H157.854V115.586H161.511V117.415H158.768V118.329H161.511V120.158H158.768V128.386ZM181.626 126.558H182.54V128.386H180.712V127.472H179.797V126.558H178.883V120.158H177.055V118.329H178.883V115.586H180.712V118.329H182.54V120.158H180.712V125.644H181.626V126.558ZM188.026 122.901V128.386H186.198V115.586H188.026V120.158H188.941V119.243H189.855V118.329H192.598V119.243H193.512V120.158H194.427V121.072H195.341V128.386H193.512V121.986H192.598V121.072H191.684V120.158H190.769V121.072H189.855V121.986H188.941V122.901H188.026ZM198.998 121.072V121.986H204.484V121.072H203.57V120.158H199.913V121.072H198.998ZM206.313 125.644V126.558H205.398V127.472H204.484V128.386H198.998V127.472H198.084V126.558H197.17V120.158H198.084V119.243H198.998V118.329H204.484V119.243H205.398V120.158H206.313V122.901H205.398V123.815H198.998V125.644H199.913V126.558H203.57V125.644H206.313ZM45.3925 144.158V139.586H47.2211V152.386H45.3925V150.558H44.4782V151.472H43.5638V152.386H40.8209V151.472H39.9066V150.558H38.9922V149.644H38.0779V145.072H38.9922V144.158H39.9066V143.243H40.8209V142.329H43.5638V143.243H44.4782V144.158H45.3925ZM40.8209 149.644H41.7352V150.558H42.6495V149.644H43.5638V148.729H44.4782V145.986H43.5638V145.072H42.6495V144.158H41.7352V145.072H40.8209V145.986H39.9066V148.729H40.8209V149.644ZM50.8784 145.072V145.986H56.3643V145.072H55.45V144.158H51.7927V145.072H50.8784ZM58.193 149.644V150.558H57.2786V151.472H56.3643V152.386H50.8784V151.472H49.9641V150.558H49.0498V144.158H49.9641V143.243H50.8784V142.329H56.3643V143.243H57.2786V144.158H58.193V146.901H57.2786V147.815H50.8784V149.644H51.7927V150.558H55.45V149.644H58.193ZM67.3362 149.644V148.729H69.1648V150.558H68.2505V151.472H67.3362V152.386H61.8502V151.472H60.9359V150.558H60.0216V144.158H60.9359V143.243H61.8502V142.329H67.3362V143.243H68.2505V144.158H69.1648V145.986H67.3362V145.072H66.4218V144.158H62.7646V145.072H61.8502V149.644H62.7646V150.558H66.4218V149.644H67.3362ZM72.8221 145.072V145.986H78.308V145.072H77.3937V144.158H73.7364V145.072H72.8221ZM80.1366 149.644V150.558H79.2223V151.472H78.308V152.386H72.8221V151.472H71.9078V150.558H70.9934V144.158H71.9078V143.243H72.8221V142.329H78.308V143.243H79.2223V144.158H80.1366V146.901H79.2223V147.815H72.8221V149.644H73.7364V150.558H77.3937V149.644H80.1366ZM83.7939 145.072V152.386H81.9653V142.329H83.7939V143.243H84.7082V142.329H89.2798V143.243H90.1942V144.158H91.1085V152.386H89.2798V145.072H88.3655V144.158H84.7082V145.072H83.7939ZM99.3373 150.558H100.252V152.386H98.423V151.472H97.5087V150.558H96.5944V144.158H94.7657V142.329H96.5944V139.586H98.423V142.329H100.252V144.158H98.423V149.644H99.3373V150.558ZM105.738 146.901V152.386H103.909V142.329H105.738V144.158H106.652V143.243H107.566V142.329H111.224V143.243H112.138V144.158H113.052V145.986H111.224V145.072H110.309V144.158H108.481V145.072H107.566V145.986H106.652V146.901H105.738ZM117.624 150.558H121.281V149.644H122.195V147.815H121.281V146.901H117.624V147.815H116.709V149.644H117.624V150.558ZM116.709 152.386V151.472H115.795V150.558H114.881V146.901H115.795V145.986H116.709V145.072H121.281V145.986H122.195V144.158H121.281V143.243H116.709V141.415H122.195V142.329H123.11V143.243H124.024V152.386H122.195V151.472H121.281V152.386H116.709ZM131.339 139.586V152.386H129.51V139.586H131.339ZM142.31 140.5V142.329H140.482V140.5H142.31ZM143.225 150.558H144.139V152.386H142.31V151.472H141.396V150.558H140.482V145.986H138.653V144.158H142.31V149.644H143.225V150.558ZM148.711 150.558H147.796V148.729H149.625V149.644H150.539V150.558H154.197V148.729H152.368V147.815H150.539V146.901H148.711V145.986H147.796V144.158H148.711V143.243H149.625V142.329H155.111V143.243H156.025V144.158H156.939V145.986H155.111V145.072H154.197V144.158H150.539V145.986H153.282V146.901H155.111V147.815H156.025V148.729H156.939V150.558H156.025V151.472H155.111V152.386H149.625V151.472H148.711V150.558ZM160.597 145.072V145.986H166.083V145.072H165.168V144.158H161.511V145.072H160.597ZM167.911 149.644V150.558H166.997V151.472H166.083V152.386H160.597V151.472H159.682V150.558H158.768V144.158H159.682V143.243H160.597V142.329H166.083V143.243H166.997V144.158H167.911V146.901H166.997V147.815H160.597V149.644H161.511V150.558H165.168V149.644H167.911ZM177.055 144.158V139.586H178.883V152.386H177.055V150.558H176.14V151.472H175.226V152.386H172.483V151.472H171.569V150.558H170.654V149.644H169.74V145.072H170.654V144.158H171.569V143.243H172.483V142.329H175.226V143.243H176.14V144.158H177.055ZM172.483 149.644H173.397V150.558H174.312V149.644H175.226V148.729H176.14V145.986H175.226V145.072H174.312V144.158H173.397V145.072H172.483V145.986H171.569V148.729H172.483V149.644ZM193.512 152.386H191.684V139.586H193.512V141.415H194.427V142.329H195.341V143.243H197.17V142.329H198.084V141.415H198.998V139.586H200.827V152.386H198.998V144.158H198.084V145.072H197.17V146.901H195.341V145.072H194.427V144.158H193.512V152.386ZM204.484 145.072V145.986H209.97V145.072H209.056V144.158H205.398V145.072H204.484ZM211.799 149.644V150.558H210.884V151.472H209.97V152.386H204.484V151.472H203.57V150.558H202.655V144.158H203.57V143.243H204.484V142.329H209.97V143.243H210.884V144.158H211.799V146.901H210.884V147.815H204.484V149.644H205.398V150.558H209.056V149.644H211.799ZM215.456 145.072V152.386H213.627V142.329H215.456V143.243H216.37V142.329H220.942V143.243H221.856V144.158H222.771V152.386H220.942V145.072H220.028V144.158H219.113V152.386H217.285V144.158H216.37V145.072H215.456ZM226.428 145.072V145.986H231.914V145.072H230.999V144.158H227.342V145.072H226.428ZM233.742 149.644V150.558H232.828V151.472H231.914V152.386H226.428V151.472H225.513V150.558H224.599V144.158H225.513V143.243H226.428V142.329H231.914V143.243H232.828V144.158H233.742V146.901H232.828V147.815H226.428V149.644H227.342V150.558H230.999V149.644H233.742ZM36.2493 165.415H32.592V163.586H41.7352V165.415H38.0779V176.386H36.2493V165.415ZM44.4782 172.729H43.5638V163.586H45.3925V171.815H46.3068V172.729H47.2211V173.644H49.0498V172.729H49.9641V171.815H50.8784V163.586H52.707V172.729H51.7927V173.644H50.8784V174.558H49.9641V175.472H49.0498V176.386H47.2211V175.472H46.3068V174.558H45.3925V173.644H44.4782V172.729ZM68.2505 174.558H71.9078V173.644H72.8221V171.815H71.9078V170.901H68.2505V171.815H67.3362V173.644H68.2505V174.558ZM67.3362 176.386V175.472H66.4218V174.558H65.5075V170.901H66.4218V169.986H67.3362V169.072H71.9078V169.986H72.8221V168.158H71.9078V167.243H67.3362V165.415H72.8221V166.329H73.7364V167.243H74.6507V176.386H72.8221V175.472H71.9078V176.386H67.3362ZM78.308 169.072V176.386H76.4794V166.329H78.308V167.243H79.2223V166.329H83.7939V167.243H84.7082V168.158H85.6226V176.386H83.7939V169.072H82.8796V168.158H79.2223V169.072H78.308ZM94.7658 168.158V163.586H96.5944V176.386H94.7658V174.558H93.8514V175.472H92.9371V176.386H90.1942V175.472H89.2798V174.558H88.3655V173.644H87.4512V169.072H88.3655V168.158H89.2798V167.243H90.1942V166.329H92.9371V167.243H93.8514V168.158H94.7658ZM90.1942 173.644H91.1085V174.558H92.0228V173.644H92.9371V172.729H93.8514V169.986H92.9371V169.072H92.0228V168.158H91.1085V169.072H90.1942V169.986H89.2798V172.729H90.1942V173.644ZM113.966 174.558H114.881V173.644H115.795V172.729H116.709V169.986H115.795V169.072H114.881V168.158H113.966V169.072H113.052V169.986H112.138V172.729H113.052V173.644H113.966V174.558ZM111.224 174.558V176.386H109.395V163.586H111.224V168.158H112.138V167.243H113.052V166.329H115.795V167.243H116.709V168.158H117.624V169.072H118.538V173.644H117.624V174.558H116.709V175.472H115.795V176.386H113.052V175.472H112.138V174.558H111.224ZM122.195 169.072V169.986H127.681V169.072H126.767V168.158H123.11V169.072H122.195ZM129.51 173.644V174.558H128.596V175.472H127.681V176.386H122.195V175.472H121.281V174.558H120.367V168.158H121.281V167.243H122.195V166.329H127.681V167.243H128.596V168.158H129.51V170.901H128.596V171.815H122.195V173.644H123.11V174.558H126.767V173.644H129.51ZM138.653 169.072V168.158H137.739V167.243H134.082V168.158H133.167V169.072H134.082V169.986H137.739V169.072H138.653ZM133.167 175.472H132.253V173.644H134.082V174.558H137.739V173.644H138.653V170.901H137.739V171.815H133.167V170.901H132.253V169.986H131.339V167.243H132.253V166.329H133.167V165.415H138.653V166.329H139.567V167.243H140.482V174.558H139.567V175.472H138.653V176.386H133.167V175.472ZM147.796 164.5V166.329H145.968V164.5H147.796ZM148.711 174.558H149.625V176.386H147.796V175.472H146.882V174.558H145.968V169.986H144.139V168.158H147.796V173.644H148.711V174.558ZM155.111 169.072V176.386H153.282V166.329H155.111V167.243H156.025V166.329H160.597V167.243H161.511V168.158H162.425V176.386H160.597V169.072H159.682V168.158H156.025V169.072H155.111ZM166.083 169.072V176.386H164.254V166.329H166.083V167.243H166.997V166.329H171.569V167.243H172.483V168.158H173.397V176.386H171.569V169.072H170.654V168.158H166.997V169.072H166.083ZM180.712 164.5V166.329H178.883V164.5H180.712ZM181.626 174.558H182.54V176.386H180.712V175.472H179.797V174.558H178.883V169.986H177.055V168.158H180.712V173.644H181.626V174.558ZM188.026 169.072V176.386H186.198V166.329H188.026V167.243H188.941V166.329H193.512V167.243H194.427V168.158H195.341V176.386H193.512V169.072H192.598V168.158H188.941V169.072H188.026ZM204.484 169.072V168.158H203.57V167.243H199.913V168.158H198.998V169.072H199.913V169.986H203.57V169.072H204.484ZM198.998 175.472H198.084V173.644H199.913V174.558H203.57V173.644H204.484V170.901H203.57V171.815H198.998V170.901H198.084V169.986H197.17V167.243H198.084V166.329H198.998V165.415H204.484V166.329H205.398V167.243H206.313V174.558H205.398V175.472H204.484V176.386H198.998V175.472ZM221.856 174.558H225.513V173.644H226.428V169.072H225.513V168.158H221.856V169.072H220.942V173.644H221.856V174.558ZM220.942 176.386V175.472H220.028V174.558H219.113V168.158H220.028V167.243H220.942V166.329H226.428V167.243H227.342V168.158H228.256V174.558H227.342V175.472H226.428V176.386H220.942ZM235.571 176.386H233.742V168.158H230.999V166.329H233.742V164.5H234.657V163.586H238.314V165.415H235.571V166.329H238.314V168.158H235.571V176.386ZM36.2493 189.415H32.592V187.586H41.7352V189.415H38.0779V200.386H36.2493V189.415ZM45.3925 194.901V200.386H43.5638V187.586H45.3925V192.158H46.3068V191.243H47.2211V190.329H49.9641V191.243H50.8784V192.158H51.7927V193.072H52.707V200.386H50.8784V193.986H49.9641V193.072H49.0498V192.158H48.1354V193.072H47.2211V193.986H46.3068V194.901H45.3925ZM56.3643 193.072V193.986H61.8502V193.072H60.9359V192.158H57.2786V193.072H56.3643ZM63.6789 197.644V198.558H62.7646V199.472H61.8502V200.386H56.3643V199.472H55.45V198.558H54.5357V192.158H55.45V191.243H56.3643V190.329H61.8502V191.243H62.7646V192.158H63.6789V194.901H62.7646V195.815H56.3643V197.644H57.2786V198.558H60.9359V197.644H63.6789ZM78.308 193.072H82.8796V192.158H83.7939V190.329H82.8796V189.415H78.308V193.072ZM76.4794 200.386V187.586H83.7939V188.5H84.7082V189.415H85.6226V193.072H84.7082V194.901H85.6226V198.558H84.7082V199.472H83.7939V200.386H76.4794ZM78.308 198.558H82.8796V197.644H83.7939V195.815H82.8796V194.901H78.308V198.558ZM90.1942 198.558H93.8514V197.644H94.7658V195.815H93.8514V194.901H90.1942V195.815H89.2798V197.644H90.1942V198.558ZM89.2798 200.386V199.472H88.3655V198.558H87.4512V194.901H88.3655V193.986H89.2798V193.072H93.8514V193.986H94.7658V192.158H93.8514V191.243H89.2798V189.415H94.7658V190.329H95.6801V191.243H96.5944V200.386H94.7658V199.472H93.8514V200.386H89.2798ZM104.823 198.558H105.738V200.386H103.909V199.472H102.995V198.558H102.08V192.158H100.252V190.329H102.08V187.586H103.909V190.329H105.738V192.158H103.909V197.644H104.823V198.558ZM115.795 198.558H116.709V200.386H114.881V199.472H113.966V198.558H113.052V192.158H111.224V190.329H113.052V187.586H114.881V190.329H116.709V192.158H114.881V197.644H115.795V198.558ZM125.853 187.586V200.386H124.024V187.586H125.853ZM133.167 193.072V193.986H138.653V193.072H137.739V192.158H134.082V193.072H133.167ZM140.482 197.644V198.558H139.567V199.472H138.653V200.386H133.167V199.472H132.253V198.558H131.339V192.158H132.253V191.243H133.167V190.329H138.653V191.243H139.567V192.158H140.482V194.901H139.567V195.815H133.167V197.644H134.082V198.558H137.739V197.644H140.482ZM156.025 198.558H159.682V197.644H160.597V193.072H159.682V192.158H156.025V193.072H155.111V197.644H156.025V198.558ZM155.111 200.386V199.472H154.197V198.558H153.282V192.158H154.197V191.243H155.111V190.329H160.597V191.243H161.511V192.158H162.425V198.558H161.511V199.472H160.597V200.386H155.111ZM169.74 200.386H167.911V192.158H165.168V190.329H167.911V188.5H168.826V187.586H172.483V189.415H169.74V190.329H172.483V192.158H169.74V200.386ZM188.026 200.386H186.198V187.586H188.026V189.415H188.941V190.329H189.855V191.243H191.684V190.329H192.598V189.415H193.512V187.586H195.341V200.386H193.512V192.158H192.598V193.072H191.684V194.901H189.855V193.072H188.941V192.158H188.026V200.386ZM198.998 193.072V193.986H204.484V193.072H203.57V192.158H199.913V193.072H198.998ZM206.313 197.644V198.558H205.398V199.472H204.484V200.386H198.998V199.472H198.084V198.558H197.17V192.158H198.084V191.243H198.998V190.329H204.484V191.243H205.398V192.158H206.313V194.901H205.398V195.815H198.998V197.644H199.913V198.558H203.57V197.644H206.313ZM209.97 193.072V200.386H208.141V190.329H209.97V191.243H210.884V190.329H215.456V191.243H216.37V192.158H217.285V200.386H215.456V193.072H214.542V192.158H213.627V200.386H211.799V192.158H210.884V193.072H209.97ZM220.942 193.072V193.986H226.428V193.072H225.513V192.158H221.856V193.072H220.942ZM228.256 197.644V198.558H227.342V199.472H226.428V200.386H220.942V199.472H220.028V198.558H219.113V192.158H220.028V191.243H220.942V190.329H226.428V191.243H227.342V192.158H228.256V194.901H227.342V195.815H220.942V197.644H221.856V198.558H225.513V197.644H228.256ZM230.999 198.558H230.085V196.729H231.914V197.644H232.828V198.558H236.485V196.729H234.657V195.815H232.828V194.901H230.999V193.986H230.085V192.158H230.999V191.243H231.914V190.329H237.4V191.243H238.314V192.158H239.228V193.986H237.4V193.072H236.485V192.158H232.828V193.986H235.571V194.901H237.4V195.815H238.314V196.729H239.228V198.558H238.314V199.472H237.4V200.386H231.914V199.472H230.999V198.558Z" fill="url(#paint2_linear_6456_6038)"/>
<defs>
<linearGradient id="paint0_linear_6456_6038" x1="135.477" y1="-3.49187" x2="135.477" y2="259.81" gradientUnits="userSpaceOnUse">
<stop stop-color="#FD8D23"/>
<stop offset="0.115" stop-color="#FAE61C"/>
<stop offset="0.22" stop-color="#EEF73B"/>
<stop offset="0.43" stop-color="#4CF038"/>
<stop offset="0.655" stop-color="#33C6F6"/>
<stop offset="0.735" stop-color="#559CFB"/>
<stop offset="0.81" stop-color="#7475FF"/>
<stop offset="1" stop-color="#D457FF"/>
</linearGradient>
<linearGradient id="paint1_linear_6456_6038" x1="135.477" y1="-1.1273" x2="135.477" y2="83.8758" gradientUnits="userSpaceOnUse">
<stop stop-color="#FD8D23"/>
<stop offset="0.115" stop-color="#FAE61C"/>
<stop offset="0.22" stop-color="#EEF73B"/>
<stop offset="0.43" stop-color="#4CF038"/>
<stop offset="0.655" stop-color="#33C6F6"/>
<stop offset="0.735" stop-color="#559CFB"/>
<stop offset="0.81" stop-color="#7475FF"/>
<stop offset="1" stop-color="#D457FF"/>
</linearGradient>
<linearGradient id="paint2_linear_6456_6038" x1="135.91" y1="107.98" x2="135.91" y2="207.608" gradientUnits="userSpaceOnUse">
<stop stop-color="#FD8D23"/>
<stop offset="0.115" stop-color="#FAE61C"/>
<stop offset="0.22" stop-color="#EEF73B"/>
<stop offset="0.43" stop-color="#4CF038"/>
<stop offset="0.655" stop-color="#33C6F6"/>
<stop offset="0.735" stop-color="#559CFB"/>
<stop offset="0.81" stop-color="#7475FF"/>
<stop offset="1" stop-color="#D457FF"/>
</linearGradient>
</defs>
</svg>
