<svg width="353" height="342" viewBox="0 0 353 342" fill="none" xmlns="http://www.w3.org/2000/svg">
<rect x="1.34615" y="1.34615" width="350.016" height="339.231" stroke="url(#paint0_linear_6456_5981)" stroke-width="2.69231" stroke-linejoin="round" stroke-dasharray="10.77 10.77"/>
<rect x="1.34615" y="1.34615" width="350.016" height="107.692" stroke="url(#paint1_linear_6456_5981)" stroke-width="2.69231" stroke-linejoin="round" stroke-dasharray="10.77 10.77"/>
<path d="M83.9415 59.097V34.8387H104.734V38.3042H108.2V48.7006H104.734V52.1661H90.8725V59.097H83.9415ZM90.8725 48.7006H101.269V38.3042H90.8725V48.7006ZM111.665 59.097V34.8387H118.596V41.7697H132.458V45.2351H135.924V59.097H128.993V45.2351H118.596V59.097H111.665ZM142.855 59.097V55.6316H139.389V52.1661H142.855V48.7006H156.716V45.2351H142.855V41.7697H160.182V45.2351H163.647V59.097H142.855ZM146.32 55.6316H156.716V52.1661H146.32V55.6316ZM167.113 59.097V55.6316H184.44V52.1661H170.578V48.7006H167.113V45.2351H170.578V41.7697H187.906V45.2351H174.044V48.7006H187.906V52.1661H191.371V55.6316H187.906V59.097H167.113ZM198.302 59.097V55.6316H194.837V45.2351H198.302V41.7697H215.63V45.2351H219.095V52.1661H201.768V55.6316H215.63V59.097H198.302ZM201.768 48.7006H212.164V45.2351H201.768V48.7006ZM253.75 59.097V55.6316H250.284V52.1661H257.215V55.6316H267.612V48.7006H257.215V45.2351H260.681V41.7697H264.146V38.3042H253.75V34.8387H274.543V38.3042H271.077V41.7697H267.612V45.2351H271.077V48.7006H274.543V55.6316H271.077V59.097H253.75Z" fill="#EE2E95"/>
<path d="M57.8939 153.986V166.019H63.9103V164.816H65.1136V155.189H63.9103V153.986H57.8939ZM55.4873 168.426V151.58H65.1136V152.783H66.3169V153.986H67.5202V166.019H66.3169V167.222H65.1136V168.426H55.4873ZM69.9268 155.189H72.3333V164.816H73.5366V166.019H78.3498V164.816H79.5531V155.189H81.9597V166.019H80.7564V167.222H79.5531V168.426H72.3333V167.222H71.1301V166.019H69.9268V155.189ZM86.7728 161.206V168.426H84.3662V155.189H86.7728V157.596H87.9761V156.393H89.1794V155.189H93.9926V156.393H95.1958V157.596H96.3991V160.003H93.9926V158.799H92.7893V157.596H90.3827V158.799H89.1794V160.003H87.9761V161.206H86.7728ZM102.416 166.019H107.229V164.816H108.432V162.409H107.229V161.206H102.416V162.409H101.212V164.816H102.416V166.019ZM101.212 168.426V167.222H100.009V166.019H98.8057V161.206H100.009V160.003H101.212V158.799H107.229V160.003H108.432V157.596H107.229V156.393H101.212V153.986H108.432V155.189H109.635V156.393H110.839V168.426H108.432V167.222H107.229V168.426H101.212ZM121.668 166.019H122.872V168.426H120.465V167.222H119.262V166.019H118.058V157.596H115.652V155.189H118.058V151.58H120.465V155.189H122.872V157.596H120.465V164.816H121.668V166.019ZM134.904 152.783V155.189H132.498V152.783H134.904ZM136.108 166.019H137.311V168.426H134.904V167.222H133.701V166.019H132.498V160.003H130.091V157.596H134.904V164.816H136.108V166.019ZM145.734 166.019H150.547V164.816H151.75V158.799H150.547V157.596H145.734V158.799H144.531V164.816H145.734V166.019ZM144.531 168.426V167.222H143.327V166.019H142.124V157.596H143.327V156.393H144.531V155.189H151.75V156.393H152.954V157.596H154.157V166.019H152.954V167.222H151.75V168.426H144.531ZM158.97 158.799V168.426H156.564V155.189H158.97V156.393H160.173V155.189H166.19V156.393H167.393V157.596H168.597V168.426H166.19V158.799H164.987V157.596H160.173V158.799H158.97ZM181.833 158.799V161.206H172.206V158.799H181.833ZM203.492 166.019H208.305V164.816H209.508V162.409H208.305V161.206H203.492V162.409H202.289V164.816H203.492V166.019ZM209.508 167.222V168.426H202.289V167.222H201.085V166.019H199.882V161.206H201.085V158.799H199.882V153.986H201.085V152.783H202.289V151.58H209.508V152.783H210.712V153.986H211.915V158.799H210.712V161.206H211.915V166.019H210.712V167.222H209.508ZM208.305 153.986H203.492V155.189H202.289V157.596H203.492V158.799H208.305V157.596H209.508V155.189H208.305V153.986ZM221.541 152.783V151.58H223.948V161.206H226.354V163.612H223.948V168.426H221.541V163.612H214.322V158.799H215.525V157.596H216.728V156.393H217.931V155.189H219.135V153.986H220.338V152.783H221.541ZM221.541 161.206V156.393H220.338V157.596H219.135V158.799H217.931V160.003H216.728V161.206H221.541ZM252.827 157.596V151.58H255.233V168.426H252.827V166.019H251.624V167.222H250.42V168.426H246.81V167.222H245.607V166.019H244.404V164.816H243.2V158.799H244.404V157.596H245.607V156.393H246.81V155.189H250.42V156.393H251.624V157.596H252.827ZM246.81 164.816H248.014V166.019H249.217V164.816H250.42V163.612H251.624V160.003H250.42V158.799H249.217V157.596H248.014V158.799H246.81V160.003H245.607V163.612H246.81V164.816ZM261.25 166.019H266.063V164.816H267.266V162.409H266.063V161.206H261.25V162.409H260.047V164.816H261.25V166.019ZM260.047 168.426V167.222H258.843V166.019H257.64V161.206H258.843V160.003H260.047V158.799H266.063V160.003H267.266V157.596H266.063V156.393H260.047V153.986H267.266V155.189H268.47V156.393H269.673V168.426H267.266V167.222H266.063V168.426H260.047ZM274.486 168.426V166.019H280.502V164.816H281.706V161.206H280.502V162.409H279.299V163.612H274.486V162.409H273.283V161.206H272.079V153.986H274.486V160.003H275.689V161.206H278.096V160.003H279.299V158.799H280.502V156.393H281.706V153.986H284.112V166.019H282.909V167.222H281.706V168.426H274.486ZM287.722 166.019H286.519V163.612H288.925V164.816H290.129V166.019H294.942V163.612H292.535V162.409H290.129V161.206H287.722V160.003H286.519V157.596H287.722V156.393H288.925V155.189H296.145V156.393H297.349V157.596H298.552V160.003H296.145V158.799H294.942V157.596H290.129V160.003H293.739V161.206H296.145V162.409H297.349V163.612H298.552V166.019H297.349V167.222H296.145V168.426H288.925V167.222H287.722V166.019ZM43.4544 193.206H50.6741V189.596H49.4708V188.393H48.2676V187.189H45.861V188.393H44.6577V189.596H43.4544V193.206ZM43.4544 200.426H41.0478V188.393H42.2511V187.189H43.4544V185.986H44.6577V184.783H45.861V183.58H48.2676V184.783H49.4708V185.986H50.6741V187.189H51.8774V188.393H53.0807V200.426H50.6741V195.612H43.4544V200.426ZM65.1136 196.816V195.612H67.5202V198.019H66.3169V199.222H65.1136V200.426H57.8939V199.222H56.6906V198.019H55.4873V189.596H56.6906V188.393H57.8939V187.189H65.1136V188.393H66.3169V189.596H67.5202V192.003H65.1136V190.799H63.9103V189.596H59.0972V190.799H57.8939V196.816H59.0972V198.019H63.9103V196.816H65.1136ZM78.3498 198.019H79.5531V200.426H77.1465V199.222H75.9432V198.019H74.7399V189.596H72.3333V187.189H74.7399V183.58H77.1465V187.189H79.5531V189.596H77.1465V196.816H78.3498V198.019ZM91.586 184.783V187.189H89.1794V184.783H91.586ZM92.7893 198.019H93.9926V200.426H91.586V199.222H90.3827V198.019H89.1794V192.003H86.7728V189.596H91.586V196.816H92.7893V198.019ZM102.416 198.019H107.229V196.816H108.432V190.799H107.229V189.596H102.416V190.799H101.212V196.816H102.416V198.019ZM101.212 200.426V199.222H100.009V198.019H98.8057V189.596H100.009V188.393H101.212V187.189H108.432V188.393H109.635V189.596H110.839V198.019H109.635V199.222H108.432V200.426H101.212ZM115.652 190.799V200.426H113.245V187.189H115.652V188.393H116.855V187.189H122.872V188.393H124.075V189.596H125.278V200.426H122.872V190.799H121.668V189.596H116.855V190.799H115.652ZM138.514 190.799V193.206H128.888V190.799H138.514ZM160.173 198.019H164.987V196.816H166.19V195.612H168.597V198.019H167.393V199.222H166.19V200.426H158.97V199.222H157.767V198.019H156.564V185.986H157.767V184.783H158.97V183.58H166.19V184.783H167.393V185.986H168.597V188.393H166.19V187.189H164.987V185.986H160.173V187.189H158.97V196.816H160.173V198.019ZM178.223 183.58V200.426H175.816V183.58H178.223ZM189.052 198.019H193.866V196.816H195.069V194.409H193.866V193.206H189.052V194.409H187.849V196.816H189.052V198.019ZM187.849 200.426V199.222H186.646V198.019H185.443V193.206H186.646V192.003H187.849V190.799H193.866V192.003H195.069V189.596H193.866V188.393H187.849V185.986H195.069V187.189H196.272V188.393H197.475V200.426H195.069V199.222H193.866V200.426H187.849ZM207.102 184.783V187.189H204.695V184.783H207.102ZM208.305 198.019H209.508V200.426H207.102V199.222H205.898V198.019H204.695V192.003H202.289V189.596H207.102V196.816H208.305V198.019ZM216.728 190.799V200.426H214.322V187.189H216.728V188.393H217.931V187.189H223.948V188.393H225.151V189.596H226.354V200.426H223.948V190.799H222.745V189.596H221.541V200.426H219.135V189.596H217.931V190.799H216.728ZM244.404 198.019H243.2V195.612H245.607V196.816H246.81V198.019H251.624V195.612H249.217V194.409H246.81V193.206H244.404V192.003H243.2V189.596H244.404V188.393H245.607V187.189H252.827V188.393H254.03V189.596H255.233V192.003H252.827V190.799H251.624V189.596H246.81V192.003H250.42V193.206H252.827V194.409H254.03V195.612H255.233V198.019H254.03V199.222H252.827V200.426H245.607V199.222H244.404V198.019ZM266.063 198.019H267.266V200.426H264.86V199.222H263.656V198.019H262.453V189.596H260.047V187.189H262.453V183.58H264.86V187.189H267.266V189.596H264.86V196.816H266.063V198.019ZM275.689 198.019H280.502V196.816H281.706V194.409H280.502V193.206H275.689V194.409H274.486V196.816H275.689V198.019ZM274.486 200.426V199.222H273.283V198.019H272.079V193.206H273.283V192.003H274.486V190.799H280.502V192.003H281.706V189.596H280.502V188.393H274.486V185.986H281.706V187.189H282.909V188.393H284.112V200.426H281.706V199.222H280.502V200.426H274.486ZM288.925 198.019V200.426H286.519V183.58H288.925V194.409H290.129V193.206H291.332V192.003H292.535V190.799H293.739V189.596H294.942V188.393H296.145V187.189H298.552V189.596H297.349V190.799H296.145V192.003H294.942V193.206H293.739V194.409H294.942V195.612H296.145V196.816H297.349V198.019H298.552V200.426H296.145V199.222H294.942V198.019H293.739V196.816H292.535V195.612H291.332V196.816H290.129V198.019H288.925ZM303.365 190.799V192.003H310.585V190.799H309.381V189.596H304.568V190.799H303.365ZM312.991 196.816V198.019H311.788V199.222H310.585V200.426H303.365V199.222H302.162V198.019H300.958V189.596H302.162V188.393H303.365V187.189H310.585V188.393H311.788V189.596H312.991V193.206H311.788V194.409H303.365V196.816H304.568V198.019H309.381V196.816H312.991ZM36.2347 225.206V232.426H33.8281V219.189H36.2347V221.596H37.4379V220.393H38.6412V219.189H43.4544V220.393H44.6577V221.596H45.861V224.003H43.4544V222.799H42.2511V221.596H39.8445V222.799H38.6412V224.003H37.4379V225.206H36.2347ZM50.6741 222.799V224.003H57.8939V222.799H56.6906V221.596H51.8774V222.799H50.6741ZM60.3004 228.816V230.019H59.0972V231.222H57.8939V232.426H50.6741V231.222H49.4708V230.019H48.2676V221.596H49.4708V220.393H50.6741V219.189H57.8939V220.393H59.0972V221.596H60.3004V225.206H59.0972V226.409H50.6741V228.816H51.8774V230.019H56.6906V228.816H60.3004ZM62.707 219.189H65.1136V228.816H66.3169V230.019H67.5202V224.003H69.9268V230.019H71.1301V228.816H72.3333V219.189H74.7399V230.019H73.5366V231.222H72.3333V232.426H69.9268V231.222H67.5202V232.426H65.1136V231.222H63.9103V230.019H62.707V219.189ZM80.7564 230.019H85.5695V228.816H86.7728V226.409H85.5695V225.206H80.7564V226.409H79.5531V228.816H80.7564V230.019ZM79.5531 232.426V231.222H78.3498V230.019H77.1465V225.206H78.3498V224.003H79.5531V222.799H85.5695V224.003H86.7728V221.596H85.5695V220.393H79.5531V217.986H86.7728V219.189H87.9761V220.393H89.1794V232.426H86.7728V231.222H85.5695V232.426H79.5531ZM93.9926 225.206V232.426H91.586V219.189H93.9926V221.596H95.1958V220.393H96.3991V219.189H101.212V220.393H102.416V221.596H103.619V224.003H101.212V222.799H100.009V221.596H97.6024V222.799H96.3991V224.003H95.1958V225.206H93.9926ZM115.652 221.596V215.58H118.058V232.426H115.652V230.019H114.448V231.222H113.245V232.426H109.635V231.222H108.432V230.019H107.229V228.816H106.025V222.799H107.229V221.596H108.432V220.393H109.635V219.189H113.245V220.393H114.448V221.596H115.652ZM109.635 228.816H110.839V230.019H112.042V228.816H113.245V227.612H114.448V224.003H113.245V222.799H112.042V221.596H110.839V222.799H109.635V224.003H108.432V227.612H109.635V228.816ZM121.668 230.019H120.465V227.612H122.872V228.816H124.075V230.019H128.888V227.612H126.481V226.409H124.075V225.206H121.668V224.003H120.465V221.596H121.668V220.393H122.872V219.189H130.091V220.393H131.295V221.596H132.498V224.003H130.091V222.799H128.888V221.596H124.075V224.003H127.685V225.206H130.091V226.409H131.295V227.612H132.498V230.019H131.295V231.222H130.091V232.426H122.872V231.222H121.668V230.019ZM152.954 230.019H157.767V228.816H158.97V226.409H157.767V225.206H152.954V226.409H151.75V228.816H152.954V230.019ZM151.75 232.426V231.222H150.547V230.019H149.344V225.206H150.547V224.003H151.75V222.799H157.767V224.003H158.97V221.596H157.767V220.393H151.75V217.986H158.97V219.189H160.173V220.393H161.377V232.426H158.97V231.222H157.767V232.426H151.75ZM166.19 222.799V232.426H163.783V219.189H166.19V220.393H167.393V219.189H173.41V220.393H174.613V221.596H175.816V232.426H173.41V222.799H172.206V221.596H167.393V222.799H166.19ZM187.849 221.596V215.58H190.256V232.426H187.849V230.019H186.646V231.222H185.443V232.426H181.833V231.222H180.629V230.019H179.426V228.816H178.223V222.799H179.426V221.596H180.629V220.393H181.833V219.189H185.443V220.393H186.646V221.596H187.849ZM181.833 228.816H183.036V230.019H184.239V228.816H185.443V227.612H186.646V224.003H185.443V222.799H184.239V221.596H183.036V222.799H181.833V224.003H180.629V227.612H181.833V228.816ZM213.118 230.019H214.322V228.816H215.525V227.612H216.728V224.003H215.525V222.799H214.322V221.596H213.118V222.799H211.915V224.003H210.712V227.612H211.915V228.816H213.118V230.019ZM209.508 230.019V232.426H207.102V215.58H209.508V221.596H210.712V220.393H211.915V219.189H215.525V220.393H216.728V221.596H217.931V222.799H219.135V228.816H217.931V230.019H216.728V231.222H215.525V232.426H211.915V231.222H210.712V230.019H209.508ZM223.948 222.799V224.003H231.168V222.799H229.964V221.596H225.151V222.799H223.948ZM233.574 228.816V230.019H232.371V231.222H231.168V232.426H223.948V231.222H222.745V230.019H221.541V221.596H222.745V220.393H223.948V219.189H231.168V220.393H232.371V221.596H233.574V225.206H232.371V226.409H223.948V228.816H225.151V230.019H229.964V228.816H233.574ZM245.607 228.816V227.612H248.014V230.019H246.81V231.222H245.607V232.426H238.387V231.222H237.184V230.019H235.981V221.596H237.184V220.393H238.387V219.189H245.607V220.393H246.81V221.596H248.014V224.003H245.607V222.799H244.404V221.596H239.591V222.799H238.387V228.816H239.591V230.019H244.404V228.816H245.607ZM254.03 230.019H258.843V228.816H260.047V222.799H258.843V221.596H254.03V222.799H252.827V228.816H254.03V230.019ZM252.827 232.426V231.222H251.623V230.019H250.42V221.596H251.623V220.393H252.827V219.189H260.047V220.393H261.25V221.596H262.453V230.019H261.25V231.222H260.047V232.426H252.827ZM267.266 222.799V232.426H264.86V219.189H267.266V220.393H268.47V219.189H274.486V220.393H275.689V221.596H276.893V232.426H274.486V222.799H273.283V221.596H272.079V232.426H269.673V221.596H268.47V222.799H267.266ZM281.706 222.799V224.003H288.925V222.799H287.722V221.596H282.909V222.799H281.706ZM291.332 228.816V230.019H290.129V231.222H288.925V232.426H281.706V231.222H280.502V230.019H279.299V221.596H280.502V220.393H281.706V219.189H288.925V220.393H290.129V221.596H291.332V225.206H290.129V226.409H281.706V228.816H282.909V230.019H287.722V228.816H291.332ZM311.788 230.019H316.601V228.816H317.804V226.409H316.601V225.206H311.788V226.409H310.585V228.816H311.788V230.019ZM310.585 232.426V231.222H309.381V230.019H308.178V225.206H309.381V224.003H310.585V222.799H316.601V224.003H317.804V221.596H316.601V220.393H310.585V217.986H317.804V219.189H319.008V220.393H320.211V232.426H317.804V231.222H316.601V232.426H310.585ZM50.6741 253.596H49.4708V252.393H45.861V253.596H44.6577V257.206H45.861V258.409H49.4708V257.206H50.6741V253.596ZM43.4544 259.612V264.426H41.0478V249.986H43.4544V251.189H44.6577V249.986H50.6741V251.189H51.8774V252.393H53.0807V258.409H51.8774V259.612H50.6741V260.816H44.6577V259.612H43.4544ZM59.0972 262.019H63.9103V260.816H65.1136V258.409H63.9103V257.206H59.0972V258.409H57.8939V260.816H59.0972V262.019ZM57.8939 264.426V263.222H56.6906V262.019H55.4873V257.206H56.6906V256.003H57.8939V254.799H63.9103V256.003H65.1136V253.596H63.9103V252.393H57.8939V249.986H65.1136V251.189H66.3169V252.393H67.5202V264.426H65.1136V263.222H63.9103V264.426H57.8939ZM72.3333 257.206V264.426H69.9268V251.189H72.3333V253.596H73.5366V252.393H74.7399V251.189H79.5531V252.393H80.7564V253.596H81.9597V256.003H79.5531V254.799H78.3498V253.596H75.9432V254.799H74.7399V256.003H73.5366V257.206H72.3333ZM92.7893 262.019H93.9926V264.426H91.586V263.222H90.3827V262.019H89.1794V253.596H86.7728V251.189H89.1794V247.58H91.586V251.189H93.9926V253.596H91.586V260.816H92.7893V262.019ZM116.855 262.019H121.668V260.816H122.872V254.799H121.668V253.596H116.855V254.799H115.652V260.816H116.855V262.019ZM115.652 264.426V263.222H114.448V262.019H113.245V253.596H114.448V252.393H115.652V251.189H122.872V252.393H124.075V253.596H125.278V262.019H124.075V263.222H122.872V264.426H115.652ZM134.904 264.426H132.498V253.596H128.888V251.189H132.498V248.783H133.701V247.58H138.514V249.986H134.904V251.189H138.514V253.596H134.904V264.426ZM161.377 249.986H156.564V247.58H168.597V249.986H163.783V264.426H161.377V249.986ZM173.41 257.206V264.426H171.003V247.58H173.41V253.596H174.613V252.393H175.816V251.189H179.426V252.393H180.629V253.596H181.833V254.799H183.036V264.426H180.629V256.003H179.426V254.799H178.223V253.596H177.02V254.799H175.816V256.003H174.613V257.206H173.41ZM187.849 254.799V256.003H195.069V254.799H193.866V253.596H189.052V254.799H187.849ZM197.475 260.816V262.019H196.272V263.222H195.069V264.426H187.849V263.222H186.646V262.019H185.443V253.596H186.646V252.393H187.849V251.189H195.069V252.393H196.272V253.596H197.475V257.206H196.272V258.409H187.849V260.816H189.052V262.019H193.866V260.816H197.475ZM216.728 264.426H214.322V247.58H216.728V249.986H217.931V251.189H219.135V252.393H221.541V251.189H222.745V249.986H223.948V247.58H226.354V264.426H223.948V253.596H222.745V254.799H221.541V257.206H219.135V254.799H217.931V253.596H216.728V264.426ZM231.168 254.799V256.003H238.387V254.799H237.184V253.596H232.371V254.799H231.168ZM240.794 260.816V262.019H239.591V263.222H238.387V264.426H231.168V263.222H229.964V262.019H228.761V253.596H229.964V252.393H231.168V251.189H238.387V252.393H239.591V253.596H240.794V257.206H239.591V258.409H231.168V260.816H232.371V262.019H237.184V260.816H240.794ZM245.607 254.799V264.426H243.2V251.189H245.607V252.393H246.81V251.189H252.827V252.393H254.03V253.596H255.233V264.426H252.827V254.799H251.624V253.596H250.42V264.426H248.014V253.596H246.81V254.799H245.607ZM260.047 254.799V256.003H267.266V254.799H266.063V253.596H261.25V254.799H260.047ZM269.673 260.816V262.019H268.47V263.222H267.266V264.426H260.047V263.222H258.843V262.019H257.64V253.596H258.843V252.393H260.047V251.189H267.266V252.393H268.47V253.596H269.673V257.206H268.47V258.409H260.047V260.816H261.25V262.019H266.063V260.816H269.673ZM291.332 249.986H286.519V247.58H298.552V249.986H293.739V264.426H291.332V249.986ZM302.162 259.612H300.958V247.58H303.365V258.409H304.568V259.612H305.772V260.816H308.178V259.612H309.381V258.409H310.585V247.58H312.991V259.612H311.788V260.816H310.585V262.019H309.381V263.222H308.178V264.426H305.772V263.222H304.568V262.019H303.365V260.816H302.162V259.612ZM109.635 294.019H114.448V292.816H115.652V291.612H118.058V294.019H116.855V295.222H115.652V296.426H108.432V295.222H107.229V294.019H106.025V281.986H107.229V280.783H108.432V279.58H115.652V280.783H116.855V281.986H118.058V284.393H115.652V283.189H114.448V281.986H109.635V283.189H108.432V292.816H109.635V294.019ZM124.075 294.019H128.888V292.816H130.091V286.799H128.888V285.596H124.075V286.799H122.872V292.816H124.075V294.019ZM122.872 296.426V295.222H121.668V294.019H120.465V285.596H121.668V284.393H122.872V283.189H130.091V284.393H131.295V285.596H132.498V294.019H131.295V295.222H130.091V296.426H122.872ZM142.124 279.58V296.426H139.718V279.58H142.124ZM156.564 279.58V296.426H154.157V279.58H156.564ZM166.19 286.799V288.003H173.41V286.799H172.206V285.596H167.393V286.799H166.19ZM175.816 292.816V294.019H174.613V295.222H173.41V296.426H166.19V295.222H164.987V294.019H163.783V285.596H164.987V284.393H166.19V283.189H173.41V284.393H174.613V285.596H175.816V289.206H174.613V290.409H166.19V292.816H167.393V294.019H172.206V292.816H175.816ZM187.849 292.816V291.612H190.256V294.019H189.052V295.222H187.849V296.426H180.629V295.222H179.426V294.019H178.223V285.596H179.426V284.393H180.629V283.189H187.849V284.393H189.052V285.596H190.256V288.003H187.849V286.799H186.646V285.596H181.833V286.799H180.629V292.816H181.833V294.019H186.646V292.816H187.849ZM201.085 294.019H202.289V296.426H199.882V295.222H198.679V294.019H197.475V285.596H195.069V283.189H197.475V279.58H199.882V283.189H202.289V285.596H199.882V292.816H201.085V294.019ZM214.322 280.783V283.189H211.915V280.783H214.322ZM215.525 294.019H216.728V296.426H214.322V295.222H213.118V294.019H211.915V288.003H209.508V285.596H214.322V292.816H215.525V294.019ZM221.541 283.189H223.948V290.409H225.151V291.612H226.354V292.816H228.761V291.612H229.964V290.409H231.168V283.189H233.574V291.612H232.371V292.816H231.168V294.019H229.964V295.222H228.761V296.426H226.354V295.222H225.151V294.019H223.948V292.816H222.745V291.612H221.541V283.189ZM238.387 286.799V288.003H245.607V286.799H244.404V285.596H239.591V286.799H238.387ZM248.014 292.816V294.019H246.81V295.222H245.607V296.426H238.387V295.222H237.184V294.019H235.981V285.596H237.184V284.393H238.387V283.189H245.607V284.393H246.81V285.596H248.014V289.206H246.81V290.409H238.387V292.816H239.591V294.019H244.404V292.816H248.014Z" fill="url(#paint2_linear_6456_5981)"/>
<defs>
<linearGradient id="paint0_linear_6456_5981" x1="176.354" y1="-4.59546" x2="176.354" y2="341.923" gradientUnits="userSpaceOnUse">
<stop stop-color="#FD8D23"/>
<stop offset="0.115" stop-color="#FAE61C"/>
<stop offset="0.22" stop-color="#EEF73B"/>
<stop offset="0.43" stop-color="#4CF038"/>
<stop offset="0.655" stop-color="#33C6F6"/>
<stop offset="0.735" stop-color="#559CFB"/>
<stop offset="0.81" stop-color="#7475FF"/>
<stop offset="1" stop-color="#D457FF"/>
</linearGradient>
<linearGradient id="paint1_linear_6456_5981" x1="176.354" y1="-1.48358" x2="176.354" y2="110.385" gradientUnits="userSpaceOnUse">
<stop stop-color="#FD8D23"/>
<stop offset="0.115" stop-color="#FAE61C"/>
<stop offset="0.22" stop-color="#EEF73B"/>
<stop offset="0.43" stop-color="#4CF038"/>
<stop offset="0.655" stop-color="#33C6F6"/>
<stop offset="0.735" stop-color="#559CFB"/>
<stop offset="0.81" stop-color="#7475FF"/>
<stop offset="1" stop-color="#D457FF"/>
</linearGradient>
<linearGradient id="paint2_linear_6456_5981" x1="177.02" y1="140.517" x2="177.02" y2="299.73" gradientUnits="userSpaceOnUse">
<stop stop-color="#FD8D23"/>
<stop offset="0.115" stop-color="#FAE61C"/>
<stop offset="0.22" stop-color="#EEF73B"/>
<stop offset="0.43" stop-color="#4CF038"/>
<stop offset="0.655" stop-color="#33C6F6"/>
<stop offset="0.735" stop-color="#559CFB"/>
<stop offset="0.81" stop-color="#7475FF"/>
<stop offset="1" stop-color="#D457FF"/>
</linearGradient>
</defs>
</svg>
