<svg width="353" height="342" viewBox="0 0 353 342" fill="none" xmlns="http://www.w3.org/2000/svg">
<rect x="1.34615" y="1.38522" width="350.016" height="339.231" stroke="url(#paint0_linear_6224_7263)" stroke-width="2.69231" stroke-linejoin="round" stroke-dasharray="10.77 10.77"/>
<rect x="1.34615" y="1.38522" width="350.016" height="107.692" stroke="url(#paint1_linear_6224_7263)" stroke-width="2.69231" stroke-linejoin="round" stroke-dasharray="10.77 10.77"/>
<path d="M85.4806 62.2162V37.9578H106.273V41.4233H109.739V51.8197H106.273V55.2852H92.4115V62.2162H85.4806ZM92.4115 51.8197H102.808V41.4233H92.4115V51.8197ZM113.204 62.2162V37.9578H120.135V44.8888H133.997V48.3543H137.463V62.2162H130.532V48.3543H120.135V62.2162H113.204ZM144.394 62.2162V58.7507H140.928V55.2852H144.394V51.8197H158.256V48.3543H144.394V44.8888H161.721V48.3543H165.186V62.2162H144.394ZM147.859 58.7507H158.256V55.2852H147.859V58.7507ZM168.652 62.2162V58.7507H185.979V55.2852H172.117V51.8197H168.652V48.3543H172.117V44.8888H189.445V48.3543H175.583V51.8197H189.445V55.2852H192.91V58.7507H189.445V62.2162H168.652ZM199.841 62.2162V58.7507H196.376V48.3543H199.841V44.8888H217.169V48.3543H220.634V55.2852H203.307V58.7507H217.169V62.2162H199.841ZM203.307 51.8197H213.703V48.3543H203.307V51.8197ZM255.289 62.2162V58.7507H262.22V44.8888H258.754V41.4233H262.22V37.9578H269.151V58.7507H276.082V62.2162H255.289Z" fill="#FAE61D"/>
<path d="M57.331 154.024V166.057H63.3475V164.854H64.5508V155.228H63.3475V154.024H57.331ZM54.9245 168.464V151.618H64.5508V152.821H65.7541V154.024H66.9573V166.057H65.7541V167.26H64.5508V168.464H54.9245ZM69.3639 155.228H71.7705V164.854H72.9738V166.057H77.787V164.854H78.9902V155.228H81.3968V166.057H80.1935V167.26H78.9902V168.464H71.7705V167.26H70.5672V166.057H69.3639V155.228ZM86.21 161.244V168.464H83.8034V155.228H86.21V157.634H87.4133V156.431H88.6166V155.228H93.4297V156.431H94.633V157.634H95.8363V160.041H93.4297V158.837H92.2264V157.634H89.8199V158.837H88.6166V160.041H87.4133V161.244H86.21ZM101.853 166.057H106.666V164.854H107.869V162.447H106.666V161.244H101.853V162.447H100.649V164.854H101.853V166.057ZM100.649 168.464V167.26H99.4462V166.057H98.2429V161.244H99.4462V160.041H100.649V158.837H106.666V160.041H107.869V157.634H106.666V156.431H100.649V154.024H107.869V155.228H109.072V156.431H110.276V168.464H107.869V167.26H106.666V168.464H100.649ZM121.105 166.057H122.309V168.464H119.902V167.26H118.699V166.057H117.496V157.634H115.089V155.228H117.496V151.618H119.902V155.228H122.309V157.634H119.902V164.854H121.105V166.057ZM134.342 152.821V155.228H131.935V152.821H134.342ZM135.545 166.057H136.748V168.464H134.342V167.26H133.138V166.057H131.935V160.041H129.528V157.634H134.342V164.854H135.545V166.057ZM145.171 166.057H149.984V164.854H151.188V158.837H149.984V157.634H145.171V158.837H143.968V164.854H145.171V166.057ZM143.968 168.464V167.26H142.765V166.057H141.561V157.634H142.765V156.431H143.968V155.228H151.188V156.431H152.391V157.634H153.594V166.057H152.391V167.26H151.188V168.464H143.968ZM158.407 158.837V168.464H156.001V155.228H158.407V156.431H159.611V155.228H165.627V156.431H166.83V157.634H168.034V168.464H165.627V158.837H164.424V157.634H159.611V158.837H158.407ZM181.27 158.837V161.244H171.644V158.837H181.27ZM202.929 166.057H207.742V164.854H208.946V162.447H207.742V161.244H202.929V162.447H201.726V164.854H202.929V166.057ZM208.946 167.26V168.464H201.726V167.26H200.523V166.057H199.319V161.244H200.523V158.837H199.319V154.024H200.523V152.821H201.726V151.618H208.946V152.821H210.149V154.024H211.352V158.837H210.149V161.244H211.352V166.057H210.149V167.26H208.946ZM207.742 154.024H202.929V155.228H201.726V157.634H202.929V158.837H207.742V157.634H208.946V155.228H207.742V154.024ZM220.978 152.821V151.618H223.385V161.244H225.792V163.651H223.385V168.464H220.978V163.651H213.759V158.837H214.962V157.634H216.165V156.431H217.369V155.228H218.572V154.024H219.775V152.821H220.978ZM220.978 161.244V156.431H219.775V157.634H218.572V158.837H217.369V160.041H216.165V161.244H220.978ZM252.264 157.634V151.618H254.671V168.464H252.264V166.057H251.061V167.26H249.857V168.464H246.248V167.26H245.044V166.057H243.841V164.854H242.638V158.837H243.841V157.634H245.044V156.431H246.248V155.228H249.857V156.431H251.061V157.634H252.264ZM246.248 164.854H247.451V166.057H248.654V164.854H249.857V163.651H251.061V160.041H249.857V158.837H248.654V157.634H247.451V158.837H246.248V160.041H245.044V163.651H246.248V164.854ZM260.687 166.057H265.5V164.854H266.703V162.447H265.5V161.244H260.687V162.447H259.484V164.854H260.687V166.057ZM259.484 168.464V167.26H258.28V166.057H257.077V161.244H258.28V160.041H259.484V158.837H265.5V160.041H266.703V157.634H265.5V156.431H259.484V154.024H266.703V155.228H267.907V156.431H269.11V168.464H266.703V167.26H265.5V168.464H259.484ZM273.923 168.464V166.057H279.94V164.854H281.143V161.244H279.94V162.447H278.736V163.651H273.923V162.447H272.72V161.244H271.517V154.024H273.923V160.041H275.126V161.244H277.533V160.041H278.736V158.837H279.94V156.431H281.143V154.024H283.549V166.057H282.346V167.26H281.143V168.464H273.923ZM287.159 166.057H285.956V163.651H288.363V164.854H289.566V166.057H294.379V163.651H291.973V162.447H289.566V161.244H287.159V160.041H285.956V157.634H287.159V156.431H288.363V155.228H295.582V156.431H296.786V157.634H297.989V160.041H295.582V158.837H294.379V157.634H289.566V160.041H293.176V161.244H295.582V162.447H296.786V163.651H297.989V166.057H296.786V167.26H295.582V168.464H288.363V167.26H287.159V166.057ZM86.21 193.244H93.4297V189.634H92.2264V188.431H91.0231V187.228H88.6166V188.431H87.4133V189.634H86.21V193.244ZM86.21 200.464H83.8034V188.431H85.0067V187.228H86.21V186.024H87.4133V184.821H88.6166V183.618H91.0231V184.821H92.2264V186.024H93.4297V187.228H94.633V188.431H95.8363V200.464H93.4297V195.651H86.21V200.464ZM107.869 196.854V195.651H110.276V198.057H109.072V199.26H107.869V200.464H100.649V199.26H99.4462V198.057H98.2429V189.634H99.4462V188.431H100.649V187.228H107.869V188.431H109.072V189.634H110.276V192.041H107.869V190.837H106.666V189.634H101.853V190.837H100.649V196.854H101.853V198.057H106.666V196.854H107.869ZM121.105 198.057H122.309V200.464H119.902V199.26H118.699V198.057H117.496V189.634H115.089V187.228H117.496V183.618H119.902V187.228H122.309V189.634H119.902V196.854H121.105V198.057ZM134.342 184.821V187.228H131.935V184.821H134.342ZM135.545 198.057H136.748V200.464H134.342V199.26H133.138V198.057H131.935V192.041H129.528V189.634H134.342V196.854H135.545V198.057ZM145.171 198.057H149.984V196.854H151.188V190.837H149.984V189.634H145.171V190.837H143.968V196.854H145.171V198.057ZM143.968 200.464V199.26H142.765V198.057H141.561V189.634H142.765V188.431H143.968V187.228H151.188V188.431H152.391V189.634H153.594V198.057H152.391V199.26H151.188V200.464H143.968ZM158.407 190.837V200.464H156.001V187.228H158.407V188.431H159.611V187.228H165.627V188.431H166.83V189.634H168.034V200.464H165.627V190.837H164.424V189.634H159.611V190.837H158.407ZM181.27 190.837V193.244H171.644V190.837H181.27ZM199.319 183.618H201.726V196.854H204.132V190.837H206.539V196.854H208.946V183.618H211.352V198.057H210.149V199.26H208.946V200.464H206.539V199.26H204.132V200.464H201.726V199.26H200.523V198.057H199.319V183.618ZM217.369 198.057H222.182V196.854H223.385V194.447H222.182V193.244H217.369V194.447H216.165V196.854H217.369V198.057ZM216.165 200.464V199.26H214.962V198.057H213.759V193.244H214.962V192.041H216.165V190.837H222.182V192.041H223.385V189.634H222.182V188.431H216.165V186.024H223.385V187.228H224.588V188.431H225.792V200.464H223.385V199.26H222.182V200.464H216.165ZM236.621 198.057H237.824V200.464H235.418V199.26H234.215V198.057H233.011V189.634H230.605V187.228H233.011V183.618H235.418V187.228H237.824V189.634H235.418V196.854H236.621V198.057ZM252.264 196.854V195.651H254.671V198.057H253.467V199.26H252.264V200.464H245.044V199.26H243.841V198.057H242.638V189.634H243.841V188.431H245.044V187.228H252.264V188.431H253.467V189.634H254.671V192.041H252.264V190.837H251.061V189.634H246.247V190.837H245.044V196.854H246.247V198.057H251.061V196.854H252.264ZM259.484 193.244V200.464H257.077V183.618H259.484V189.634H260.687V188.431H261.89V187.228H265.5V188.431H266.703V189.634H267.907V190.837H269.11V200.464H266.703V192.041H265.5V190.837H264.297V189.634H263.094V190.837H261.89V192.041H260.687V193.244H259.484ZM74.1771 218.024H69.3639V215.618H81.3968V218.024H76.5837V232.464H74.1771V218.024ZM86.21 225.244V232.464H83.8034V215.618H86.21V221.634H87.4133V220.431H88.6166V219.228H92.2264V220.431H93.4297V221.634H94.633V222.837H95.8363V232.464H93.4297V224.041H92.2264V222.837H91.0231V221.634H89.8199V222.837H88.6166V224.041H87.4133V225.244H86.21ZM100.649 222.837V224.041H107.869V222.837H106.666V221.634H101.853V222.837H100.649ZM110.276 228.854V230.057H109.072V231.26H107.869V232.464H100.649V231.26H99.4462V230.057H98.2429V221.634H99.4462V220.431H100.649V219.228H107.869V220.431H109.072V221.634H110.276V225.244H109.072V226.447H100.649V228.854H101.853V230.057H106.666V228.854H110.276ZM115.089 232.464H112.682V215.618H115.089V218.024H116.292V219.228H117.496V220.431H119.902V219.228H121.105V218.024H122.309V215.618H124.715V232.464H122.309V221.634H121.105V222.837H119.902V225.244H117.496V222.837H116.292V221.634H115.089V232.464ZM129.528 222.837V224.041H136.748V222.837H135.545V221.634H130.732V222.837H129.528ZM139.155 228.854V230.057H137.951V231.26H136.748V232.464H129.528V231.26H128.325V230.057H127.122V221.634H128.325V220.431H129.528V219.228H136.748V220.431H137.951V221.634H139.155V225.244H137.951V226.447H129.528V228.854H130.732V230.057H135.545V228.854H139.155ZM143.968 222.837V232.464H141.561V219.228H143.968V220.431H145.171V219.228H151.188V220.431H152.391V221.634H153.594V232.464H151.188V222.837H149.984V221.634H148.781V232.464H146.374V221.634H145.171V222.837H143.968ZM158.407 222.837V224.041H165.627V222.837H164.424V221.634H159.611V222.837H158.407ZM168.034 228.854V230.057H166.83V231.26H165.627V232.464H158.407V231.26H157.204V230.057H156.001V221.634H157.204V220.431H158.407V219.228H165.627V220.431H166.83V221.634H168.034V225.244H166.83V226.447H158.407V228.854H159.611V230.057H164.424V228.854H168.034ZM175.253 218.024H170.44V215.618H182.473V218.024H177.66V232.464H175.253V218.024ZM186.083 227.651H184.88V215.618H187.286V226.447H188.49V227.651H189.693V228.854H192.099V227.651H193.303V226.447H194.506V215.618H196.913V227.651H195.709V228.854H194.506V230.057H193.303V231.26H192.099V232.464H189.693V231.26H188.49V230.057H187.286V228.854H186.083V227.651ZM204.132 230.057V227.651H206.539V230.057H205.336V231.26H204.132V232.464H201.726V231.26H202.929V230.057H204.132ZM237.824 221.634H236.621V220.431H233.011V221.634H231.808V225.244H233.011V226.447H236.621V225.244H237.824V221.634ZM230.605 227.651V232.464H228.198V218.024H230.605V219.228H231.808V218.024H237.824V219.228H239.028V220.431H240.231V226.447H239.028V227.651H237.824V228.854H231.808V227.651H230.605ZM249.857 215.618V232.464H247.451V215.618H249.857ZM260.687 230.057H265.5V228.854H266.703V226.447H265.5V225.244H260.687V226.447H259.484V228.854H260.687V230.057ZM259.484 232.464V231.26H258.28V230.057H257.077V225.244H258.28V224.041H259.484V222.837H265.5V224.041H266.703V221.634H265.5V220.431H259.484V218.024H266.703V219.228H267.907V220.431H269.11V232.464H266.703V231.26H265.5V232.464H259.484ZM273.923 232.464V230.057H279.94V228.854H281.143V225.244H279.94V226.447H278.736V227.651H273.923V226.447H272.72V225.244H271.517V218.024H273.923V224.041H275.126V225.244H277.533V224.041H278.736V222.837H279.94V220.431H281.143V218.024H283.549V230.057H282.346V231.26H281.143V232.464H273.923ZM71.7705 254.837V253.634H70.5672V252.431H65.7541V253.634H64.5508V254.837H65.7541V256.041H70.5672V254.837H71.7705ZM64.5508 263.26H63.3475V260.854H65.7541V262.057H70.5672V260.854H71.7705V257.244H70.5672V258.447H64.5508V257.244H63.3475V256.041H62.1442V252.431H63.3475V251.228H64.5508V250.024H71.7705V251.228H72.9738V252.431H74.1771V262.057H72.9738V263.26H71.7705V264.464H64.5508V263.26ZM80.1935 262.057H85.0067V260.854H86.21V258.447H85.0067V257.244H80.1935V258.447H78.9902V260.854H80.1935V262.057ZM78.9902 264.464V263.26H77.787V262.057H76.5837V257.244H77.787V256.041H78.9902V254.837H85.0067V256.041H86.21V253.634H85.0067V252.431H78.9902V250.024H86.21V251.228H87.4133V252.431H88.6166V264.464H86.21V263.26H85.0067V264.464H78.9902ZM93.4297 254.837V264.464H91.0231V251.228H93.4297V252.431H94.633V251.228H100.649V252.431H101.853V253.634H103.056V264.464H100.649V254.837H99.4462V253.634H98.2429V264.464H95.8363V253.634H94.633V254.837H93.4297ZM107.869 254.837V256.041H115.089V254.837H113.886V253.634H109.072V254.837H107.869ZM117.496 260.854V262.057H116.292V263.26H115.089V264.464H107.869V263.26H106.666V262.057H105.463V253.634H106.666V252.431H107.869V251.228H115.089V252.431H116.292V253.634H117.496V257.244H116.292V258.447H107.869V260.854H109.072V262.057H113.886V260.854H117.496ZM121.105 262.057H119.902V259.651H122.309V260.854H123.512V262.057H128.325V259.651H125.919V258.447H123.512V257.244H121.105V256.041H119.902V253.634H121.105V252.431H122.309V251.228H129.528V252.431H130.732V253.634H131.935V256.041H129.528V254.837H128.325V253.634H123.512V256.041H127.122V257.244H129.528V258.447H130.732V259.651H131.935V262.057H130.732V263.26H129.528V264.464H122.309V263.26H121.105V262.057ZM139.155 262.057V259.651H141.561V262.057H140.358V263.26H139.155V264.464H136.748V263.26H137.951V262.057H139.155ZM164.424 262.057H163.221V259.651H165.627V260.854H166.83V262.057H171.644V259.651H169.237V258.447H166.83V257.244H164.424V256.041H163.221V253.634H164.424V252.431H165.627V251.228H172.847V252.431H174.05V253.634H175.253V256.041H172.847V254.837H171.644V253.634H166.83V256.041H170.44V257.244H172.847V258.447H174.05V259.651H175.253V262.057H174.05V263.26H172.847V264.464H165.627V263.26H164.424V262.057ZM186.083 262.057H187.286V264.464H184.88V263.26H183.676V262.057H182.473V253.634H180.067V251.228H182.473V247.618H184.88V251.228H187.286V253.634H184.88V260.854H186.083V262.057ZM195.709 262.057H200.523V260.854H201.726V258.447H200.523V257.244H195.709V258.447H194.506V260.854H195.709V262.057ZM194.506 264.464V263.26H193.303V262.057H192.099V257.244H193.303V256.041H194.506V254.837H200.523V256.041H201.726V253.634H200.523V252.431H194.506V250.024H201.726V251.228H202.929V252.431H204.132V264.464H201.726V263.26H200.523V264.464H194.506ZM208.946 262.057V264.464H206.539V247.618H208.946V258.447H210.149V257.244H211.352V256.041H212.555V254.837H213.759V253.634H214.962V252.431H216.165V251.228H218.572V253.634H217.369V254.837H216.165V256.041H214.962V257.244H213.759V258.447H214.962V259.651H216.165V260.854H217.369V262.057H218.572V264.464H216.165V263.26H214.962V262.057H213.759V260.854H212.555V259.651H211.352V260.854H210.149V262.057H208.946ZM223.385 254.837V256.041H230.605V254.837H229.401V253.634H224.588V254.837H223.385ZM233.011 260.854V262.057H231.808V263.26H230.605V264.464H223.385V263.26H222.182V262.057H220.978V253.634H222.182V252.431H223.385V251.228H230.605V252.431H231.808V253.634H233.011V257.244H231.808V258.447H223.385V260.854H224.588V262.057H229.401V260.854H233.011ZM253.467 262.057H258.28V260.854H259.484V258.447H258.28V257.244H253.467V258.447H252.264V260.854H253.467V262.057ZM252.264 264.464V263.26H251.061V262.057H249.857V257.244H251.061V256.041H252.264V254.837H258.28V256.041H259.484V253.634H258.28V252.431H252.264V250.024H259.484V251.228H260.687V252.431H261.89V264.464H259.484V263.26H258.28V264.464H252.264ZM266.703 254.837V264.464H264.297V251.228H266.703V252.431H267.907V251.228H273.923V252.431H275.126V253.634H276.33V264.464H273.923V254.837H272.72V253.634H267.907V254.837H266.703ZM288.363 253.634V247.618H290.769V264.464H288.363V262.057H287.159V263.26H285.956V264.464H282.346V263.26H281.143V262.057H279.94V260.854H278.736V254.837H279.94V253.634H281.143V252.431H282.346V251.228H285.956V252.431H287.159V253.634H288.363ZM282.346 260.854H283.549V262.057H284.753V260.854H285.956V259.651H287.159V256.041H285.956V254.837H284.753V253.634H283.549V254.837H282.346V256.041H281.143V259.651H282.346V260.854ZM100.649 286.837V288.041H107.869V286.837H106.666V285.634H101.853V286.837H100.649ZM110.276 292.854V294.057H109.072V295.26H107.869V296.464H100.649V295.26H99.4462V294.057H98.2429V285.634H99.4462V284.431H100.649V283.228H107.869V284.431H109.072V285.634H110.276V289.244H109.072V290.447H100.649V292.854H101.853V294.057H106.666V292.854H110.276ZM116.292 294.057H121.105V292.854H122.309V290.447H121.105V289.244H116.292V290.447H115.089V292.854H116.292V294.057ZM115.089 296.464V295.26H113.886V294.057H112.682V289.244H113.886V288.041H115.089V286.837H121.105V288.041H122.309V285.634H121.105V284.431H115.089V282.024H122.309V283.228H123.512V284.431H124.715V296.464H122.309V295.26H121.105V296.464H115.089ZM129.528 289.244V296.464H127.122V283.228H129.528V285.634H130.732V284.431H131.935V283.228H136.748V284.431H137.951V285.634H139.155V288.041H136.748V286.837H135.545V285.634H133.138V286.837H131.935V288.041H130.732V289.244H129.528ZM143.968 286.837V296.464H141.561V283.228H143.968V284.431H145.171V283.228H151.188V284.431H152.391V285.634H153.594V296.464H151.188V286.837H149.984V285.634H145.171V286.837H143.968ZM180.067 285.634H178.863V284.431H175.253V285.634H174.05V289.244H175.253V290.447H178.863V289.244H180.067V285.634ZM172.847 291.651V296.464H170.44V282.024H172.847V283.228H174.05V282.024H180.067V283.228H181.27V284.431H182.473V290.447H181.27V291.651H180.067V292.854H174.05V291.651H172.847ZM188.49 294.057H193.303V292.854H194.506V286.837H193.303V285.634H188.49V286.837H187.286V292.854H188.49V294.057ZM187.286 296.464V295.26H186.083V294.057H184.88V285.634H186.083V284.431H187.286V283.228H194.506V284.431H195.709V285.634H196.913V294.057H195.709V295.26H194.506V296.464H187.286ZM206.539 280.821V283.228H204.132V280.821H206.539ZM207.742 294.057H208.946V296.464H206.539V295.26H205.336V294.057H204.132V288.041H201.726V285.634H206.539V292.854H207.742V294.057ZM216.165 286.837V296.464H213.759V283.228H216.165V284.431H217.369V283.228H223.385V284.431H224.588V285.634H225.792V296.464H223.385V286.837H222.182V285.634H217.369V286.837H216.165ZM236.621 294.057H237.824V296.464H235.418V295.26H234.215V294.057H233.011V285.634H230.605V283.228H233.011V279.618H235.418V283.228H237.824V285.634H235.418V292.854H236.621V294.057ZM243.841 294.057H242.638V291.651H245.044V292.854H246.248V294.057H251.061V291.651H248.654V290.447H246.248V289.244H243.841V288.041H242.638V285.634H243.841V284.431H245.044V283.228H252.264V284.431H253.467V285.634H254.671V288.041H252.264V286.837H251.061V285.634H246.248V288.041H249.857V289.244H252.264V290.447H253.467V291.651H254.671V294.057H253.467V295.26H252.264V296.464H245.044V295.26H243.841V294.057Z" fill="url(#paint2_linear_6224_7263)"/>
<defs>
<linearGradient id="paint0_linear_6224_7263" x1="176.354" y1="-4.5564" x2="176.354" y2="341.962" gradientUnits="userSpaceOnUse">
<stop stop-color="#FD8D23"/>
<stop offset="0.115" stop-color="#FAE61C"/>
<stop offset="0.22" stop-color="#EEF73B"/>
<stop offset="0.43" stop-color="#4CF038"/>
<stop offset="0.655" stop-color="#33C6F6"/>
<stop offset="0.735" stop-color="#559CFB"/>
<stop offset="0.81" stop-color="#7475FF"/>
<stop offset="1" stop-color="#D457FF"/>
</linearGradient>
<linearGradient id="paint1_linear_6224_7263" x1="176.354" y1="-1.44451" x2="176.354" y2="110.424" gradientUnits="userSpaceOnUse">
<stop stop-color="#FD8D23"/>
<stop offset="0.115" stop-color="#FAE61C"/>
<stop offset="0.22" stop-color="#EEF73B"/>
<stop offset="0.43" stop-color="#4CF038"/>
<stop offset="0.655" stop-color="#33C6F6"/>
<stop offset="0.735" stop-color="#559CFB"/>
<stop offset="0.81" stop-color="#7475FF"/>
<stop offset="1" stop-color="#D457FF"/>
</linearGradient>
<linearGradient id="paint2_linear_6224_7263" x1="176.457" y1="140.39" x2="176.457" y2="312.09" gradientUnits="userSpaceOnUse">
<stop stop-color="#FD8D23"/>
<stop offset="0.115" stop-color="#FAE61C"/>
<stop offset="0.22" stop-color="#EEF73B"/>
<stop offset="0.43" stop-color="#4CF038"/>
<stop offset="0.655" stop-color="#33C6F6"/>
<stop offset="0.735" stop-color="#559CFB"/>
<stop offset="0.81" stop-color="#7475FF"/>
<stop offset="1" stop-color="#D457FF"/>
</linearGradient>
</defs>
</svg>
