<svg width="355" height="342" viewBox="0 0 355 342" fill="none" xmlns="http://www.w3.org/2000/svg">
<rect x="2.1274" y="1.38522" width="351.346" height="339.231" stroke="url(#paint0_linear_6224_7272)" stroke-width="2.69231" stroke-linejoin="round" stroke-dasharray="10.77 10.77"/>
<rect x="2.1274" y="1.38522" width="351.346" height="107.692" stroke="url(#paint1_linear_6224_7272)" stroke-width="2.69231" stroke-linejoin="round" stroke-dasharray="10.77 10.77"/>
<path d="M80.83 60.4584V36.2H101.623V39.6655H105.088V50.0619H101.623V53.5274H87.761V60.4584H80.83ZM87.761 50.0619H98.1574V39.6655H87.761V50.0619ZM108.554 60.4584V36.2H115.485V43.131H129.347V46.5965H132.812V60.4584H125.881V46.5965H115.485V60.4584H108.554ZM139.743 60.4584V56.9929H136.278V53.5274H139.743V50.0619H153.605V46.5965H139.743V43.131H157.07V46.5965H160.536V60.4584H139.743ZM143.209 56.9929H153.605V53.5274H143.209V56.9929ZM164.001 60.4584V56.9929H181.329V53.5274H167.467V50.0619H164.001V46.5965H167.467V43.131H184.794V46.5965H170.932V50.0619H184.794V53.5274H188.26V56.9929H184.794V60.4584H164.001ZM195.191 60.4584V56.9929H191.725V46.5965H195.191V43.131H212.518V46.5965H215.983V53.5274H198.656V56.9929H212.518V60.4584H195.191ZM198.656 50.0619H209.053V46.5965H198.656V50.0619ZM247.173 60.4584V53.5274H250.638V50.0619H254.104V46.5965H261.035V43.131H264.5V39.6655H254.104V43.131H247.173V39.6655H250.638V36.2H267.966V39.6655H271.431V46.5965H267.966V50.0619H264.5V53.5274H257.569V56.9929H271.431V60.4584H247.173Z" fill="#2D913C"/>
<path d="M59.243 154.025V166.058H65.2595V164.855H66.4628V155.228H65.2595V154.025H59.243ZM56.8365 168.465V151.619H66.4628V152.822H67.6661V154.025H68.8694V166.058H67.6661V167.261H66.4628V168.465H56.8365ZM71.2759 155.228H73.6825V164.855H74.8858V166.058H79.699V164.855H80.9023V155.228H83.3088V166.058H82.1056V167.261H80.9023V168.465H73.6825V167.261H72.4792V166.058H71.2759V155.228ZM88.122 161.245V168.465H85.7154V155.228H88.122V157.635H89.3253V156.432H90.5286V155.228H95.3417V156.432H96.545V157.635H97.7483V160.042H95.3417V158.838H94.1384V157.635H91.7319V158.838H90.5286V160.042H89.3253V161.245H88.122ZM103.765 166.058H108.578V164.855H109.781V162.448H108.578V161.245H103.765V162.448H102.561V164.855H103.765V166.058ZM102.561 168.465V167.261H101.358V166.058H100.155V161.245H101.358V160.042H102.561V158.838H108.578V160.042H109.781V157.635H108.578V156.432H102.561V154.025H109.781V155.228H110.985V156.432H112.188V168.465H109.781V167.261H108.578V168.465H102.561ZM123.017 166.058H124.221V168.465H121.814V167.261H120.611V166.058H119.408V157.635H117.001V155.228H119.408V151.619H121.814V155.228H124.221V157.635H121.814V164.855H123.017V166.058ZM136.254 152.822V155.228H133.847V152.822H136.254ZM137.457 166.058H138.66V168.465H136.254V167.261H135.05V166.058H133.847V160.042H131.44V157.635H136.254V164.855H137.457V166.058ZM147.083 166.058H151.896V164.855H153.1V158.838H151.896V157.635H147.083V158.838H145.88V164.855H147.083V166.058ZM145.88 168.465V167.261H144.677V166.058H143.473V157.635H144.677V156.432H145.88V155.228H153.1V156.432H154.303V157.635H155.506V166.058H154.303V167.261H153.1V168.465H145.88ZM160.319 158.838V168.465H157.913V155.228H160.319V156.432H161.523V155.228H167.539V156.432H168.742V157.635H169.946V168.465H167.539V158.838H166.336V157.635H161.523V158.838H160.319ZM183.182 158.838V161.245H173.556V158.838H183.182ZM204.841 166.058H209.654V164.855H210.858V162.448H209.654V161.245H204.841V162.448H203.638V164.855H204.841V166.058ZM210.858 167.261V168.465H203.638V167.261H202.435V166.058H201.231V161.245H202.435V158.838H201.231V154.025H202.435V152.822H203.638V151.619H210.858V152.822H212.061V154.025H213.264V158.838H212.061V161.245H213.264V166.058H212.061V167.261H210.858ZM209.654 154.025H204.841V155.228H203.638V157.635H204.841V158.838H209.654V157.635H210.858V155.228H209.654V154.025ZM222.89 152.822V151.619H225.297V161.245H227.704V163.652H225.297V168.465H222.89V163.652H215.671V158.838H216.874V157.635H218.077V156.432H219.281V155.228H220.484V154.025H221.687V152.822H222.89ZM222.89 161.245V156.432H221.687V157.635H220.484V158.838H219.281V160.042H218.077V161.245H222.89ZM254.176 157.635V151.619H256.583V168.465H254.176V166.058H252.973V167.261H251.769V168.465H248.16V167.261H246.956V166.058H245.753V164.855H244.55V158.838H245.753V157.635H246.956V156.432H248.16V155.228H251.769V156.432H252.973V157.635H254.176ZM248.16 164.855H249.363V166.058H250.566V164.855H251.769V163.652H252.973V160.042H251.769V158.838H250.566V157.635H249.363V158.838H248.16V160.042H246.956V163.652H248.16V164.855ZM262.599 166.058H267.412V164.855H268.615V162.448H267.412V161.245H262.599V162.448H261.396V164.855H262.599V166.058ZM261.396 168.465V167.261H260.192V166.058H258.989V161.245H260.192V160.042H261.396V158.838H267.412V160.042H268.615V157.635H267.412V156.432H261.396V154.025H268.615V155.228H269.819V156.432H271.022V168.465H268.615V167.261H267.412V168.465H261.396ZM275.835 168.465V166.058H281.852V164.855H283.055V161.245H281.852V162.448H280.648V163.652H275.835V162.448H274.632V161.245H273.429V154.025H275.835V160.042H277.038V161.245H279.445V160.042H280.648V158.838H281.852V156.432H283.055V154.025H285.461V166.058H284.258V167.261H283.055V168.465H275.835ZM289.071 166.058H287.868V163.652H290.275V164.855H291.478V166.058H296.291V163.652H293.885V162.448H291.478V161.245H289.071V160.042H287.868V157.635H289.071V156.432H290.275V155.228H297.494V156.432H298.698V157.635H299.901V160.042H297.494V158.838H296.291V157.635H291.478V160.042H295.088V161.245H297.494V162.448H298.698V163.652H299.901V166.058H298.698V167.261H297.494V168.465H290.275V167.261H289.071V166.058ZM73.6825 193.245H80.9023V189.635H79.699V188.432H78.4957V187.228H76.0891V188.432H74.8858V189.635H73.6825V193.245ZM73.6825 200.465H71.276V188.432H72.4792V187.228H73.6825V186.025H74.8858V184.822H76.0891V183.619H78.4957V184.822H79.699V186.025H80.9023V187.228H82.1056V188.432H83.3088V200.465H80.9023V195.652H73.6825V200.465ZM95.3417 196.855V195.652H97.7483V198.058H96.545V199.261H95.3417V200.465H88.122V199.261H86.9187V198.058H85.7154V189.635H86.9187V188.432H88.122V187.228H95.3417V188.432H96.545V189.635H97.7483V192.042H95.3417V190.838H94.1385V189.635H89.3253V190.838H88.122V196.855H89.3253V198.058H94.1385V196.855H95.3417ZM108.578 198.058H109.781V200.465H107.375V199.261H106.171V198.058H104.968V189.635H102.561V187.228H104.968V183.619H107.375V187.228H109.781V189.635H107.375V196.855H108.578V198.058ZM121.814 184.822V187.228H119.408V184.822H121.814ZM123.017 198.058H124.221V200.465H121.814V199.261H120.611V198.058H119.408V192.042H117.001V189.635H121.814V196.855H123.017V198.058ZM132.644 198.058H137.457V196.855H138.66V190.838H137.457V189.635H132.644V190.838H131.44V196.855H132.644V198.058ZM131.44 200.465V199.261H130.237V198.058H129.034V189.635H130.237V188.432H131.44V187.228H138.66V188.432H139.863V189.635H141.067V198.058H139.863V199.261H138.66V200.465H131.44ZM145.88 190.838V200.465H143.473V187.228H145.88V188.432H147.083V187.228H153.1V188.432H154.303V189.635H155.506V200.465H153.1V190.838H151.896V189.635H147.083V190.838H145.88ZM168.742 190.838V193.245H159.116V190.838H168.742ZM190.402 198.058H195.215V196.855H196.418V195.652H198.825V198.058H197.621V199.261H196.418V200.465H189.198V199.261H187.995V198.058H186.792V186.025H187.995V184.822H189.198V183.619H196.418V184.822H197.621V186.025H198.825V188.432H196.418V187.228H195.215V186.025H190.402V187.228H189.198V196.855H190.402V198.058ZM204.841 198.058H209.654V196.855H210.858V190.838H209.654V189.635H204.841V190.838H203.638V196.855H204.841V198.058ZM203.638 200.465V199.261H202.435V198.058H201.231V189.635H202.435V188.432H203.638V187.228H210.858V188.432H212.061V189.635H213.264V198.058H212.061V199.261H210.858V200.465H203.638ZM218.077 190.838V200.465H215.671V187.228H218.077V188.432H219.281V187.228H225.297V188.432H226.5V189.635H227.704V200.465H225.297V190.838H224.094V189.635H219.281V190.838H218.077ZM230.11 187.228H232.517V194.448H233.72V195.652H234.923V196.855H237.33V195.652H238.533V194.448H239.736V187.228H242.143V195.652H240.94V196.855H239.736V198.058H238.533V199.261H237.33V200.465H234.923V199.261H233.72V198.058H232.517V196.855H231.313V195.652H230.11V187.228ZM246.956 190.838V192.042H254.176V190.838H252.973V189.635H248.16V190.838H246.956ZM256.583 196.855V198.058H255.379V199.261H254.176V200.465H246.956V199.261H245.753V198.058H244.55V189.635H245.753V188.432H246.956V187.228H254.176V188.432H255.379V189.635H256.583V193.245H255.379V194.448H246.956V196.855H248.16V198.058H252.973V196.855H256.583ZM261.396 193.245V200.465H258.989V187.228H261.396V189.635H262.599V188.432H263.802V187.228H268.615V188.432H269.819V189.635H271.022V192.042H268.615V190.838H267.412V189.635H265.006V190.838H263.802V192.042H262.599V193.245H261.396ZM281.852 198.058H283.055V200.465H280.648V199.261H279.445V198.058H278.242V189.635H275.835V187.228H278.242V183.619H280.648V187.228H283.055V189.635H280.648V196.855H281.852V198.058ZM44.8036 221.635H43.6003V220.432H39.9904V221.635H38.7871V225.245H39.9904V226.448H43.6003V225.245H44.8036V221.635ZM37.5838 227.652V232.465H35.1773V218.025H37.5838V219.228H38.7871V218.025H44.8036V219.228H46.0069V220.432H47.2102V226.448H46.0069V227.652H44.8036V228.855H38.7871V227.652H37.5838ZM53.2266 230.058H58.0398V228.855H59.2431V222.838H58.0398V221.635H53.2266V222.838H52.0233V228.855H53.2266V230.058ZM52.0233 232.465V231.261H50.82V230.058H49.6167V221.635H50.82V220.432H52.0233V219.228H59.2431V220.432H60.4463V221.635H61.6496V230.058H60.4463V231.261H59.2431V232.465H52.0233ZM71.2759 216.822V219.228H68.8694V216.822H71.2759ZM72.4792 230.058H73.6825V232.465H71.2759V231.261H70.0727V230.058H68.8694V224.042H66.4628V221.635H71.2759V228.855H72.4792V230.058ZM80.9023 222.838V232.465H78.4957V219.228H80.9023V220.432H82.1056V219.228H88.122V220.432H89.3253V221.635H90.5286V232.465H88.122V222.838H86.9187V221.635H82.1056V222.838H80.9023ZM101.358 230.058H102.561V232.465H100.155V231.261H98.9516V230.058H97.7483V221.635H95.3417V219.228H97.7483V215.619H100.155V219.228H102.561V221.635H100.155V228.855H101.358V230.058ZM108.578 230.058H107.375V227.652H109.781V228.855H110.985V230.058H115.798V227.652H113.391V226.448H110.985V225.245H108.578V224.042H107.375V221.635H108.578V220.432H109.781V219.228H117.001V220.432H118.204V221.635H119.408V224.042H117.001V222.838H115.798V221.635H110.985V224.042H114.594V225.245H117.001V226.448H118.204V227.652H119.408V230.058H118.204V231.261H117.001V232.465H109.781V231.261H108.578V230.058ZM144.677 230.058H145.88V232.465H143.473V231.261H142.27V230.058H141.067V221.635H138.66V219.228H141.067V215.619H143.473V219.228H145.88V221.635H143.473V228.855H144.677V230.058ZM154.303 230.058H159.116V228.855H160.319V222.838H159.116V221.635H154.303V222.838H153.1V228.855H154.303V230.058ZM153.1 232.465V231.261H151.896V230.058H150.693V221.635H151.896V220.432H153.1V219.228H160.319V220.432H161.523V221.635H162.726V230.058H161.523V231.261H160.319V232.465H153.1ZM187.995 230.058H189.198V232.465H186.792V231.261H185.588V230.058H184.385V221.635H181.979V219.228H184.385V215.619H186.792V219.228H189.198V221.635H186.792V228.855H187.995V230.058ZM197.621 230.058H202.435V228.855H203.638V222.838H202.435V221.635H197.621V222.838H196.418V228.855H197.621V230.058ZM196.418 232.465V231.261H195.215V230.058H194.011V221.635H195.215V220.432H196.418V219.228H203.638V220.432H204.841V221.635H206.044V230.058H204.841V231.261H203.638V232.465H196.418ZM210.858 230.058V232.465H208.451V215.619H210.858V226.448H212.061V225.245H213.264V224.042H214.467V222.838H215.671V221.635H216.874V220.432H218.077V219.228H220.484V221.635H219.281V222.838H218.077V224.042H216.874V225.245H215.671V226.448H216.874V227.652H218.077V228.855H219.281V230.058H220.484V232.465H218.077V231.261H216.874V230.058H215.671V228.855H214.467V227.652H213.264V228.855H212.061V230.058H210.858ZM225.297 222.838V224.042H232.517V222.838H231.313V221.635H226.5V222.838H225.297ZM234.923 228.855V230.058H233.72V231.261H232.517V232.465H225.297V231.261H224.094V230.058H222.89V221.635H224.094V220.432H225.297V219.228H232.517V220.432H233.72V221.635H234.923V225.245H233.72V226.448H225.297V228.855H226.5V230.058H231.313V228.855H234.923ZM239.737 222.838V232.465H237.33V219.228H239.737V220.432H240.94V219.228H246.956V220.432H248.16V221.635H249.363V232.465H246.956V222.838H245.753V221.635H240.94V222.838H239.737ZM252.973 230.058H251.769V227.652H254.176V228.855H255.379V230.058H260.192V227.652H257.786V226.448H255.379V225.245H252.973V224.042H251.769V221.635H252.973V220.432H254.176V219.228H261.396V220.432H262.599V221.635H263.802V224.042H261.396V222.838H260.192V221.635H255.379V224.042H258.989V225.245H261.396V226.448H262.599V227.652H263.802V230.058H262.599V231.261H261.396V232.465H254.176V231.261H252.973V230.058ZM284.258 230.058H289.071V228.855H290.275V226.448H289.071V225.245H284.258V226.448H283.055V228.855H284.258V230.058ZM283.055 232.465V231.261H281.852V230.058H280.648V225.245H281.852V224.042H283.055V222.838H289.071V224.042H290.275V221.635H289.071V220.432H283.055V218.025H290.275V219.228H291.478V220.432H292.681V232.465H290.275V231.261H289.071V232.465H283.055ZM297.494 222.838V232.465H295.088V219.228H297.494V220.432H298.698V219.228H304.714V220.432H305.917V221.635H307.121V232.465H304.714V222.838H303.511V221.635H298.698V222.838H297.494ZM319.154 221.635V215.619H321.56V232.465H319.154V230.058H317.95V231.261H316.747V232.465H313.137V231.261H311.934V230.058H310.731V228.855H309.527V222.838H310.731V221.635H311.934V220.432H313.137V219.228H316.747V220.432H317.95V221.635H319.154ZM313.137 228.855H314.34V230.058H315.544V228.855H316.747V227.652H317.95V224.042H316.747V222.838H315.544V221.635H314.34V222.838H313.137V224.042H311.934V227.652H313.137V228.855ZM65.2595 262.058H64.0562V259.652H66.4628V260.855H67.6661V262.058H72.4792V259.652H70.0727V258.448H67.6661V257.245H65.2595V256.042H64.0562V253.635H65.2595V252.432H66.4628V251.228H73.6825V252.432H74.8858V253.635H76.0891V256.042H73.6825V254.838H72.4792V253.635H67.6661V256.042H71.2759V257.245H73.6825V258.448H74.8858V259.652H76.0891V262.058H74.8858V263.261H73.6825V264.465H66.4628V263.261H65.2595V262.058ZM86.9187 262.058H88.122V264.465H85.7154V263.261H84.5121V262.058H83.3088V253.635H80.9023V251.228H83.3088V247.619H85.7154V251.228H88.122V253.635H85.7154V260.855H86.9187V262.058ZM96.545 262.058H101.358V260.855H102.561V258.448H101.358V257.245H96.545V258.448H95.3417V260.855H96.545V262.058ZM95.3417 264.465V263.261H94.1385V262.058H92.9352V257.245H94.1385V256.042H95.3417V254.838H101.358V256.042H102.561V253.635H101.358V252.432H95.3417V250.025H102.561V251.228H103.765V252.432H104.968V264.465H102.561V263.261H101.358V264.465H95.3417ZM109.781 257.245V264.465H107.375V251.228H109.781V253.635H110.985V252.432H112.188V251.228H117.001V252.432H118.204V253.635H119.408V256.042H117.001V254.838H115.798V253.635H113.391V254.838H112.188V256.042H110.985V257.245H109.781ZM130.237 262.058H131.44V264.465H129.034V263.261H127.831V262.058H126.627V253.635H124.221V251.228H126.627V247.619H129.034V251.228H131.44V253.635H129.034V260.855H130.237V262.058ZM159.116 262.058H160.319V264.465H157.913V263.261H156.71V262.058H155.506V253.635H153.1V251.228H155.506V247.619H157.913V251.228H160.319V253.635H157.913V260.855H159.116V262.058ZM167.539 257.245V264.465H165.133V251.228H167.539V253.635H168.742V252.432H169.946V251.228H174.759V252.432H175.962V253.635H177.165V256.042H174.759V254.838H173.556V253.635H171.149V254.838H169.946V256.042H168.742V257.245H167.539ZM183.182 262.058H187.995V260.855H189.198V258.448H187.995V257.245H183.182V258.448H181.979V260.855H183.182V262.058ZM181.979 264.465V263.261H180.775V262.058H179.572V257.245H180.775V256.042H181.979V254.838H187.995V256.042H189.198V253.635H187.995V252.432H181.979V250.025H189.198V251.228H190.402V252.432H191.605V264.465H189.198V263.261H187.995V264.465H181.979ZM203.638 253.635V247.619H206.044V264.465H203.638V262.058H202.435V263.261H201.231V264.465H197.621V263.261H196.418V262.058H195.215V260.855H194.012V254.838H195.215V253.635H196.418V252.432H197.621V251.228H201.231V252.432H202.435V253.635H203.638ZM197.621 260.855H198.825V262.058H200.028V260.855H201.231V259.652H202.435V256.042H201.231V254.838H200.028V253.635H198.825V254.838H197.621V256.042H196.418V259.652H197.621V260.855ZM215.671 248.822V251.228H213.264V248.822H215.671ZM216.874 262.058H218.077V264.465H215.671V263.261H214.467V262.058H213.264V256.042H210.858V253.635H215.671V260.855H216.874V262.058ZM225.297 254.838V264.465H222.89V251.228H225.297V252.432H226.5V251.228H232.517V252.432H233.72V253.635H234.923V264.465H232.517V254.838H231.313V253.635H226.5V254.838H225.297ZM246.956 254.838V253.635H245.753V252.432H240.94V253.635H239.737V254.838H240.94V256.042H245.753V254.838H246.956ZM239.737 263.261H238.533V260.855H240.94V262.058H245.753V260.855H246.956V257.245H245.753V258.448H239.737V257.245H238.533V256.042H237.33V252.432H238.533V251.228H239.737V250.025H246.956V251.228H248.16V252.432H249.363V262.058H248.16V263.261H246.956V264.465H239.737V263.261ZM269.819 262.058H274.632V260.855H275.835V254.838H274.632V253.635H269.819V254.838H268.615V260.855H269.819V262.058ZM268.615 264.465V263.261H267.412V262.058H266.209V253.635H267.412V252.432H268.615V251.228H275.835V252.432H277.038V253.635H278.242V262.058H277.038V263.261H275.835V264.465H268.615ZM283.055 254.838V264.465H280.648V251.228H283.055V252.432H284.258V251.228H290.275V252.432H291.478V253.635H292.681V264.465H290.275V254.838H289.071V253.635H284.258V254.838H283.055ZM117.001 286.838V288.042H124.221V286.838H123.017V285.635H118.204V286.838H117.001ZM126.627 292.855V294.058H125.424V295.261H124.221V296.465H117.001V295.261H115.798V294.058H114.594V285.635H115.798V284.432H117.001V283.228H124.221V284.432H125.424V285.635H126.627V289.245H125.424V290.448H117.001V292.855H118.204V294.058H123.017V292.855H126.627ZM131.44 295.261V296.465H129.034V294.058H130.237V292.855H131.44V291.652H132.644V290.448H133.847V289.245H132.644V288.042H131.44V286.838H130.237V285.635H129.034V283.228H131.44V284.432H132.644V285.635H133.847V286.838H136.254V285.635H137.457V284.432H138.66V283.228H141.067V285.635H139.863V286.838H138.66V288.042H137.457V289.245H136.254V290.448H137.457V291.652H138.66V292.855H139.863V294.058H141.067V296.465H138.66V295.261H137.457V294.058H136.254V292.855H133.847V294.058H132.644V295.261H131.44ZM153.1 292.855V291.652H155.506V294.058H154.303V295.261H153.1V296.465H145.88V295.261H144.677V294.058H143.473V285.635H144.677V284.432H145.88V283.228H153.1V284.432H154.303V285.635H155.506V288.042H153.1V286.838H151.896V285.635H147.083V286.838H145.88V292.855H147.083V294.058H151.896V292.855H153.1ZM160.319 289.245V296.465H157.913V279.619H160.319V285.635H161.523V284.432H162.726V283.228H166.336V284.432H167.539V285.635H168.742V286.838H169.946V296.465H167.539V288.042H166.336V286.838H165.133V285.635H163.929V286.838H162.726V288.042H161.523V289.245H160.319ZM175.962 294.058H180.775V292.855H181.979V290.448H180.775V289.245H175.962V290.448H174.759V292.855H175.962V294.058ZM174.759 296.465V295.261H173.556V294.058H172.352V289.245H173.556V288.042H174.759V286.838H180.775V288.042H181.979V285.635H180.775V284.432H174.759V282.025H181.979V283.228H183.182V284.432H184.385V296.465H181.979V295.261H180.775V296.465H174.759ZM189.198 286.838V296.465H186.792V283.228H189.198V284.432H190.402V283.228H196.418V284.432H197.621V285.635H198.825V296.465H196.418V286.838H195.215V285.635H190.402V286.838H189.198ZM210.858 286.838V285.635H209.654V284.432H204.841V285.635H203.638V286.838H204.841V288.042H209.654V286.838H210.858ZM203.638 295.261H202.435V292.855H204.841V294.058H209.654V292.855H210.858V289.245H209.654V290.448H203.638V289.245H202.435V288.042H201.231V284.432H202.435V283.228H203.638V282.025H210.858V283.228H212.061V284.432H213.264V294.058H212.061V295.261H210.858V296.465H203.638V295.261ZM218.077 286.838V288.042H225.297V286.838H224.094V285.635H219.281V286.838H218.077ZM227.704 292.855V294.058H226.5V295.261H225.297V296.465H218.077V295.261H216.874V294.058H215.671V285.635H216.874V284.432H218.077V283.228H225.297V284.432H226.5V285.635H227.704V289.245H226.5V290.448H218.077V292.855H219.281V294.058H224.094V292.855H227.704ZM231.313 294.058H230.11V291.652H232.517V292.855H233.72V294.058H238.533V291.652H236.127V290.448H233.72V289.245H231.313V288.042H230.11V285.635H231.313V284.432H232.517V283.228H239.736V284.432H240.94V285.635H242.143V288.042H239.736V286.838H238.533V285.635H233.72V288.042H237.33V289.245H239.736V290.448H240.94V291.652H242.143V294.058H240.94V295.261H239.736V296.465H232.517V295.261H231.313V294.058Z" fill="url(#paint2_linear_6224_7272)"/>
<defs>
<linearGradient id="paint0_linear_6224_7272" x1="177.801" y1="-4.5564" x2="177.801" y2="341.962" gradientUnits="userSpaceOnUse">
<stop stop-color="#FD8D23"/>
<stop offset="0.115" stop-color="#FAE61C"/>
<stop offset="0.22" stop-color="#EEF73B"/>
<stop offset="0.43" stop-color="#4CF038"/>
<stop offset="0.655" stop-color="#33C6F6"/>
<stop offset="0.735" stop-color="#559CFB"/>
<stop offset="0.81" stop-color="#7475FF"/>
<stop offset="1" stop-color="#D457FF"/>
</linearGradient>
<linearGradient id="paint1_linear_6224_7272" x1="177.801" y1="-1.44451" x2="177.801" y2="110.424" gradientUnits="userSpaceOnUse">
<stop stop-color="#FD8D23"/>
<stop offset="0.115" stop-color="#FAE61C"/>
<stop offset="0.22" stop-color="#EEF73B"/>
<stop offset="0.43" stop-color="#4CF038"/>
<stop offset="0.655" stop-color="#33C6F6"/>
<stop offset="0.735" stop-color="#559CFB"/>
<stop offset="0.81" stop-color="#7475FF"/>
<stop offset="1" stop-color="#D457FF"/>
</linearGradient>
<linearGradient id="paint2_linear_6224_7272" x1="178.369" y1="140.557" x2="178.369" y2="299.769" gradientUnits="userSpaceOnUse">
<stop stop-color="#FD8D23"/>
<stop offset="0.115" stop-color="#FAE61C"/>
<stop offset="0.22" stop-color="#EEF73B"/>
<stop offset="0.43" stop-color="#4CF038"/>
<stop offset="0.655" stop-color="#33C6F6"/>
<stop offset="0.735" stop-color="#559CFB"/>
<stop offset="0.81" stop-color="#7475FF"/>
<stop offset="1" stop-color="#D457FF"/>
</linearGradient>
</defs>
</svg>
